<?xml version="1.0" standalone="no"?>
<!DOCTYPE svg PUBLIC "-//W3C//DTD SVG 1.1//EN" "http://www.w3.org/Graphics/SVG/1.1/DTD/svg11.dtd" >
<svg xmlns="http://www.w3.org/2000/svg">
<metadata></metadata>
<defs>
<font id="open_sans_lightregular" horiz-adv-x="1169" >
<font-face units-per-em="2048" ascent="1638" descent="-410" />
<missing-glyph horiz-adv-x="532" />
<glyph unicode="ff" horiz-adv-x="1229" d="M586 1001h-256v-1001h-99v1001h-202v58l202 37v84q0 200 73.5 293.5t240.5 93.5q90 0 180 -27l-23 -86q-80 25 -159 25q-116 0 -164.5 -68.5t-48.5 -222.5v-101h256v-86zM1200 1001h-256v-1001h-99v1001h-202v58l202 37v84q0 200 73.5 293.5t240.5 93.5q90 0 180 -27 l-23 -86q-80 25 -159 25q-116 0 -164.5 -68.5t-48.5 -222.5v-101h256v-86z" />
<glyph unicode="&#xfb01;" horiz-adv-x="1077" d="M586 1001h-256v-1001h-99v1001h-202v58l202 37v84q0 200 73.5 293.5t240.5 93.5q90 0 180 -27l-23 -86q-80 25 -159 25q-116 0 -164.5 -68.5t-48.5 -222.5v-101h256v-86zM895 0h-99v1087h99v-1087zM845 1292q-63 0 -63 96.5t64.5 96.5t64.5 -96q0 -45 -17.5 -71 t-48.5 -26z" />
<glyph unicode="&#xfb02;" horiz-adv-x="1077" d="M586 1001h-256v-1001h-99v1001h-202v58l202 37v84q0 200 73.5 293.5t240.5 93.5q90 0 180 -27l-23 -86q-80 25 -159 25q-116 0 -164.5 -68.5t-48.5 -222.5v-101h256v-86zM895 0h-99v1556h99v-1556z" />
<glyph unicode="&#xfb03;" horiz-adv-x="1692" d="M586 1001h-256v-1001h-99v1001h-202v58l202 37v84q0 200 73.5 293.5t240.5 93.5q90 0 180 -27l-23 -86q-80 25 -159 25q-116 0 -164.5 -68.5t-48.5 -222.5v-101h256v-86zM1200 1001h-256v-1001h-99v1001h-202v58l202 37v84q0 200 73.5 293.5t240.5 93.5q90 0 180 -27 l-23 -86q-80 25 -159 25q-116 0 -164.5 -68.5t-48.5 -222.5v-101h256v-86zM1510 0h-99v1087h99v-1087zM1460 1292q-63 0 -63 96.5t64.5 96.5t64.5 -96q0 -45 -17.5 -71t-48.5 -26z" />
<glyph unicode="&#xfb04;" horiz-adv-x="1692" d="M586 1001h-256v-1001h-99v1001h-202v58l202 37v84q0 200 73.5 293.5t240.5 93.5q90 0 180 -27l-23 -86q-80 25 -159 25q-116 0 -164.5 -68.5t-48.5 -222.5v-101h256v-86zM1200 1001h-256v-1001h-99v1001h-202v58l202 37v84q0 200 73.5 293.5t240.5 93.5q90 0 180 -27 l-23 -86q-80 25 -159 25q-116 0 -164.5 -68.5t-48.5 -222.5v-101h256v-86zM1510 0h-99v1556h99v-1556z" />
<glyph unicode="&#xd;" horiz-adv-x="1044" />
<glyph unicode=" "  horiz-adv-x="532" />
<glyph unicode="&#x09;" horiz-adv-x="532" />
<glyph unicode="&#xa0;" horiz-adv-x="532" />
<glyph unicode="!" horiz-adv-x="492" d="M276 377h-61l-29 1085h119zM164 78q0 98 81 98t81 -98t-81 -98t-81 98z" />
<glyph unicode="&#x22;" horiz-adv-x="723" d="M260 1462l-33 -528h-61l-33 528h127zM590 1462l-33 -528h-61l-33 528h127z" />
<glyph unicode="#" horiz-adv-x="1323" d="M967 928l-76 -398h303v-79h-320l-86 -451h-90l88 451h-360l-86 -451h-88l86 451h-283v79h299l76 398h-297v80h311l86 454h91l-89 -454h365l88 454h86l-88 -454h285v-80h-301zM440 530h363l78 398h-363z" />
<glyph unicode="$" d="M911 644q80 -78 80 -207.5t-99 -213.5t-274 -106v-236h-81v232q-92 2 -200.5 22.5t-172.5 50.5v103q75 -36 179.5 -61t193.5 -25v508q-145 44 -215 88q-134 84 -134 250q0 124 94.5 208.5t254.5 104.5v192h81v-190q197 -9 351 -72l-33 -90q-141 62 -318 72v-486 q213 -66 293 -144zM810.5 284q70.5 62 70.5 153.5t-63 147t-200 95.5v-471q122 13 192.5 75zM357.5 1192q-60.5 -60 -60.5 -144.5t57 -139.5t183 -93v453q-119 -16 -179.5 -76z" />
<glyph unicode="%" horiz-adv-x="1653" d="M397 1395q-186 0 -186 -371t186 -371q193 0 193 371t-193 371zM612 1362.5q76 -120.5 76 -341.5t-75 -338.5t-212 -117.5t-212.5 120.5t-75.5 342t72 338.5t211.5 117t215.5 -120.5zM1063 438q0 -370 186 -370q193 0 193 369.5t-193 369.5q-96 0 -141 -91.5t-45 -277.5z M1464 775q76 -120 76 -341.5t-74 -339t-212.5 -117.5t-213.5 121.5t-75 343t73.5 337.5t211.5 116t214 -120zM1280 1462l-811 -1462h-96l811 1462h96z" />
<glyph unicode="&#x26;" horiz-adv-x="1460" d="M1083 336q119 140 179 358h96q-63 -246 -209 -426l266 -268h-135l-193 197q-92 -90 -164 -131q-148 -86 -354.5 -86t-326 103t-119.5 288q0 138 73.5 235t274.5 205l-75 82q-130 140 -130 282t95.5 226t253.5 84t248.5 -81t90.5 -224q0 -105 -70 -192.5t-253 -194.5z M320 151q93 -81 239.5 -81t253 43.5t209.5 146.5l-483 485q-136 -72 -197 -123q-115 -96 -115 -243t93 -228zM438.5 1337q-65.5 -58 -65.5 -149t40 -158t152 -174q159 85 221 159t62 168.5t-62 153t-172 58.5t-175.5 -58z" />
<glyph unicode="'" horiz-adv-x="393" d="M260 1462l-33 -528h-61l-33 528h127z" />
<glyph unicode="(" horiz-adv-x="557" d="M159 73q-77 227 -77 490t77.5 494t223.5 405h113q-148 -182 -227 -412.5t-79 -486.5q0 -483 304 -887h-111q-147 170 -224 397z" />
<glyph unicode=")" horiz-adv-x="557" d="M475 561q0 -263 -77.5 -490t-223.5 -395h-111q304 404 304 887q0 257 -79 487.5t-227 411.5h113q147 -175 224 -406.5t77 -494.5z" />
<glyph unicode="*" horiz-adv-x="1128" d="M631 1556l-37 -405l405 104l21 -131l-395 -39l247 -340l-124 -71l-191 379l-180 -379l-125 71l242 340l-390 39l19 131l401 -104l-39 405h146z" />
<glyph unicode="+" d="M625 764h434v-82h-434v-432h-82v432h-432v82h432v434h82v-434z" />
<glyph unicode="," horiz-adv-x="440" d="M295 238l12 -21q-75 -265 -174 -481h-65q77 275 110 502h117z" />
<glyph unicode="-" horiz-adv-x="659" d="M92 512v82h475v-82h-475z" />
<glyph unicode="." horiz-adv-x="487" d="M162 78q0 98 81 98t81 -98t-81 -98t-81 98z" />
<glyph unicode="/" horiz-adv-x="698" d="M674 1462l-545 -1462h-104l544 1462h105z" />
<glyph unicode="0" d="M934 1294.5q121 -190.5 121 -567.5q0 -747 -473 -747q-229 0 -348 190.5t-119 568.5t115.5 562t349 184t354.5 -190.5zM308 1227q-85 -168 -85 -500q0 -657 359 -657q189 0 275.5 168t86.5 494.5t-86.5 494.5t-275.5 168t-274 -168z" />
<glyph unicode="1" d="M682 0h-98v1065q0 145 12 301q-15 -15 -31 -29t-309 -243l-57 71l397 297h86v-1462z" />
<glyph unicode="2" d="M1028 0h-915v88l389 406q164 170 230 260q128 175 128 344q0 131 -86 213t-223 82q-183 0 -350 -133l-54 69q183 154 390 154t316.5 -102t109.5 -264t-73.5 -297.5t-268.5 -334.5l-375 -385v-4h782v-96z" />
<glyph unicode="3" d="M979 1118q0 -136 -85.5 -229t-229.5 -119v-6q176 -22 268 -112t92 -242q0 -205 -139.5 -317.5t-382 -112.5t-408.5 83v99q84 -44 188.5 -69t196.5 -25q221 0 332 89.5t111 243.5q0 310 -447 310h-158v96h160q182 0 288.5 86.5t106.5 221.5t-86.5 208.5t-211 73.5 t-214.5 -30.5t-202 -104.5l-49 67q85 71 205 112.5t243 41.5q202 0 312 -95.5t110 -269.5z" />
<glyph unicode="4" d="M1141 373h-252v-373h-94v373h-752v67l725 1030h121v-1011h252v-86zM795 459v418q0 302 14 507h-8q-20 -37 -123 -188l-516 -737h633z" />
<glyph unicode="5" d="M900 105q-140 -125 -380 -125t-377 83v103q108 -55 192 -76.5t179 -21.5q192 0 308 101.5t116 269.5t-113 261t-307 93q-130 0 -272 -39l-60 39l58 669h704v-96h-610l-45 -516q156 29 244 29q234 0 368.5 -113t134.5 -324.5t-140 -336.5z" />
<glyph unicode="6" d="M242 705q154 198 370 198t331.5 -117t115.5 -332t-121.5 -344.5t-335.5 -129.5t-342.5 169.5t-128.5 464t77 488.5q153 383 564 383q94 0 172 -23v-88q-73 27 -176 27q-247 0 -384.5 -178t-154.5 -518h13zM610 68q164 0 255 103t91 282.5t-90 273.5t-245 94 q-102 0 -189.5 -45t-139.5 -119.5t-52 -169t49.5 -197t134 -162.5t186.5 -60z" />
<glyph unicode="7" d="M334 0l602 1366h-827v96h946v-73l-604 -1389h-117z" />
<glyph unicode="8" d="M121 375q0 262 340 399q-161 76 -227 160.5t-66 196t53 191t148.5 122.5t212.5 43q186 0 299.5 -95t113.5 -257q0 -112 -70.5 -198t-228.5 -159q192 -79 270 -173t78 -228q0 -181 -126.5 -289t-343.5 -108t-335 101t-118 294zM300 576q-77 -86 -77 -220t93.5 -210 t259.5 -76t266 80.5t100 211.5t-78.5 208.5t-302.5 162.5q-184 -71 -261 -157zM810.5 1327q-84.5 70 -228 70t-229 -69.5t-85.5 -190.5q0 -131 122 -221q60 -43 200 -101q163 63 234 139t71 189.5t-84.5 183.5z" />
<glyph unicode="9" d="M199 92q89 -29 196 -29q247 0 387 178.5t156 520.5h-12q-73 -96 -174 -147.5t-211 -51.5q-203 0 -316.5 112t-113.5 325t124.5 349t323.5 136q144 0 252 -75.5t166.5 -221.5t58.5 -390t-76 -438q-147 -380 -569 -380q-104 0 -192 26v86zM559 1397q-158 0 -252 -106.5 t-94 -286t87 -269.5t249 -90q101 0 188.5 45t139 119.5t51.5 171.5t-46.5 199t-130 159.5t-192.5 57.5z" />
<glyph unicode=":" horiz-adv-x="487" d="M162 78q0 98 81 98t81 -98t-81 -98t-81 98zM162 971q0 98 81 98t81 -98q0 -53 -23.5 -76t-58 -23t-57.5 23t-23 76z" />
<glyph unicode=";" horiz-adv-x="487" d="M76 -264q75 252 110 502h117l12 -21q-75 -265 -174 -481h-65zM162 971q0 98 81 98t81 -98q0 -53 -23.5 -76t-58 -23t-57.5 23t-23 76z" />
<glyph unicode="&#x3c;" d="M1059 266l-948 416v61l948 474v-95l-823 -405l823 -355v-96z" />
<glyph unicode="=" d="M111 885v82h948v-82h-948zM111 477v82h948v-82h-948z" />
<glyph unicode="&#x3e;" d="M111 362l823 355l-823 405v95l948 -474v-61l-948 -416v96z" />
<glyph unicode="?" horiz-adv-x="862" d="M610.5 1322q-83.5 75 -224 75t-292.5 -74l-37 80q110 48 184.5 64t153.5 16q183 0 288 -98.5t105 -270.5q0 -168 -147 -298q-46 -40 -106 -90.5t-94.5 -95t-50 -93.5t-15.5 -146v-14h-82v37q0 123 37.5 201t138.5 167l91 79q72 61 103 121t31 138q0 127 -83.5 202z M260 78q0 98 81 98t81 -98t-81 -98t-81 98z" />
<glyph unicode="@" horiz-adv-x="1815" d="M846 -106q190 0 420 88v-99q-203 -80 -414 -80q-349 0 -544 200.5t-195 557.5q0 256 108.5 460.5t307 317.5t431 113t398 -89t255 -254.5t89.5 -388.5t-90.5 -361t-245.5 -138q-89 0 -144.5 54t-64.5 147h-4q-86 -201 -313 -201q-148 0 -229 96.5t-81 284.5t120.5 316.5 t314.5 128.5q138 0 286 -41l-22 -464v-30q0 -104 35 -156.5t116 -52.5q103 0 168.5 116.5t65.5 307t-79 336.5t-225.5 224.5t-355.5 78.5t-384.5 -99.5t-270 -281.5t-94.5 -418q0 -322 167 -497.5t474 -175.5zM721 864.5q-88 -102.5 -88 -260t55 -229.5t174 -72 q255 0 273 346l16 291q-79 27 -193 27q-149 0 -237 -102.5z" />
<glyph unicode="A" horiz-adv-x="1229" d="M911 516h-594l-204 -516h-113l588 1468h65l576 -1468h-115zM354 608h523l-199 527q-25 62 -60 172q-27 -96 -59 -174z" />
<glyph unicode="B" horiz-adv-x="1284" d="M207 1462h401q271 0 398 -92t127 -278q0 -127 -77.5 -211.5t-226.5 -108.5v-6q175 -26 257.5 -110.5t82.5 -235.5q0 -202 -134 -311t-380 -109h-448v1462zM309 811h322q206 0 299.5 68.5t93.5 214.5t-105.5 212t-314.5 66h-295v-561zM309 721v-631h344q406 0 406 330 q0 301 -428 301h-322z" />
<glyph unicode="C" horiz-adv-x="1272" d="M831 1391q-275 0 -433 -176t-158 -485.5t149 -482.5t426 -173q184 0 338 47v-90q-145 -51 -362 -51q-308 0 -485 199t-177 556q0 223 84.5 393t243 262.5t370.5 92.5t381 -80l-41 -92q-160 80 -336 80z" />
<glyph unicode="D" horiz-adv-x="1446" d="M1134.5 1279q182.5 -183 182.5 -542.5t-193 -548t-567 -188.5h-350v1462h395q350 0 532.5 -183zM1206 741q0 314 -159.5 472.5t-468.5 158.5h-269v-1282h242q655 0 655 651z" />
<glyph unicode="E" horiz-adv-x="1130" d="M1006 0h-799v1462h799v-94h-697v-553h658v-94h-658v-627h697v-94z" />
<glyph unicode="F" horiz-adv-x="1028" d="M309 0h-102v1462h801v-94h-699v-620h660v-95h-660v-653z" />
<glyph unicode="G" horiz-adv-x="1481" d="M782 737h539v-667q-212 -90 -477 -90q-346 0 -530.5 195.5t-184.5 553.5q0 223 91.5 395.5t262 266.5t400.5 94t420 -88l-41 -92q-190 88 -394 88q-289 0 -458.5 -178.5t-169.5 -495t161 -483t473 -166.5q202 0 343 57v514h-435v96z" />
<glyph unicode="H" horiz-adv-x="1473" d="M1266 0h-103v719h-854v-719h-102v1462h102v-649h854v649h103v-1462z" />
<glyph unicode="I" horiz-adv-x="516" d="M207 0v1462h102v-1462h-102z" />
<glyph unicode="J" horiz-adv-x="506" d="M-33 -369q-92 0 -151 27v88q78 -20 149 -20q242 0 242 264v1472h102v-1462q0 -369 -342 -369z" />
<glyph unicode="K" horiz-adv-x="1190" d="M1190 0h-125l-561 772l-195 -172v-600h-102v1462h102v-760l162 162l573 598h130l-599 -618z" />
<glyph unicode="L" horiz-adv-x="1051" d="M207 0v1462h102v-1366h697v-96h-799z" />
<glyph unicode="M" horiz-adv-x="1767" d="M850 0l-545 1350h-8q8 -124 8 -254v-1096h-98v1462h158l518 -1286h6l518 1286h154v-1462h-103v1108q0 116 12 240h-8l-547 -1348h-65z" />
<glyph unicode="N" horiz-adv-x="1477" d="M1270 0h-103l-866 1298h-8q12 -232 12 -350v-948h-98v1462h102l865 -1296h6q-9 180 -9 342v954h99v-1462z" />
<glyph unicode="O" horiz-adv-x="1565" d="M1263 1283.5q173 -201.5 173 -550t-174 -551t-479.5 -202.5t-479.5 202.5t-174 552t175.5 550t480.5 200.5t478 -201.5zM381.5 1216q-141.5 -170 -141.5 -483.5t140 -485t403 -171.5t402.5 170t139.5 486.5t-139.5 485t-401 168.5t-403 -170z" />
<glyph unicode="P" horiz-adv-x="1198" d="M1087 1042q0 -212 -144 -325t-408 -113h-226v-604h-102v1462h358q522 0 522 -420zM309 692h201q247 0 357 81.5t110 257.5t-104 257.5t-322 81.5h-242v-678z" />
<glyph unicode="Q" horiz-adv-x="1565" d="M1436 733q0 -294 -126 -486.5t-349 -246.5l333 -348h-166l-282 330l-33 -2h-31q-305 0 -479 202.5t-174 552t175.5 550t480.5 200.5t478 -201.5t173 -550.5zM381.5 1216q-141.5 -170 -141.5 -483.5t140 -485t403 -171.5t402.5 170t139.5 486.5t-139.5 485t-401 168.5 t-403 -170z" />
<glyph unicode="R" horiz-adv-x="1217" d="M1087 1059q0 -306 -313 -393l397 -666h-122l-377 637h-363v-637h-102v1462h348q272 0 402 -100.5t130 -302.5zM309 725h279q185 0 287 82.5t102 246.5t-100 240t-326 76h-242v-645z" />
<glyph unicode="S" horiz-adv-x="1116" d="M1014 377q0 -183 -134.5 -290t-380 -107t-388.5 59v102q158 -67 403 -67q180 0 285.5 82.5t105.5 216.5q0 83 -35 137.5t-114 99.5t-267.5 109.5t-274 154t-85.5 246t128.5 260t332.5 103.5t385 -78l-37 -88q-182 76 -346 76t-260 -75t-96 -204q0 -81 29.5 -133 t96.5 -93.5t234 -100t253 -114t125.5 -126t39.5 -170.5z" />
<glyph unicode="T" horiz-adv-x="1073" d="M588 0h-103v1366h-475v96h1053v-96h-475v-1366z" />
<glyph unicode="U" horiz-adv-x="1473" d="M1282 1462v-946q0 -252 -146 -394t-403.5 -142t-400 142.5t-142.5 397.5v942h103v-946q0 -211 117 -328.5t328.5 -117.5t326.5 115.5t115 320.5v956h102z" />
<glyph unicode="V" horiz-adv-x="1182" d="M1071 1462h111l-547 -1462h-90l-545 1462h109l368 -995q84 -225 113 -338q20 75 79 233z" />
<glyph unicode="W" horiz-adv-x="1827" d="M1372 0h-84l-321 1128q-40 139 -60 228q-16 -87 -45.5 -200t-322.5 -1156h-86l-402 1462h107l256 -942q15 -57 28 -105.5t24 -90.5q21 -87 34 -162q24 136 102 413l250 887h113l293 -1018q51 -176 73 -284q13 72 33.5 153t308.5 1149h103z" />
<glyph unicode="X" horiz-adv-x="1102" d="M1102 0h-117l-432 682l-440 -682h-113l492 762l-447 700h115l395 -626l401 626h109l-453 -698z" />
<glyph unicode="Y" horiz-adv-x="1081" d="M543 662l428 800h110l-487 -897v-565h-105v557l-489 905h117z" />
<glyph unicode="Z" horiz-adv-x="1180" d="M1098 0h-1016v76l856 1290h-817v96h954v-76l-858 -1290h881v-96z" />
<glyph unicode="[" horiz-adv-x="653" d="M602 -324h-428v1786h428v-94h-330v-1597h330v-95z" />
<glyph unicode="\" horiz-adv-x="698" d="M127 1462l547 -1462h-103l-546 1462h102z" />
<glyph unicode="]" horiz-adv-x="653" d="M51 -229h330v1597h-330v94h428v-1786h-428v95z" />
<glyph unicode="^" d="M88 561l465 912h68l460 -912h-100l-395 791l-398 -791h-100z" />
<glyph unicode="_" horiz-adv-x="842" d="M846 -266h-850v82h850v-82z" />
<glyph unicode="`" horiz-adv-x="1182" d="M776 1241h-69q-96 79 -188.5 171.5t-125.5 139.5v17h142q26 -48 98.5 -142t142.5 -170v-16z" />
<glyph unicode="a" horiz-adv-x="1085" d="M842 0l-25 172h-8q-82 -105 -168.5 -148.5t-225.5 -43.5t-228 82t-89 234t132.5 240t383.5 93l207 6v72q0 155 -63 234t-208.5 79t-307.5 -84l-37 86q179 84 356 84t265.5 -93t88.5 -290v-723h-73zM442 70q174 0 274.5 99.5t100.5 276.5v107l-190 -8 q-229 -11 -326.5 -71.5t-97.5 -175.5t62.5 -171.5t176.5 -56.5z" />
<glyph unicode="b" horiz-adv-x="1219" d="M281 918q120 190 354 190q465 0 465 -563q0 -271 -121.5 -418t-341.5 -147q-116 0 -209 48t-147 136h-9l-28 -164h-62v1556h99v-391q0 -88 -4 -162l-3 -85h7zM639 1018q-192 0 -275 -110t-83 -363v-17q0 -246 86.5 -353t267 -107t270.5 124.5t90 354.5q0 471 -356 471z " />
<glyph unicode="c" horiz-adv-x="973" d="M616 -20q-233 0 -365 147t-132 413.5t137 417t375 150.5q141 0 270 -49l-27 -88q-141 47 -245 47q-200 0 -303 -123.5t-103 -349.5t103 -350.5t288 -124.5q148 0 275 53v-92q-104 -51 -273 -51z" />
<glyph unicode="d" horiz-adv-x="1219" d="M580 1108q118 0 204 -43t154 -147h6q-6 126 -6 247v391h98v-1556h-65l-25 166h-8q-124 -186 -352.5 -186t-347.5 140t-119 415t118 424t343 149zM853.5 907.5q-84.5 110.5 -267.5 110.5q-363 0 -363 -488q0 -462 359 -462q184 0 270 107t86 353v17q0 252 -84.5 362.5z " />
<glyph unicode="e" horiz-adv-x="1124" d="M963 49q-159 -69 -342 -69q-237 0 -369.5 146t-132.5 407.5t128 418t332.5 156.5t315.5 -134t111 -364v-80h-783q2 -224 104.5 -342t293.5 -118q93 0 163.5 13t178.5 56v-90zM819 913.5q-82 106.5 -233 106.5t-246 -103.5t-111 -298.5h672q0 189 -82 295.5z" />
<glyph unicode="f" horiz-adv-x="614" d="M586 1001h-256v-1001h-99v1001h-202v58l202 37v84q0 200 73.5 293.5t240.5 93.5q90 0 180 -27l-23 -86q-80 25 -159 25q-116 0 -164.5 -68.5t-48.5 -222.5v-101h256v-86z" />
<glyph unicode="g" horiz-adv-x="1071" d="M406 412q-121 -64 -121 -162q0 -52 39.5 -76t132.5 -24h190q177 0 271 -71.5t94 -211.5q0 -172 -139.5 -265.5t-371 -93.5t-344 79t-112.5 220q0 112 69.5 186t188.5 101q-49 21 -78.5 59.5t-29.5 88.5q0 109 139 192q-95 39 -148 122.5t-53 191.5q0 163 103.5 261.5 t279.5 98.5q107 0 166 -21h348v-69l-225 -14q90 -112 90 -257.5t-104.5 -243t-280.5 -97.5q-74 0 -104 6zM150 -184q0 -224 333 -224q428 0 428 273q0 98 -67 142t-217 44h-178q-299 0 -299 -235zM307.5 955.5q-74.5 -74.5 -74.5 -204t76.5 -199t208.5 -69.5t204.5 69 t72.5 204t-74.5 204.5t-206.5 69.5t-206.5 -74.5z" />
<glyph unicode="h" horiz-adv-x="1208" d="M940 0v705q0 164 -69 238.5t-214 74.5q-195 0 -285.5 -98.5t-90.5 -319.5v-600h-99v1556h99v-495l-5 -139h7q61 98 154 142t231 44q370 0 370 -397v-711h-98z" />
<glyph unicode="i" horiz-adv-x="463" d="M281 0h-99v1087h99v-1087zM231 1292q-63 0 -63 96.5t64.5 96.5t64.5 -96q0 -45 -17.5 -71t-48.5 -26z" />
<glyph unicode="j" horiz-adv-x="463" d="M37 -492q-80 0 -135 25v86q69 -20 129 -20q151 0 151 176v1312h99v-1298q0 -135 -63.5 -208t-180.5 -73zM231 1292q-63 0 -63 96.5t64.5 96.5t64.5 -96q0 -45 -17.5 -71t-48.5 -26z" />
<glyph unicode="k" horiz-adv-x="991" d="M279 477l555 610h120l-428 -464l465 -623h-119l-413 549l-178 -162v-387h-99v1556h99v-780l-7 -299h5z" />
<glyph unicode="l" horiz-adv-x="463" d="M281 0h-99v1556h99v-1556z" />
<glyph unicode="m" horiz-adv-x="1808" d="M1540 0v713q0 159 -62 232t-210 73q-307 0 -307 -381v-637h-101v743q0 275 -252 275q-171 0 -249 -99.5t-78 -318.5v-600h-99v1087h82l21 -149h6q45 81 128 125.5t183 44.5q257 0 330 -193h4q53 93 142.5 143t203.5 50q178 0 267 -95t89 -302v-711h-98z" />
<glyph unicode="n" horiz-adv-x="1208" d="M940 0v705q0 164 -69 238.5t-214 74.5q-195 0 -285.5 -98.5t-90.5 -319.5v-600h-99v1087h84l19 -149h6q106 170 377 170q370 0 370 -397v-711h-98z" />
<glyph unicode="o" horiz-adv-x="1200" d="M953.5 957.5q127.5 -150.5 127.5 -414.5t-129 -413.5t-356 -149.5q-143 0 -252 69t-167 198t-58 298q0 266 129 414.5t353.5 148.5t352 -150.5zM320.5 894.5q-97.5 -123.5 -97.5 -348.5t98.5 -350.5t278.5 -125.5t278.5 125.5t98.5 350t-99.5 348.5t-279.5 124 t-277.5 -123.5z" />
<glyph unicode="p" horiz-adv-x="1219" d="M647 -20q-251 0 -366 188h-7l3 -84q4 -74 4 -162v-414h-99v1579h84l19 -155h6q112 176 345 176t348.5 -144.5t115.5 -416.5t-121.5 -419.5t-331.5 -147.5zM366.5 177q85.5 -109 265.5 -109t271.5 124t91.5 347q0 479 -346 479q-190 0 -279 -104.5t-89 -340.5v-32 q0 -255 85.5 -364z" />
<glyph unicode="q" horiz-adv-x="1219" d="M569 -20q-214 0 -332 142t-118 413.5t118 422t346 150.5t345 -174h6l18 153h84v-1579h-98v414q0 122 6 248h-6q-118 -190 -369 -190zM223 530q0 -462 363 -462q183 0 267.5 109t84.5 366v12q0 245 -85 354t-266 109t-272.5 -124t-91.5 -364z" />
<glyph unicode="r" horiz-adv-x="797" d="M426 1059.5q76 48.5 164.5 48.5t167.5 -14l-19 -95q-68 17 -141 17q-139 0 -228 -118t-89 -298v-600h-99v1087h84l10 -196h7q67 120 143 168.5z" />
<glyph unicode="s" horiz-adv-x="954" d="M745 58.5q-111 -78.5 -322 -78.5t-339 67v107q164 -82 335.5 -82t255 53.5t83.5 139t-66.5 141.5t-224 112.5t-223.5 99.5q-133 85 -133 216.5t102.5 202.5t282.5 71t338 -66l-37 -90q-160 66 -295 66t-213 -44t-78 -125.5t60.5 -132.5t222 -109t228.5 -101 q134 -84 134 -226.5t-111 -221z" />
<glyph unicode="t" horiz-adv-x="686" d="M469 68q94 0 164 16v-80q-72 -24 -166 -24q-144 0 -212.5 77t-68.5 242v702h-161v58l161 45l50 246h51v-263h319v-86h-319v-688q0 -125 44 -185t138 -60z" />
<glyph unicode="u" horiz-adv-x="1208" d="M268 1087v-704q0 -164 69 -238.5t214 -74.5q194 0 285.5 98t91.5 319v600h98v-1087h-84l-18 150h-6q-106 -170 -377 -170q-371 0 -371 397v710h98z" />
<glyph unicode="v" horiz-adv-x="940" d="M420 0l-420 1087h102l281 -739q56 -142 84 -248h6q41 136 84 250l281 737h102l-420 -1087h-100z" />
<glyph unicode="w" horiz-adv-x="1481" d="M1051 0l-238 727q-23 74 -59 217h-6l-66 -219l-242 -725h-98l-311 1087h106l174 -630q61 -234 80 -344h6q59 234 86 311l224 663h90l213 -661q72 -235 88 -311h6q8 65 80 348l166 624h100l-295 -1087h-104z" />
<glyph unicode="x" horiz-adv-x="1020" d="M449 559l-379 528h114l324 -458l321 458h109l-373 -528l400 -559h-115l-342 485l-344 -485h-109z" />
<glyph unicode="y" horiz-adv-x="940" d="M0 1087h102l230 -610q105 -281 133 -379h6q42 129 137 385l230 604h102l-487 -1263q-59 -154 -99 -208q-80 -108 -223 -108q-57 0 -127 21v86q58 -16 117 -16t98 24t71 75q39 63 126 302z" />
<glyph unicode="z" horiz-adv-x="944" d="M858 0h-776v63l645 936h-598v88h727v-63l-649 -936h651v-88z" />
<glyph unicode="{" horiz-adv-x="723" d="M389 -27q0 -102 59.5 -152.5t202.5 -53.5v-91q-195 0 -277.5 75t-82.5 231v337q0 205 -230 209v80q122 2 176 51t54 148v350q0 299 360 305v-90q-138 -5 -200 -58t-62 -157v-305q0 -130 -44 -194t-142 -85v-8q97 -20 141.5 -83.5t44.5 -186.5v-322z" />
<glyph unicode="|" horiz-adv-x="1108" d="M508 1561h92v-2067h-92v2067z" />
<glyph unicode="}" horiz-adv-x="723" d="M334 295q0 123 44.5 186.5t141.5 83.5v8q-97 20 -141.5 84t-44.5 195v305q0 103 -61.5 156.5t-200.5 58.5v90q174 0 267 -77.5t93 -227.5v-350q0 -100 54.5 -148.5t175.5 -50.5v-80q-230 -4 -230 -209v-337q0 -155 -82.5 -230.5t-277.5 -75.5v91q141 2 201.5 52.5 t60.5 153.5v322z" />
<glyph unicode="~" d="M1059 729q-111 -113 -230.5 -113t-258.5 64.5t-242 64.5t-217 -120v94q108 110 233 110q61 0 115 -13.5t167.5 -64.5t212.5 -51t220 125v-96z" />
<glyph unicode="&#xa1;" horiz-adv-x="492" d="M215 711h61l29 -1086h-119zM166 1010q0 98 81 98t81 -98q0 -53 -23.5 -76t-58 -23t-57.5 23t-23 76z" />
<glyph unicode="&#xa2;" d="M602 190q-186 30 -288.5 175t-102.5 378.5t102.5 383t288.5 182.5v174h82v-166h14q131 0 275 -55l-31 -84q-134 51 -237 51q-187 0 -288.5 -122.5t-101.5 -353t100.5 -355t280.5 -124.5q131 0 267 58v-92q-110 -56 -267 -56h-12v-204h-82v210z" />
<glyph unicode="&#xa3;" d="M412 420q0 -233 -148 -324h809v-96h-995v84q110 21 171.5 110t61.5 224v258h-211v82h211v297q0 204 98 315t277 111t334 -68l-35 -86q-157 66 -296.5 66t-208 -81t-68.5 -253v-301h411v-82h-411v-256z" />
<glyph unicode="&#xa4;" d="M901 981q90 -111 90 -260t-90 -254l139 -141l-59 -60l-137 142q-110 -93 -261.5 -93t-258.5 93l-138 -142l-59 60l139 141q-90 106 -90 254.5t90 259.5l-139 141l59 60l138 -142q103 93 259 93t261 -93l137 142l59 -60zM354.5 491q94.5 -96 229 -96t229 95.5t94.5 232 t-95 233.5t-228.5 97t-228.5 -97t-95 -233t94.5 -232z" />
<glyph unicode="&#xa5;" d="M586 666l428 796h110l-432 -788h283v-82h-338v-205h338v-82h-338v-305h-105v305h-337v82h337v205h-337v82h278l-430 788h117z" />
<glyph unicode="&#xa6;" horiz-adv-x="1108" d="M508 1561h92v-764h-92v764zM508 258h92v-764h-92v764z" />
<glyph unicode="&#xa7;" horiz-adv-x="1057" d="M776 68.5q-113 -72.5 -302 -72.5t-345 67v95q182 -78 338 -78t241 49.5t85 140.5q0 55 -25 88q-46 60 -262.5 138.5t-288.5 147t-72 160.5t50.5 161.5t138.5 107.5q-86 47 -125 102t-39 136q0 117 101.5 183.5t276 66.5t335.5 -64l-35 -80q-161 60 -299 60t-209.5 -44.5 t-71.5 -109t25.5 -99t85.5 -65.5t220 -84.5t232 -122t72 -170.5q0 -173 -186 -274q86 -42 129 -96t43 -136q0 -135 -113 -207.5zM295.5 953q-49.5 -56 -49.5 -124.5t31.5 -107.5t105.5 -75t250 -99q82 41 126 98t44 120t-32 103t-108.5 77t-236.5 87q-81 -23 -130.5 -79z " />
<glyph unicode="&#xa8;" horiz-adv-x="1182" d="M336 1389q0 86 63.5 86t63.5 -86t-63.5 -86t-63.5 86zM717 1389q0 86 63.5 86t63.5 -86t-63.5 -86t-63.5 86z" />
<glyph unicode="&#xa9;" horiz-adv-x="1704" d="M594 733q0 -364 295 -364q84 0 198 43v-88q-102 -45 -208 -45q-187 0 -288.5 115t-101.5 327t111 336.5t297 124.5q119 0 227 -52l-37 -83q-98 45 -190 45q-142 0 -222.5 -94.5t-80.5 -264.5zM197.5 360q-97.5 173 -97.5 372t100 374t275 276t376 101t376 -100t276 -275 t101 -374.5t-97 -372.5t-272 -277t-382.5 -104t-382.5 103.5t-272.5 276.5zM282 1060q-89 -154 -89 -330.5t88.5 -328t240.5 -240.5t330 -89t329.5 88.5t240.5 240.5t89 328t-85.5 327t-239 243t-332 92t-331 -88.5t-241.5 -242.5z" />
<glyph unicode="&#xaa;" horiz-adv-x="686" d="M512 813l-25 72q-84 -84 -190.5 -84t-162.5 49t-56 144q0 190 321 206l95 4v43q0 77 -38 114.5t-115.5 37.5t-186.5 -49l-33 73q117 56 231 56q228 0 228 -215v-451h-68zM406 1128q-238 -12 -238 -128q0 -61 35 -92t110.5 -31t128 50t52.5 142v64z" />
<glyph unicode="&#xab;" horiz-adv-x="885" d="M82 543l309 393l62 -43l-254 -363l254 -362l-62 -43l-309 391v27zM442 543l310 393l61 -43l-254 -363l254 -362l-61 -43l-310 391v27z" />
<glyph unicode="&#xac;" d="M1038 764v-494h-82v412h-845v82h927z" />
<glyph unicode="&#xad;" horiz-adv-x="659" d="M92 512v82h475v-82h-475z" />
<glyph unicode="&#xae;" horiz-adv-x="1704" d="M709 731h112q91 0 143 46.5t52 135.5q0 172 -197 172h-110v-354zM819 1171q301 0 301 -253q0 -164 -149 -234l237 -393h-121l-210 360h-168v-360h-101v880h211zM197.5 360q-97.5 173 -97.5 372t100 374t275 276t376 101t376 -100t276 -275t101 -374.5t-97 -372.5 t-272 -277t-382.5 -104t-382.5 103.5t-272.5 276.5zM282 1060q-89 -154 -89 -330.5t88.5 -328t240.5 -240.5t330 -89t329.5 88.5t240.5 240.5t89 328t-85.5 327t-239 243t-332 92t-331 -88.5t-241.5 -242.5z" />
<glyph unicode="&#xaf;" horiz-adv-x="1024" d="M1030 1556h-1036v82h1036v-82z" />
<glyph unicode="&#xb0;" horiz-adv-x="877" d="M223.5 968q-84.5 83 -84.5 215.5t86.5 216t212.5 83.5t212.5 -83.5t86.5 -215.5t-86.5 -215.5t-214.5 -83.5t-212.5 83zM288.5 1337q-59.5 -64 -59.5 -154t61 -153t147.5 -63t148 62t61.5 154.5t-60 155t-149.5 62.5t-149 -64z" />
<glyph unicode="&#xb1;" d="M111 1v82h948v-82h-948zM625 764h434v-82h-434v-432h-82v432h-432v82h432v434h82v-434z" />
<glyph unicode="&#xb2;" horiz-adv-x="688" d="M629 586h-576v78l242 237q125 121 172 193t47 146t-46.5 115.5t-139 41.5t-201.5 -82l-49 65q119 103 256.5 103t207.5 -63.5t70 -174.5q0 -128 -122 -265q-41 -46 -308 -306h447v-88z" />
<glyph unicode="&#xb3;" horiz-adv-x="688" d="M541 840q0 161 -238 161h-131v84h135q105 0 158 43.5t53 115.5t-47 112.5t-127 40.5q-128 0 -246 -78l-47 70q130 94 275 94t217.5 -60t72.5 -151q0 -170 -161 -219q186 -45 186 -211q0 -130 -88.5 -201.5t-240 -71.5t-271.5 60v88q136 -62 258.5 -62t182 49t59.5 136z " />
<glyph unicode="&#xb4;" horiz-adv-x="1182" d="M776 1552q-81 -117 -313 -311h-70v16q73 79 144.5 171.5t97.5 140.5h141v-17z" />
<glyph unicode="&#xb5;" horiz-adv-x="1221" d="M563 -20q-187 0 -287 112q5 -92 5 -170v-414h-99v1579h99v-704q0 -164 69 -238.5t213 -74.5q194 0 285.5 98t91.5 319v600h98v-1087h-84l-18 150h-6q-50 -77 -150 -123.5t-217 -46.5z" />
<glyph unicode="&#xb6;" horiz-adv-x="1341" d="M1106 -260h-100v1722h-228v-1722h-100v819q-64 -18 -146 -18q-216 0 -317.5 125t-101.5 380.5t109 382.5t341 127h543v-1816z" />
<glyph unicode="&#xb7;" horiz-adv-x="487" d="M162 721q0 98 81 98t81 -98t-81 -98t-81 98z" />
<glyph unicode="&#xb8;" horiz-adv-x="420" d="M135 -403q160 0 160 108q0 94 -193 121l93 174h96l-66 -117q168 -37 168 -174q0 -100 -67.5 -150.5t-188.5 -50.5q-68 0 -94 11v88q30 -10 92 -10z" />
<glyph unicode="&#xb9;" horiz-adv-x="688" d="M350 1462h92v-876h-98v547q0 99 12 233q-26 -23 -233 -145l-47 77z" />
<glyph unicode="&#xba;" horiz-adv-x="739" d="M591.5 1392q78.5 -87 78.5 -249.5t-80 -252t-223 -89.5t-220 86t-77 251t78 253t221.5 88t222 -87zM160 1141q0 -264 209 -264t209 264q0 131 -50 194.5t-159 63.5t-159 -63.5t-50 -194.5z" />
<glyph unicode="&#xbb;" horiz-adv-x="885" d="M803 518l-309 -393l-62 43l254 362l-254 363l62 43l309 -391v-27zM442 518l-309 -393l-61 43l254 362l-254 363l61 43l309 -391v-27z" />
<glyph unicode="&#xbc;" horiz-adv-x="1516" d="M333 1462h92v-876h-98v547q0 99 12 233q-26 -23 -233 -145l-47 77zM1148 1462l-811 -1462h-94l811 1462h94zM1392 242h-129v-241h-90v241h-413v60l407 581h96v-563h129v-78zM1173 320v221q0 132 8 232q-12 -23 -317 -453h309z" />
<glyph unicode="&#xbd;" horiz-adv-x="1516" d="M285 1462h92v-876h-98v547q0 99 12 233q-26 -23 -233 -145l-47 77zM1073 1462l-811 -1462h-94l811 1462h94zM1403 1h-576v78l242 237q125 121 172 193t47 146t-46.5 115.5t-139 41.5t-201.5 -82l-49 65q119 103 256.5 103t207.5 -63.5t70 -174.5q0 -128 -122 -265 q-41 -46 -308 -306h447v-88z" />
<glyph unicode="&#xbe;" horiz-adv-x="1516" d="M541 840q0 161 -238 161h-131v84h135q105 0 158 43.5t53 115.5t-47 112.5t-127 40.5q-128 0 -246 -78l-47 70q130 94 275 94t217.5 -60t72.5 -151q0 -170 -161 -219q186 -45 186 -211q0 -130 -88.5 -201.5t-240 -71.5t-271.5 60v88q136 -62 258.5 -62t182 49t59.5 136z M1300 1462l-811 -1462h-94l811 1462h94zM1495 242h-129v-241h-90v241h-413v60l407 581h96v-563h129v-78zM1276 320v221q0 132 8 232q-12 -23 -317 -453h309z" />
<glyph unicode="&#xbf;" horiz-adv-x="862" d="M569 711v-37q0 -125 -39.5 -204.5t-136.5 -164.5l-90 -79q-73 -61 -104 -120.5t-31 -138.5q0 -124 82 -200t214 -76t240 46l64 27l37 -79q-111 -48 -185.5 -64t-152.5 -16q-184 0 -288.5 99t-104.5 269q0 128 78 226q39 48 137.5 130t133 127.5t49.5 94t15 145.5v15h82z M440 1010q0 98 81 98t81 -98q0 -53 -23.5 -76t-58 -23t-57.5 23t-23 76z" />
<glyph unicode="&#xc0;" horiz-adv-x="1229" d="M911 516h-594l-204 -516h-113l588 1468h65l576 -1468h-115zM354 608h523l-199 527q-25 62 -60 172q-27 -96 -59 -174zM720 1579h-69q-96 79 -188.5 171.5t-125.5 139.5v17h142q26 -48 98.5 -142t142.5 -170v-16z" />
<glyph unicode="&#xc1;" horiz-adv-x="1229" d="M911 516h-594l-204 -516h-113l588 1468h65l576 -1468h-115zM354 608h523l-199 527q-25 62 -60 172q-27 -96 -59 -174zM887 1890q-81 -117 -313 -311h-70v16q73 79 144.5 171.5t97.5 140.5h141v-17z" />
<glyph unicode="&#xc2;" horiz-adv-x="1229" d="M911 516h-594l-204 -516h-113l588 1468h65l576 -1468h-115zM354 608h523l-199 527q-25 62 -60 172q-27 -96 -59 -174zM328 1595q151 163 242 312h98q68 -120 242 -312v-16h-70q-122 101 -221 207q-108 -114 -221 -207h-70v16z" />
<glyph unicode="&#xc3;" horiz-adv-x="1229" d="M911 516h-594l-204 -516h-113l588 1468h65l576 -1468h-115zM354 608h523l-199 527q-25 62 -60 172q-27 -96 -59 -174zM784 1663q93 0 125 156h76q-16 -116 -69 -177t-132 -61q-71 0 -176 90q-32 26 -62.5 46t-69.5 20q-84 0 -116 -156h-73q10 111 63 174.5t137 63.5 q48 0 88 -25t78 -56t70 -53t61 -22z" />
<glyph unicode="&#xc4;" horiz-adv-x="1229" d="M911 516h-594l-204 -516h-113l588 1468h65l576 -1468h-115zM354 608h523l-199 527q-25 62 -60 172q-27 -96 -59 -174zM367 1727q0 86 63.5 86t63.5 -86t-63.5 -86t-63.5 86zM748 1727q0 86 63.5 86t63.5 -86t-63.5 -86t-63.5 86z" />
<glyph unicode="&#xc5;" horiz-adv-x="1229" d="M911 516h-594l-204 -516h-113l588 1468h65l576 -1468h-115zM354 608h523l-199 527q-25 62 -60 172q-27 -96 -59 -174zM776 1762q60 -59 60 -154t-60 -153t-157 -58t-157 58t-60 153.5t60 154t157 58.5t157 -59zM519.5 1711q-37.5 -38 -37.5 -102.5t37.5 -102t99.5 -37.5 t99.5 37.5t37.5 102.5t-39 102.5t-99.5 37.5t-98 -38z" />
<glyph unicode="&#xc6;" horiz-adv-x="1653" d="M1528 0h-717v516h-475l-227 -516h-111l653 1462h877v-94h-615v-553h576v-94h-576v-627h615v-94zM377 608h434v760h-100z" />
<glyph unicode="&#xc7;" horiz-adv-x="1272" d="M831 1391q-275 0 -433 -176t-158 -485.5t149 -482.5t426 -173q184 0 338 47v-90q-145 -51 -362 -51q-308 0 -485 199t-177 556q0 223 84.5 393t243 262.5t370.5 92.5t381 -80l-41 -92q-160 80 -336 80zM653 -403q160 0 160 108q0 94 -193 121l93 174h96l-66 -117 q168 -37 168 -174q0 -100 -67.5 -150.5t-188.5 -50.5q-68 0 -94 11v88q30 -10 92 -10z" />
<glyph unicode="&#xc8;" horiz-adv-x="1130" d="M1006 0h-799v1462h799v-94h-697v-553h658v-94h-658v-627h697v-94zM697 1579h-69q-96 79 -188.5 171.5t-125.5 139.5v17h142q26 -48 98.5 -142t142.5 -170v-16z" />
<glyph unicode="&#xc9;" horiz-adv-x="1130" d="M1006 0h-799v1462h799v-94h-697v-553h658v-94h-658v-627h697v-94zM846 1890q-81 -117 -313 -311h-70v16q73 79 144.5 171.5t97.5 140.5h141v-17z" />
<glyph unicode="&#xca;" horiz-adv-x="1130" d="M1006 0h-799v1462h799v-94h-697v-553h658v-94h-658v-627h697v-94zM315 1595q151 163 242 312h98q68 -120 242 -312v-16h-70q-122 101 -221 207q-108 -114 -221 -207h-70v16z" />
<glyph unicode="&#xcb;" horiz-adv-x="1130" d="M1006 0h-799v1462h799v-94h-697v-553h658v-94h-658v-627h697v-94zM354 1727q0 86 63.5 86t63.5 -86t-63.5 -86t-63.5 86zM735 1727q0 86 63.5 86t63.5 -86t-63.5 -86t-63.5 86z" />
<glyph unicode="&#xcc;" horiz-adv-x="516" d="M207 0v1462h102v-1462h-102zM320 1579h-69q-96 79 -188.5 171.5t-125.5 139.5v17h142q26 -48 98.5 -142t142.5 -170v-16z" />
<glyph unicode="&#xcd;" horiz-adv-x="516" d="M207 0v1462h102v-1462h-102zM574 1890q-81 -117 -313 -311h-70v16q73 79 144.5 171.5t97.5 140.5h141v-17z" />
<glyph unicode="&#xce;" horiz-adv-x="516" d="M207 0v1462h102v-1462h-102zM-32 1595q151 163 242 312h98q68 -120 242 -312v-16h-70q-122 101 -221 207q-108 -114 -221 -207h-70v16z" />
<glyph unicode="&#xcf;" horiz-adv-x="516" d="M207 0v1462h102v-1462h-102zM5 1727q0 86 63.5 86t63.5 -86t-63.5 -86t-63.5 86zM386 1727q0 86 63.5 86t63.5 -86t-63.5 -86t-63.5 86z" />
<glyph unicode="&#xd0;" horiz-adv-x="1466" d="M1134.5 1279q182.5 -183 182.5 -542.5t-193 -548t-567 -188.5h-350v678h-160v94h160v690h395q350 0 532.5 -183zM1206 741q0 314 -159.5 472.5t-468.5 158.5h-269v-600h406v-94h-406v-588h242q655 0 655 651z" />
<glyph unicode="&#xd1;" horiz-adv-x="1477" d="M1270 0h-103l-866 1298h-8q12 -232 12 -350v-948h-98v1462h102l865 -1296h6q-9 180 -9 342v954h99v-1462zM897 1663q93 0 125 156h76q-16 -116 -69 -177t-132 -61q-71 0 -176 90q-32 26 -62.5 46t-69.5 20q-84 0 -116 -156h-73q10 111 63 174.5t137 63.5q48 0 88 -25 t78 -56t70 -53t61 -22z" />
<glyph unicode="&#xd2;" horiz-adv-x="1565" d="M1263 1283.5q173 -201.5 173 -550t-174 -551t-479.5 -202.5t-479.5 202.5t-174 552t175.5 550t480.5 200.5t478 -201.5zM381.5 1216q-141.5 -170 -141.5 -483.5t140 -485t403 -171.5t402.5 170t139.5 486.5t-139.5 485t-401 168.5t-403 -170zM885 1579h-69 q-96 79 -188.5 171.5t-125.5 139.5v17h142q26 -48 98.5 -142t142.5 -170v-16z" />
<glyph unicode="&#xd3;" horiz-adv-x="1565" d="M1263 1283.5q173 -201.5 173 -550t-174 -551t-479.5 -202.5t-479.5 202.5t-174 552t175.5 550t480.5 200.5t478 -201.5zM381.5 1216q-141.5 -170 -141.5 -483.5t140 -485t403 -171.5t402.5 170t139.5 486.5t-139.5 485t-401 168.5t-403 -170zM1069 1890 q-81 -117 -313 -311h-70v16q73 79 144.5 171.5t97.5 140.5h141v-17z" />
<glyph unicode="&#xd4;" horiz-adv-x="1565" d="M1263 1283.5q173 -201.5 173 -550t-174 -551t-479.5 -202.5t-479.5 202.5t-174 552t175.5 550t480.5 200.5t478 -201.5zM381.5 1216q-141.5 -170 -141.5 -483.5t140 -485t403 -171.5t402.5 170t139.5 486.5t-139.5 485t-401 168.5t-403 -170zM492 1595q151 163 242 312 h98q68 -120 242 -312v-16h-70q-122 101 -221 207q-108 -114 -221 -207h-70v16z" />
<glyph unicode="&#xd5;" horiz-adv-x="1565" d="M1263 1283.5q173 -201.5 173 -550t-174 -551t-479.5 -202.5t-479.5 202.5t-174 552t175.5 550t480.5 200.5t478 -201.5zM381.5 1216q-141.5 -170 -141.5 -483.5t140 -485t403 -171.5t402.5 170t139.5 486.5t-139.5 485t-401 168.5t-403 -170zM940 1663q93 0 125 156h76 q-16 -116 -69 -177t-132 -61q-71 0 -176 90q-32 26 -62.5 46t-69.5 20q-84 0 -116 -156h-73q10 111 63 174.5t137 63.5q48 0 88 -25t78 -56t70 -53t61 -22z" />
<glyph unicode="&#xd6;" horiz-adv-x="1565" d="M1263 1283.5q173 -201.5 173 -550t-174 -551t-479.5 -202.5t-479.5 202.5t-174 552t175.5 550t480.5 200.5t478 -201.5zM381.5 1216q-141.5 -170 -141.5 -483.5t140 -485t403 -171.5t402.5 170t139.5 486.5t-139.5 485t-401 168.5t-403 -170zM529 1727q0 86 63.5 86 t63.5 -86t-63.5 -86t-63.5 86zM910 1727q0 86 63.5 86t63.5 -86t-63.5 -86t-63.5 86z" />
<glyph unicode="&#xd7;" d="M584 780l409 408l58 -58l-408 -407l406 -408l-58 -57l-407 408l-406 -408l-57 57l405 408l-407 407l57 58z" />
<glyph unicode="&#xd8;" horiz-adv-x="1565" d="M1245 1303q191 -207 191 -562.5t-174 -558t-480 -202.5q-236 0 -395 120l-86 -120l-74 59l90 127q-188 200 -188 559t175.5 559.5t479.5 200.5q232 0 392 -121l108 152l72 -60zM1185.5 246q139.5 170 139.5 486t-139 487l-742 -1037q133 -106 338 -106q264 0 403.5 170z M381.5 1216q-141.5 -170 -141.5 -482.5t139 -483.5l739 1034q-133 102 -334 102q-261 0 -402.5 -170z" />
<glyph unicode="&#xd9;" horiz-adv-x="1473" d="M1282 1462v-946q0 -252 -146 -394t-403.5 -142t-400 142.5t-142.5 397.5v942h103v-946q0 -211 117 -328.5t328.5 -117.5t326.5 115.5t115 320.5v956h102zM833 1579h-69q-96 79 -188.5 171.5t-125.5 139.5v17h142q26 -48 98.5 -142t142.5 -170v-16z" />
<glyph unicode="&#xda;" horiz-adv-x="1473" d="M1282 1462v-946q0 -252 -146 -394t-403.5 -142t-400 142.5t-142.5 397.5v942h103v-946q0 -211 117 -328.5t328.5 -117.5t326.5 115.5t115 320.5v956h102zM1016 1890q-81 -117 -313 -311h-70v16q73 79 144.5 171.5t97.5 140.5h141v-17z" />
<glyph unicode="&#xdb;" horiz-adv-x="1473" d="M1282 1462v-946q0 -252 -146 -394t-403.5 -142t-400 142.5t-142.5 397.5v942h103v-946q0 -211 117 -328.5t328.5 -117.5t326.5 115.5t115 320.5v956h102zM444 1595q151 163 242 312h98q68 -120 242 -312v-16h-70q-122 101 -221 207q-108 -114 -221 -207h-70v16z" />
<glyph unicode="&#xdc;" horiz-adv-x="1473" d="M1282 1462v-946q0 -252 -146 -394t-403.5 -142t-400 142.5t-142.5 397.5v942h103v-946q0 -211 117 -328.5t328.5 -117.5t326.5 115.5t115 320.5v956h102zM481 1727q0 86 63.5 86t63.5 -86t-63.5 -86t-63.5 86zM862 1727q0 86 63.5 86t63.5 -86t-63.5 -86t-63.5 86z" />
<glyph unicode="&#xdd;" horiz-adv-x="1081" d="M543 662l428 800h110l-487 -897v-565h-105v557l-489 905h117zM817 1890q-81 -117 -313 -311h-70v16q73 79 144.5 171.5t97.5 140.5h141v-17z" />
<glyph unicode="&#xde;" horiz-adv-x="1198" d="M1087 778q0 -212 -144 -325t-408 -113h-226v-340h-102v1462h102v-264h256q522 0 522 -420zM309 428h201q247 0 357 81.5t110 257.5t-104 257.5t-322 81.5h-242v-678z" />
<glyph unicode="&#xdf;" horiz-adv-x="1194" d="M1004 65.5q-88 -85.5 -265 -85.5t-282 67v107q65 -38 148.5 -62t152.5 -24q114 0 174.5 54.5t60.5 149t-39 155.5t-157.5 142t-166.5 141t-48 133t32.5 123t106.5 107.5t106.5 106t32.5 106.5q0 93 -70 143t-208.5 50t-219.5 -69t-81 -196v-1214h-99v1206 q0 173 103.5 267t292 94t286 -72.5t97.5 -211t-139 -249.5q-81 -64 -110.5 -100.5t-29.5 -78t14 -65.5q30 -49 145 -129.5t161 -130.5q90 -98 90 -238.5t-88 -226z" />
<glyph unicode="&#xe0;" horiz-adv-x="1085" d="M842 0l-25 172h-8q-82 -105 -168.5 -148.5t-225.5 -43.5t-228 82t-89 234t132.5 240t383.5 93l207 6v72q0 155 -63 234t-208.5 79t-307.5 -84l-37 86q179 84 356 84t265.5 -93t88.5 -290v-723h-73zM442 70q174 0 274.5 99.5t100.5 276.5v107l-190 -8 q-229 -11 -326.5 -71.5t-97.5 -175.5t62.5 -171.5t176.5 -56.5zM638 1241h-69q-96 79 -188.5 171.5t-125.5 139.5v17h142q26 -48 98.5 -142t142.5 -170v-16z" />
<glyph unicode="&#xe1;" horiz-adv-x="1085" d="M842 0l-25 172h-8q-82 -105 -168.5 -148.5t-225.5 -43.5t-228 82t-89 234t132.5 240t383.5 93l207 6v72q0 155 -63 234t-208.5 79t-307.5 -84l-37 86q179 84 356 84t265.5 -93t88.5 -290v-723h-73zM442 70q174 0 274.5 99.5t100.5 276.5v107l-190 -8 q-229 -11 -326.5 -71.5t-97.5 -175.5t62.5 -171.5t176.5 -56.5zM805 1552q-81 -117 -313 -311h-70v16q73 79 144.5 171.5t97.5 140.5h141v-17z" />
<glyph unicode="&#xe2;" horiz-adv-x="1085" d="M842 0l-25 172h-8q-82 -105 -168.5 -148.5t-225.5 -43.5t-228 82t-89 234t132.5 240t383.5 93l207 6v72q0 155 -63 234t-208.5 79t-307.5 -84l-37 86q179 84 356 84t265.5 -93t88.5 -290v-723h-73zM442 70q174 0 274.5 99.5t100.5 276.5v107l-190 -8 q-229 -11 -326.5 -71.5t-97.5 -175.5t62.5 -171.5t176.5 -56.5zM251 1257q151 163 242 312h98q68 -120 242 -312v-16h-70q-122 101 -221 207q-108 -114 -221 -207h-70v16z" />
<glyph unicode="&#xe3;" horiz-adv-x="1085" d="M842 0l-25 172h-8q-82 -105 -168.5 -148.5t-225.5 -43.5t-228 82t-89 234t132.5 240t383.5 93l207 6v72q0 155 -63 234t-208.5 79t-307.5 -84l-37 86q179 84 356 84t265.5 -93t88.5 -290v-723h-73zM442 70q174 0 274.5 99.5t100.5 276.5v107l-190 -8 q-229 -11 -326.5 -71.5t-97.5 -175.5t62.5 -171.5t176.5 -56.5zM697 1325q93 0 125 156h76q-16 -116 -69 -177t-132 -61q-71 0 -176 90q-32 26 -62.5 46t-69.5 20q-84 0 -116 -156h-73q10 111 63 174.5t137 63.5q48 0 88 -25t78 -56t70 -53t61 -22z" />
<glyph unicode="&#xe4;" horiz-adv-x="1085" d="M842 0l-25 172h-8q-82 -105 -168.5 -148.5t-225.5 -43.5t-228 82t-89 234t132.5 240t383.5 93l207 6v72q0 155 -63 234t-208.5 79t-307.5 -84l-37 86q179 84 356 84t265.5 -93t88.5 -290v-723h-73zM442 70q174 0 274.5 99.5t100.5 276.5v107l-190 -8 q-229 -11 -326.5 -71.5t-97.5 -175.5t62.5 -171.5t176.5 -56.5zM282 1389q0 86 63.5 86t63.5 -86t-63.5 -86t-63.5 86zM663 1389q0 86 63.5 86t63.5 -86t-63.5 -86t-63.5 86z" />
<glyph unicode="&#xe5;" horiz-adv-x="1085" d="M842 0l-25 172h-8q-82 -105 -168.5 -148.5t-225.5 -43.5t-228 82t-89 234t132.5 240t383.5 93l207 6v72q0 155 -63 234t-208.5 79t-307.5 -84l-37 86q179 84 356 84t265.5 -93t88.5 -290v-723h-73zM442 70q174 0 274.5 99.5t100.5 276.5v107l-190 -8 q-229 -11 -326.5 -71.5t-97.5 -175.5t62.5 -171.5t176.5 -56.5zM699 1608q60 -59 60 -154t-60 -153t-157 -58t-157 58t-60 153.5t60 154t157 58.5t157 -59zM442.5 1557q-37.5 -38 -37.5 -102.5t37.5 -102t99.5 -37.5t99.5 37.5t37.5 102.5t-39 102.5t-99.5 37.5t-98 -38z " />
<glyph unicode="&#xe6;" horiz-adv-x="1731" d="M1243 -20q-295 0 -397 256q-68 -133 -168 -194.5t-254 -61.5t-240 82.5t-86 231.5t125 238t377 97l201 6v72q0 155 -61.5 234t-204 79t-299.5 -84l-37 86q173 84 346 84q261 0 325 -211q111 213 347 213q184 0 289.5 -134.5t105.5 -363.5v-80h-715q0 -460 348 -460 q85 0 150 12t174 57v-90q-92 -41 -165 -55t-161 -14zM434 70q169 0 266 99.5t97 276.5v107l-187 -8q-219 -11 -313 -71.5t-94 -175.5t61 -171.5t170 -56.5zM1217 1020q-284 0 -314 -402h604q0 188 -77.5 295t-212.5 107z" />
<glyph unicode="&#xe7;" horiz-adv-x="973" d="M616 -20q-233 0 -365 147t-132 413.5t137 417t375 150.5q141 0 270 -49l-27 -88q-141 47 -245 47q-200 0 -303 -123.5t-103 -349.5t103 -350.5t288 -124.5q148 0 275 53v-92q-104 -51 -273 -51zM465 -403q160 0 160 108q0 94 -193 121l93 174h96l-66 -117 q168 -37 168 -174q0 -100 -67.5 -150.5t-188.5 -50.5q-68 0 -94 11v88q30 -10 92 -10z" />
<glyph unicode="&#xe8;" horiz-adv-x="1124" d="M963 49q-159 -69 -342 -69q-237 0 -369.5 146t-132.5 407.5t128 418t332.5 156.5t315.5 -134t111 -364v-80h-783q2 -224 104.5 -342t293.5 -118q93 0 163.5 13t178.5 56v-90zM819 913.5q-82 106.5 -233 106.5t-246 -103.5t-111 -298.5h672q0 189 -82 295.5zM685 1241h-69 q-96 79 -188.5 171.5t-125.5 139.5v17h142q26 -48 98.5 -142t142.5 -170v-16z" />
<glyph unicode="&#xe9;" horiz-adv-x="1124" d="M963 49q-159 -69 -342 -69q-237 0 -369.5 146t-132.5 407.5t128 418t332.5 156.5t315.5 -134t111 -364v-80h-783q2 -224 104.5 -342t293.5 -118q93 0 163.5 13t178.5 56v-90zM819 913.5q-82 106.5 -233 106.5t-246 -103.5t-111 -298.5h672q0 189 -82 295.5zM835 1552 q-81 -117 -313 -311h-70v16q73 79 144.5 171.5t97.5 140.5h141v-17z" />
<glyph unicode="&#xea;" horiz-adv-x="1124" d="M963 49q-159 -69 -342 -69q-237 0 -369.5 146t-132.5 407.5t128 418t332.5 156.5t315.5 -134t111 -364v-80h-783q2 -224 104.5 -342t293.5 -118q93 0 163.5 13t178.5 56v-90zM819 913.5q-82 106.5 -233 106.5t-246 -103.5t-111 -298.5h672q0 189 -82 295.5zM290 1257 q151 163 242 312h98q68 -120 242 -312v-16h-70q-122 101 -221 207q-108 -114 -221 -207h-70v16z" />
<glyph unicode="&#xeb;" horiz-adv-x="1124" d="M963 49q-159 -69 -342 -69q-237 0 -369.5 146t-132.5 407.5t128 418t332.5 156.5t315.5 -134t111 -364v-80h-783q2 -224 104.5 -342t293.5 -118q93 0 163.5 13t178.5 56v-90zM819 913.5q-82 106.5 -233 106.5t-246 -103.5t-111 -298.5h672q0 189 -82 295.5zM331 1389 q0 86 63.5 86t63.5 -86t-63.5 -86t-63.5 86zM712 1389q0 86 63.5 86t63.5 -86t-63.5 -86t-63.5 86z" />
<glyph unicode="&#xec;" horiz-adv-x="463" d="M281 0h-99v1087h99v-1087zM349 1241h-69q-96 79 -188.5 171.5t-125.5 139.5v17h142q26 -48 98.5 -142t142.5 -170v-16z" />
<glyph unicode="&#xed;" horiz-adv-x="463" d="M281 0h-99v1087h99v-1087zM490 1552q-81 -117 -313 -311h-70v16q73 79 144.5 171.5t97.5 140.5h141v-17z" />
<glyph unicode="&#xee;" horiz-adv-x="463" d="M281 0h-99v1087h99v-1087zM-58 1257q151 163 242 312h98q68 -120 242 -312v-16h-70q-122 101 -221 207q-108 -114 -221 -207h-70v16z" />
<glyph unicode="&#xef;" horiz-adv-x="463" d="M281 0h-99v1087h99v-1087zM-21 1389q0 86 63.5 86t63.5 -86t-63.5 -86t-63.5 86zM360 1389q0 86 63.5 86t63.5 -86t-63.5 -86t-63.5 86z" />
<glyph unicode="&#xf0;" horiz-adv-x="1174" d="M243.5 828.5q126.5 129.5 332 129.5t346.5 -129l4 2q-64 270 -269 459l-270 -157l-49 77l244 146q-86 62 -199 119l45 81q147 -69 248 -145l225 137l49 -84l-202 -121q154 -151 230.5 -353t76.5 -454.5t-124 -404t-343.5 -151.5t-345 130t-125.5 359.5t126.5 359z M950 557q0 146 -97 228.5t-275 82.5q-357 0 -357 -405q0 -186 94.5 -289.5t271 -103.5t270 123t93.5 364z" />
<glyph unicode="&#xf1;" horiz-adv-x="1208" d="M940 0v705q0 164 -69 238.5t-214 74.5q-195 0 -285.5 -98.5t-90.5 -319.5v-600h-99v1087h84l19 -149h6q106 170 377 170q370 0 370 -397v-711h-98zM779 1325q93 0 125 156h76q-16 -116 -69 -177t-132 -61q-71 0 -176 90q-32 26 -62.5 46t-69.5 20q-84 0 -116 -156h-73 q10 111 63 174.5t137 63.5q48 0 88 -25t78 -56t70 -53t61 -22z" />
<glyph unicode="&#xf2;" horiz-adv-x="1200" d="M953.5 957.5q127.5 -150.5 127.5 -414.5t-129 -413.5t-356 -149.5q-143 0 -252 69t-167 198t-58 298q0 266 129 414.5t353.5 148.5t352 -150.5zM320.5 894.5q-97.5 -123.5 -97.5 -348.5t98.5 -350.5t278.5 -125.5t278.5 125.5t98.5 350t-99.5 348.5t-279.5 124 t-277.5 -123.5zM718 1241h-69q-96 79 -188.5 171.5t-125.5 139.5v17h142q26 -48 98.5 -142t142.5 -170v-16z" />
<glyph unicode="&#xf3;" horiz-adv-x="1200" d="M953.5 957.5q127.5 -150.5 127.5 -414.5t-129 -413.5t-356 -149.5q-143 0 -252 69t-167 198t-58 298q0 266 129 414.5t353.5 148.5t352 -150.5zM320.5 894.5q-97.5 -123.5 -97.5 -348.5t98.5 -350.5t278.5 -125.5t278.5 125.5t98.5 350t-99.5 348.5t-279.5 124 t-277.5 -123.5zM882 1552q-81 -117 -313 -311h-70v16q73 79 144.5 171.5t97.5 140.5h141v-17z" />
<glyph unicode="&#xf4;" horiz-adv-x="1200" d="M953.5 957.5q127.5 -150.5 127.5 -414.5t-129 -413.5t-356 -149.5q-143 0 -252 69t-167 198t-58 298q0 266 129 414.5t353.5 148.5t352 -150.5zM320.5 894.5q-97.5 -123.5 -97.5 -348.5t98.5 -350.5t278.5 -125.5t278.5 125.5t98.5 350t-99.5 348.5t-279.5 124 t-277.5 -123.5zM309 1257q151 163 242 312h98q68 -120 242 -312v-16h-70q-122 101 -221 207q-108 -114 -221 -207h-70v16z" />
<glyph unicode="&#xf5;" horiz-adv-x="1200" d="M953.5 957.5q127.5 -150.5 127.5 -414.5t-129 -413.5t-356 -149.5q-143 0 -252 69t-167 198t-58 298q0 266 129 414.5t353.5 148.5t352 -150.5zM320.5 894.5q-97.5 -123.5 -97.5 -348.5t98.5 -350.5t278.5 -125.5t278.5 125.5t98.5 350t-99.5 348.5t-279.5 124 t-277.5 -123.5zM761 1325q93 0 125 156h76q-16 -116 -69 -177t-132 -61q-71 0 -176 90q-32 26 -62.5 46t-69.5 20q-84 0 -116 -156h-73q10 111 63 174.5t137 63.5q48 0 88 -25t78 -56t70 -53t61 -22z" />
<glyph unicode="&#xf6;" horiz-adv-x="1200" d="M953.5 957.5q127.5 -150.5 127.5 -414.5t-129 -413.5t-356 -149.5q-143 0 -252 69t-167 198t-58 298q0 266 129 414.5t353.5 148.5t352 -150.5zM320.5 894.5q-97.5 -123.5 -97.5 -348.5t98.5 -350.5t278.5 -125.5t278.5 125.5t98.5 350t-99.5 348.5t-279.5 124 t-277.5 -123.5zM346 1389q0 86 63.5 86t63.5 -86t-63.5 -86t-63.5 86zM727 1389q0 86 63.5 86t63.5 -86t-63.5 -86t-63.5 86z" />
<glyph unicode="&#xf7;" d="M111 682v82h948v-82h-948zM504 1075q0 99 81 99t81 -99q0 -52 -23.5 -75t-58 -23t-57.5 23t-23 75zM504 371q0 98 81 98t81 -98q0 -53 -23.5 -76t-58 -23t-57.5 23t-23 76z" />
<glyph unicode="&#xf8;" horiz-adv-x="1200" d="M969 936q112 -147 112 -402t-129 -404.5t-356 -149.5q-173 0 -291 98l-86 -113l-72 58l93 120q-121 153 -121 410.5t129 406t354 148.5q179 0 301 -104l96 124l74 -55zM320.5 894.5q-97.5 -123.5 -97.5 -336.5t78 -335l543 705q-98 90 -262 90t-261.5 -123.5z M878.5 195.5q98.5 125.5 98.5 332.5t-72 326l-543 -702q94 -82 238 -82q180 0 278.5 125.5z" />
<glyph unicode="&#xf9;" horiz-adv-x="1208" d="M268 1087v-704q0 -164 69 -238.5t214 -74.5q194 0 285.5 98t91.5 319v600h98v-1087h-84l-18 150h-6q-106 -170 -377 -170q-371 0 -371 397v710h98zM687 1241h-69q-96 79 -188.5 171.5t-125.5 139.5v17h142q26 -48 98.5 -142t142.5 -170v-16z" />
<glyph unicode="&#xfa;" horiz-adv-x="1208" d="M268 1087v-704q0 -164 69 -238.5t214 -74.5q194 0 285.5 98t91.5 319v600h98v-1087h-84l-18 150h-6q-106 -170 -377 -170q-371 0 -371 397v710h98zM878 1552q-81 -117 -313 -311h-70v16q73 79 144.5 171.5t97.5 140.5h141v-17z" />
<glyph unicode="&#xfb;" horiz-adv-x="1208" d="M268 1087v-704q0 -164 69 -238.5t214 -74.5q194 0 285.5 98t91.5 319v600h98v-1087h-84l-18 150h-6q-106 -170 -377 -170q-371 0 -371 397v710h98zM313 1257q151 163 242 312h98q68 -120 242 -312v-16h-70q-122 101 -221 207q-108 -114 -221 -207h-70v16z" />
<glyph unicode="&#xfc;" horiz-adv-x="1208" d="M268 1087v-704q0 -164 69 -238.5t214 -74.5q194 0 285.5 98t91.5 319v600h98v-1087h-84l-18 150h-6q-106 -170 -377 -170q-371 0 -371 397v710h98zM350 1389q0 86 63.5 86t63.5 -86t-63.5 -86t-63.5 86zM731 1389q0 86 63.5 86t63.5 -86t-63.5 -86t-63.5 86z" />
<glyph unicode="&#xfd;" horiz-adv-x="940" d="M0 1087h102l230 -610q105 -281 133 -379h6q42 129 137 385l230 604h102l-487 -1263q-59 -154 -99 -208q-80 -108 -223 -108q-57 0 -127 21v86q58 -16 117 -16t98 24t71 75q39 63 126 302zM744 1552q-81 -117 -313 -311h-70v16q73 79 144.5 171.5t97.5 140.5h141v-17z" />
<glyph unicode="&#xfe;" horiz-adv-x="1219" d="M281 918q114 190 368 190q220 0 335.5 -144.5t115.5 -416.5t-121.5 -419.5t-331.5 -147.5q-251 0 -366 188h-7l3 -84q4 -74 4 -162v-414h-99v2048h99v-391l-7 -247h7zM366.5 177q85.5 -109 265.5 -109t271.5 124t91.5 347q0 479 -348 479q-193 0 -279.5 -105t-86.5 -354 v-18q0 -255 85.5 -364z" />
<glyph unicode="&#xff;" horiz-adv-x="940" d="M0 1087h102l230 -610q105 -281 133 -379h6q42 129 137 385l230 604h102l-487 -1263q-59 -154 -99 -208q-80 -108 -223 -108q-57 0 -127 21v86q58 -16 117 -16t98 24t71 75q39 63 126 302zM214 1389q0 86 63.5 86t63.5 -86t-63.5 -86t-63.5 86zM595 1389q0 86 63.5 86 t63.5 -86t-63.5 -86t-63.5 86z" />
<glyph unicode="&#x100;" horiz-adv-x="1229" d="M911 516h-594l-204 -516h-113l588 1468h65l576 -1468h-115zM354 608h523l-199 527q-25 62 -60 172q-27 -96 -59 -174zM342 1671h555v-82h-555v82z" />
<glyph unicode="&#x101;" horiz-adv-x="1085" d="M842 0l-25 172h-8q-82 -105 -168.5 -148.5t-225.5 -43.5t-228 82t-89 234t132.5 240t383.5 93l207 6v72q0 155 -63 234t-208.5 79t-307.5 -84l-37 86q179 84 356 84t265.5 -93t88.5 -290v-723h-73zM442 70q174 0 274.5 99.5t100.5 276.5v107l-190 -8 q-229 -11 -326.5 -71.5t-97.5 -175.5t62.5 -171.5t176.5 -56.5zM274 1333h555v-82h-555v82z" />
<glyph unicode="&#x102;" horiz-adv-x="1229" d="M911 516h-594l-204 -516h-113l588 1468h65l576 -1468h-115zM354 608h523l-199 527q-25 62 -60 172q-27 -96 -59 -174zM895 1825q-30 -246 -280.5 -246t-272.5 246h82q14 -87 60.5 -124.5t134.5 -37.5t134.5 37.5t61.5 124.5h80z" />
<glyph unicode="&#x103;" horiz-adv-x="1085" d="M842 0l-25 172h-8q-82 -105 -168.5 -148.5t-225.5 -43.5t-228 82t-89 234t132.5 240t383.5 93l207 6v72q0 155 -63 234t-208.5 79t-307.5 -84l-37 86q179 84 356 84t265.5 -93t88.5 -290v-723h-73zM442 70q174 0 274.5 99.5t100.5 276.5v107l-190 -8 q-229 -11 -326.5 -71.5t-97.5 -175.5t62.5 -171.5t176.5 -56.5zM830 1487q-30 -246 -280.5 -246t-272.5 246h82q14 -87 60.5 -124.5t134.5 -37.5t134.5 37.5t61.5 124.5h80z" />
<glyph unicode="&#x104;" horiz-adv-x="1229" d="M911 516h-594l-204 -516h-113l588 1468h65l576 -1468h-115zM354 608h523l-199 527q-25 62 -60 172q-27 -96 -59 -174zM962 -264q0 146 152 264h90q-72 -63 -107.5 -119.5t-35.5 -128.5q0 -110 106 -110q49 0 82 12v-84q-40 -16 -114 -16t-123.5 47.5t-49.5 134.5z" />
<glyph unicode="&#x105;" horiz-adv-x="1085" d="M673 -264q0 144 167 277l-23 159h-8q-82 -105 -168.5 -148.5t-225.5 -43.5t-228 82t-89 234t132.5 240t383.5 93l207 6v72q0 155 -63 234t-208.5 79t-307.5 -84l-37 86q179 84 356 84t265.5 -93t88.5 -290v-723q-72 -63 -107.5 -119.5t-35.5 -128.5q0 -110 106 -110 q49 0 82 12v-84q-40 -16 -114 -16t-123.5 47.5t-49.5 134.5zM442 70q174 0 274.5 99.5t100.5 276.5v107l-190 -8q-229 -11 -326.5 -71.5t-97.5 -175.5t62.5 -171.5t176.5 -56.5z" />
<glyph unicode="&#x106;" horiz-adv-x="1272" d="M831 1391q-275 0 -433 -176t-158 -485.5t149 -482.5t426 -173q184 0 338 47v-90q-145 -51 -362 -51q-308 0 -485 199t-177 556q0 223 84.5 393t243 262.5t370.5 92.5t381 -80l-41 -92q-160 80 -336 80zM1040 1890q-81 -117 -313 -311h-70v16q73 79 144.5 171.5 t97.5 140.5h141v-17z" />
<glyph unicode="&#x107;" horiz-adv-x="973" d="M616 -20q-233 0 -365 147t-132 413.5t137 417t375 150.5q141 0 270 -49l-27 -88q-141 47 -245 47q-200 0 -303 -123.5t-103 -349.5t103 -350.5t288 -124.5q148 0 275 53v-92q-104 -51 -273 -51zM827 1552q-81 -117 -313 -311h-70v16q73 79 144.5 171.5t97.5 140.5h141 v-17z" />
<glyph unicode="&#x108;" horiz-adv-x="1272" d="M831 1391q-275 0 -433 -176t-158 -485.5t149 -482.5t426 -173q184 0 338 47v-90q-145 -51 -362 -51q-308 0 -485 199t-177 556q0 223 84.5 393t243 262.5t370.5 92.5t381 -80l-41 -92q-160 80 -336 80zM473 1595q151 163 242 312h98q68 -120 242 -312v-16h-70 q-122 101 -221 207q-108 -114 -221 -207h-70v16z" />
<glyph unicode="&#x109;" horiz-adv-x="973" d="M616 -20q-233 0 -365 147t-132 413.5t137 417t375 150.5q141 0 270 -49l-27 -88q-141 47 -245 47q-200 0 -303 -123.5t-103 -349.5t103 -350.5t288 -124.5q148 0 275 53v-92q-104 -51 -273 -51zM290 1257q151 163 242 312h98q68 -120 242 -312v-16h-70q-122 101 -221 207 q-108 -114 -221 -207h-70v16z" />
<glyph unicode="&#x10a;" horiz-adv-x="1272" d="M831 1391q-275 0 -433 -176t-158 -485.5t149 -482.5t426 -173q184 0 338 47v-90q-145 -51 -362 -51q-308 0 -485 199t-177 556q0 223 84.5 393t243 262.5t370.5 92.5t381 -80l-41 -92q-160 80 -336 80zM781 1630q-64 0 -64 96.5t64.5 96.5t64.5 -96q0 -45 -17 -71 t-48 -26z" />
<glyph unicode="&#x10b;" horiz-adv-x="973" d="M616 -20q-233 0 -365 147t-132 413.5t137 417t375 150.5q141 0 270 -49l-27 -88q-141 47 -245 47q-200 0 -303 -123.5t-103 -349.5t103 -350.5t288 -124.5q148 0 275 53v-92q-104 -51 -273 -51zM586 1292q-64 0 -64 96.5t64.5 96.5t64.5 -96q0 -45 -17 -71t-48 -26z" />
<glyph unicode="&#x10c;" horiz-adv-x="1272" d="M831 1391q-275 0 -433 -176t-158 -485.5t149 -482.5t426 -173q184 0 338 47v-90q-145 -51 -362 -51q-308 0 -485 199t-177 556q0 223 84.5 393t243 262.5t370.5 92.5t381 -80l-41 -92q-160 80 -336 80zM1051 1890q-170 -188 -242 -311h-98q-76 128 -242 311v17h70 q114 -94 221 -207q108 114 221 207h70v-17z" />
<glyph unicode="&#x10d;" horiz-adv-x="973" d="M616 -20q-233 0 -365 147t-132 413.5t137 417t375 150.5q141 0 270 -49l-27 -88q-141 47 -245 47q-200 0 -303 -123.5t-103 -349.5t103 -350.5t288 -124.5q148 0 275 53v-92q-104 -51 -273 -51zM872 1552q-170 -188 -242 -311h-98q-76 128 -242 311v17h70 q114 -94 221 -207q108 114 221 207h70v-17z" />
<glyph unicode="&#x10e;" horiz-adv-x="1446" d="M1134.5 1279q182.5 -183 182.5 -542.5t-193 -548t-567 -188.5h-350v1462h395q350 0 532.5 -183zM1206 741q0 314 -159.5 472.5t-468.5 158.5h-269v-1282h242q655 0 655 651zM961 1890q-170 -188 -242 -311h-98q-76 128 -242 311v17h70q114 -94 221 -207q108 114 221 207 h70v-17z" />
<glyph unicode="&#x10f;" horiz-adv-x="1219" d="M580 1108q118 0 204 -43t154 -147h6q-6 126 -6 247v391h98v-1556h-65l-25 166h-8q-124 -186 -352.5 -186t-347.5 140t-119 415t118 424t343 149zM853.5 907.5q-84.5 110.5 -267.5 110.5q-363 0 -363 -488q0 -462 359 -462q184 0 270 107t86 353v17q0 252 -84.5 362.5z M1339 1542q-39 -154 -145 -313h-53v16q21 45 48 139.5t38 171.5h112v-14z" />
<glyph unicode="&#x110;" horiz-adv-x="1466" d="M1134.5 1279q182.5 -183 182.5 -542.5t-193 -548t-567 -188.5h-350v678h-160v94h160v690h395q350 0 532.5 -183zM1206 741q0 314 -159.5 472.5t-468.5 158.5h-269v-600h406v-94h-406v-588h242q655 0 655 651z" />
<glyph unicode="&#x111;" horiz-adv-x="1219" d="M580 1108q118 0 204 -43t154 -147h6q-6 126 -6 247v107h-473v82h473v202h98v-202h156v-82h-156v-1272h-65l-25 166h-8q-124 -186 -352.5 -186t-347.5 140t-119 415t118 424t343 149zM853.5 907.5q-84.5 110.5 -267.5 110.5q-363 0 -363 -488q0 -462 359 -462 q184 0 270 107t86 353v17q0 252 -84.5 362.5z" />
<glyph unicode="&#x112;" horiz-adv-x="1130" d="M1006 0h-799v1462h799v-94h-697v-553h658v-94h-658v-627h697v-94zM322 1671h555v-82h-555v82z" />
<glyph unicode="&#x113;" horiz-adv-x="1124" d="M963 49q-159 -69 -342 -69q-237 0 -369.5 146t-132.5 407.5t128 418t332.5 156.5t315.5 -134t111 -364v-80h-783q2 -224 104.5 -342t293.5 -118q93 0 163.5 13t178.5 56v-90zM819 913.5q-82 106.5 -233 106.5t-246 -103.5t-111 -298.5h672q0 189 -82 295.5zM309 1333h555 v-82h-555v82z" />
<glyph unicode="&#x114;" horiz-adv-x="1130" d="M1006 0h-799v1462h799v-94h-697v-553h658v-94h-658v-627h697v-94zM874 1825q-30 -246 -280.5 -246t-272.5 246h82q14 -87 60.5 -124.5t134.5 -37.5t134.5 37.5t61.5 124.5h80z" />
<glyph unicode="&#x115;" horiz-adv-x="1124" d="M963 49q-159 -69 -342 -69q-237 0 -369.5 146t-132.5 407.5t128 418t332.5 156.5t315.5 -134t111 -364v-80h-783q2 -224 104.5 -342t293.5 -118q93 0 163.5 13t178.5 56v-90zM819 913.5q-82 106.5 -233 106.5t-246 -103.5t-111 -298.5h672q0 189 -82 295.5zM859 1487 q-30 -246 -280.5 -246t-272.5 246h82q14 -87 60.5 -124.5t134.5 -37.5t134.5 37.5t61.5 124.5h80z" />
<glyph unicode="&#x116;" horiz-adv-x="1130" d="M1006 0h-799v1462h799v-94h-697v-553h658v-94h-658v-627h697v-94zM607 1601q-64 0 -64 96.5t64.5 96.5t64.5 -96q0 -45 -17 -71t-48 -26z" />
<glyph unicode="&#x117;" horiz-adv-x="1124" d="M963 49q-159 -69 -342 -69q-237 0 -369.5 146t-132.5 407.5t128 418t332.5 156.5t315.5 -134t111 -364v-80h-783q2 -224 104.5 -342t293.5 -118q93 0 163.5 13t178.5 56v-90zM819 913.5q-82 106.5 -233 106.5t-246 -103.5t-111 -298.5h672q0 189 -82 295.5zM576 1292 q-64 0 -64 96.5t64.5 96.5t64.5 -96q0 -45 -17 -71t-48 -26z" />
<glyph unicode="&#x118;" horiz-adv-x="1130" d="M1006 0h-799v1462h799v-94h-697v-553h658v-94h-658v-627h697v-94zM655 -264q0 146 152 264h90q-72 -63 -107.5 -119.5t-35.5 -128.5q0 -110 106 -110q49 0 82 12v-84q-40 -16 -114 -16t-123.5 47.5t-49.5 134.5z" />
<glyph unicode="&#x119;" horiz-adv-x="1124" d="M963 49q-159 -69 -342 -69q-237 0 -369.5 146t-132.5 407.5t128 418t332.5 156.5t315.5 -134t111 -364v-80h-783q2 -224 104.5 -342t293.5 -118q93 0 163.5 13t178.5 56v-90zM819 913.5q-82 106.5 -233 106.5t-246 -103.5t-111 -298.5h672q0 189 -82 295.5zM653 -227 q0 146 152 264h90q-72 -63 -107.5 -119.5t-35.5 -128.5q0 -110 106 -110q49 0 82 12v-84q-40 -16 -114 -16t-123.5 47.5t-49.5 134.5z" />
<glyph unicode="&#x11a;" horiz-adv-x="1130" d="M1006 0h-799v1462h799v-94h-697v-553h658v-94h-658v-627h697v-94zM889 1890q-170 -188 -242 -311h-98q-76 128 -242 311v17h70q114 -94 221 -207q108 114 221 207h70v-17z" />
<glyph unicode="&#x11b;" horiz-adv-x="1124" d="M963 49q-159 -69 -342 -69q-237 0 -369.5 146t-132.5 407.5t128 418t332.5 156.5t315.5 -134t111 -364v-80h-783q2 -224 104.5 -342t293.5 -118q93 0 163.5 13t178.5 56v-90zM819 913.5q-82 106.5 -233 106.5t-246 -103.5t-111 -298.5h672q0 189 -82 295.5zM866 1552 q-170 -188 -242 -311h-98q-76 128 -242 311v17h70q114 -94 221 -207q108 114 221 207h70v-17z" />
<glyph unicode="&#x11c;" horiz-adv-x="1481" d="M782 737h539v-667q-212 -90 -477 -90q-346 0 -530.5 195.5t-184.5 553.5q0 223 91.5 395.5t262 266.5t400.5 94t420 -88l-41 -92q-190 88 -394 88q-289 0 -458.5 -178.5t-169.5 -495t161 -483t473 -166.5q202 0 343 57v514h-435v96zM512 1595q151 163 242 312h98 q68 -120 242 -312v-16h-70q-122 101 -221 207q-108 -114 -221 -207h-70v16z" />
<glyph unicode="&#x11d;" horiz-adv-x="1071" d="M406 412q-121 -64 -121 -162q0 -52 39.5 -76t132.5 -24h190q177 0 271 -71.5t94 -211.5q0 -172 -139.5 -265.5t-371 -93.5t-344 79t-112.5 220q0 112 69.5 186t188.5 101q-49 21 -78.5 59.5t-29.5 88.5q0 109 139 192q-95 39 -148 122.5t-53 191.5q0 163 103.5 261.5 t279.5 98.5q107 0 166 -21h348v-69l-225 -14q90 -112 90 -257.5t-104.5 -243t-280.5 -97.5q-74 0 -104 6zM150 -184q0 -224 333 -224q428 0 428 273q0 98 -67 142t-217 44h-178q-299 0 -299 -235zM307.5 955.5q-74.5 -74.5 -74.5 -204t76.5 -199t208.5 -69.5t204.5 69 t72.5 204t-74.5 204.5t-206.5 69.5t-206.5 -74.5zM230 1257q151 163 242 312h98q68 -120 242 -312v-16h-70q-122 101 -221 207q-108 -114 -221 -207h-70v16z" />
<glyph unicode="&#x11e;" horiz-adv-x="1481" d="M782 737h539v-667q-212 -90 -477 -90q-346 0 -530.5 195.5t-184.5 553.5q0 223 91.5 395.5t262 266.5t400.5 94t420 -88l-41 -92q-190 88 -394 88q-289 0 -458.5 -178.5t-169.5 -495t161 -483t473 -166.5q202 0 343 57v514h-435v96zM1077 1825q-30 -246 -280.5 -246 t-272.5 246h82q14 -87 60.5 -124.5t134.5 -37.5t134.5 37.5t61.5 124.5h80z" />
<glyph unicode="&#x11f;" horiz-adv-x="1071" d="M406 412q-121 -64 -121 -162q0 -52 39.5 -76t132.5 -24h190q177 0 271 -71.5t94 -211.5q0 -172 -139.5 -265.5t-371 -93.5t-344 79t-112.5 220q0 112 69.5 186t188.5 101q-49 21 -78.5 59.5t-29.5 88.5q0 109 139 192q-95 39 -148 122.5t-53 191.5q0 163 103.5 261.5 t279.5 98.5q107 0 166 -21h348v-69l-225 -14q90 -112 90 -257.5t-104.5 -243t-280.5 -97.5q-74 0 -104 6zM150 -184q0 -224 333 -224q428 0 428 273q0 98 -67 142t-217 44h-178q-299 0 -299 -235zM307.5 955.5q-74.5 -74.5 -74.5 -204t76.5 -199t208.5 -69.5t204.5 69 t72.5 204t-74.5 204.5t-206.5 69.5t-206.5 -74.5zM791 1487q-30 -246 -280.5 -246t-272.5 246h82q14 -87 60.5 -124.5t134.5 -37.5t134.5 37.5t61.5 124.5h80z" />
<glyph unicode="&#x120;" horiz-adv-x="1481" d="M782 737h539v-667q-212 -90 -477 -90q-346 0 -530.5 195.5t-184.5 553.5q0 223 91.5 395.5t262 266.5t400.5 94t420 -88l-41 -92q-190 88 -394 88q-289 0 -458.5 -178.5t-169.5 -495t161 -483t473 -166.5q202 0 343 57v514h-435v96zM817 1630q-64 0 -64 96.5t64.5 96.5 t64.5 -96q0 -45 -17 -71t-48 -26z" />
<glyph unicode="&#x121;" horiz-adv-x="1071" d="M406 412q-121 -64 -121 -162q0 -52 39.5 -76t132.5 -24h190q177 0 271 -71.5t94 -211.5q0 -172 -139.5 -265.5t-371 -93.5t-344 79t-112.5 220q0 112 69.5 186t188.5 101q-49 21 -78.5 59.5t-29.5 88.5q0 109 139 192q-95 39 -148 122.5t-53 191.5q0 163 103.5 261.5 t279.5 98.5q107 0 166 -21h348v-69l-225 -14q90 -112 90 -257.5t-104.5 -243t-280.5 -97.5q-74 0 -104 6zM150 -184q0 -224 333 -224q428 0 428 273q0 98 -67 142t-217 44h-178q-299 0 -299 -235zM307.5 955.5q-74.5 -74.5 -74.5 -204t76.5 -199t208.5 -69.5t204.5 69 t72.5 204t-74.5 204.5t-206.5 69.5t-206.5 -74.5zM527 1292q-64 0 -64 96.5t64.5 96.5t64.5 -96q0 -45 -17 -71t-48 -26z" />
<glyph unicode="&#x122;" horiz-adv-x="1481" d="M782 737h539v-667q-212 -90 -477 -90q-346 0 -530.5 195.5t-184.5 553.5q0 223 91.5 395.5t262 266.5t400.5 94t420 -88l-41 -92q-190 88 -394 88q-289 0 -458.5 -178.5t-169.5 -495t161 -483t473 -166.5q202 0 343 57v514h-435v96zM881 -139q-47 -169 -145 -314h-54v17 q59 128 86 311h113v-14z" />
<glyph unicode="&#x123;" horiz-adv-x="1071" d="M406 412q-121 -64 -121 -162q0 -52 39.5 -76t132.5 -24h190q177 0 271 -71.5t94 -211.5q0 -172 -139.5 -265.5t-371 -93.5t-344 79t-112.5 220q0 112 69.5 186t188.5 101q-49 21 -78.5 59.5t-29.5 88.5q0 109 139 192q-95 39 -148 122.5t-53 191.5q0 163 103.5 261.5 t279.5 98.5q107 0 166 -21h348v-69l-225 -14q90 -112 90 -257.5t-104.5 -243t-280.5 -97.5q-74 0 -104 6zM150 -184q0 -224 333 -224q428 0 428 273q0 98 -67 142t-217 44h-178q-299 0 -299 -235zM307.5 955.5q-74.5 -74.5 -74.5 -204t76.5 -199t208.5 -69.5t204.5 69 t72.5 204t-74.5 204.5t-206.5 69.5t-206.5 -74.5zM669 1552q-27 -58 -53.5 -159t-32.5 -152h-112v14q20 77 61.5 165t83.5 149h53v-17z" />
<glyph unicode="&#x124;" horiz-adv-x="1473" d="M1266 0h-103v719h-854v-719h-102v1462h102v-649h854v649h103v-1462zM444 1595q151 163 242 312h98q68 -120 242 -312v-16h-70q-122 101 -221 207q-108 -114 -221 -207h-70v16z" />
<glyph unicode="&#x125;" horiz-adv-x="1208" d="M940 0v705q0 164 -69 238.5t-214 74.5q-195 0 -285.5 -98.5t-90.5 -319.5v-600h-99v1556h99v-495l-5 -139h7q61 98 154 142t231 44q370 0 370 -397v-711h-98zM313 1650q151 163 242 312h98q68 -120 242 -312v-16h-70q-122 101 -221 207q-108 -114 -221 -207h-70v16z" />
<glyph unicode="&#x126;" horiz-adv-x="1473" d="M207 1192v270h102v-270h854v270h103v-270h207v-94h-207v-1098h-103v719h-854v-719h-102v1098h-207v94h207zM1163 813v285h-854v-285h854z" />
<glyph unicode="&#x127;" horiz-adv-x="1208" d="M940 0v674q0 164 -69 238.5t-214 74.5q-197 0 -286.5 -98t-89.5 -320v-569h-99v1272h-155v82h155v202h99v-202h473v-82h-473v-242l-5 -139h7q61 98 154 142t231 44q370 0 370 -397v-680h-98z" />
<glyph unicode="&#x128;" horiz-adv-x="516" d="M207 0v1462h102v-1462h-102zM419 1663q93 0 125 156h76q-16 -116 -69 -177t-132 -61q-71 0 -176 90q-32 26 -62.5 46t-69.5 20q-84 0 -116 -156h-73q10 111 63 174.5t137 63.5q48 0 88 -25t78 -56t70 -53t61 -22z" />
<glyph unicode="&#x129;" horiz-adv-x="463" d="M281 0h-99v1087h99v-1087zM390 1325q93 0 125 156h76q-16 -116 -69 -177t-132 -61q-71 0 -176 90q-32 26 -62.5 46t-69.5 20q-84 0 -116 -156h-73q10 111 63 174.5t137 63.5q48 0 88 -25t78 -56t70 -53t61 -22z" />
<glyph unicode="&#x12a;" horiz-adv-x="516" d="M207 0v1462h102v-1462h-102zM-17 1671h555v-82h-555v82z" />
<glyph unicode="&#x12b;" horiz-adv-x="463" d="M281 0h-99v1087h99v-1087zM-44 1333h555v-82h-555v82z" />
<glyph unicode="&#x12c;" horiz-adv-x="516" d="M207 0v1462h102v-1462h-102zM535 1825q-30 -246 -280.5 -246t-272.5 246h82q14 -87 60.5 -124.5t134.5 -37.5t134.5 37.5t61.5 124.5h80z" />
<glyph unicode="&#x12d;" horiz-adv-x="463" d="M281 0h-99v1087h99v-1087zM509 1487q-30 -246 -280.5 -246t-272.5 246h82q14 -87 60.5 -124.5t134.5 -37.5t134.5 37.5t61.5 124.5h80z" />
<glyph unicode="&#x12e;" horiz-adv-x="516" d="M207 0v1462h102v-1462h-102zM65 -264q0 146 152 264h90q-72 -63 -107.5 -119.5t-35.5 -128.5q0 -110 106 -110q49 0 82 12v-84q-40 -16 -114 -16t-123.5 47.5t-49.5 134.5z" />
<glyph unicode="&#x12f;" horiz-adv-x="463" d="M281 0h-99v1087h99v-1087zM231 1292q-63 0 -63 96.5t64.5 96.5t64.5 -96q0 -45 -17.5 -71t-48.5 -26zM39 -264q0 146 152 264h90q-72 -63 -107.5 -119.5t-35.5 -128.5q0 -110 106 -110q49 0 82 12v-84q-40 -16 -114 -16t-123.5 47.5t-49.5 134.5z" />
<glyph unicode="&#x130;" horiz-adv-x="516" d="M207 0v1462h102v-1462h-102zM258 1630q-64 0 -64 96.5t64.5 96.5t64.5 -96q0 -45 -17 -71t-48 -26z" />
<glyph unicode="&#x131;" horiz-adv-x="463" d="M281 0h-99v1087h99v-1087z" />
<glyph unicode="&#x132;" horiz-adv-x="1022" d="M207 0v1462h102v-1462h-102zM483 -369q-92 0 -151 27v88q78 -20 149 -20q242 0 242 264v1472h102v-1462q0 -369 -342 -369z" />
<glyph unicode="&#x133;" horiz-adv-x="926" d="M281 0h-99v1087h99v-1087zM231 1292q-63 0 -63 96.5t64.5 96.5t64.5 -96q0 -45 -17.5 -71t-48.5 -26zM500 -492q-80 0 -135 25v86q69 -20 129 -20q151 0 151 176v1312h99v-1298q0 -135 -63.5 -208t-180.5 -73zM694 1292q-63 0 -63 96.5t64.5 96.5t64.5 -96 q0 -45 -17.5 -71t-48.5 -26z" />
<glyph unicode="&#x134;" horiz-adv-x="506" d="M-33 -369q-92 0 -151 27v88q78 -20 149 -20q242 0 242 264v1472h102v-1462q0 -369 -342 -369zM-34 1595q151 163 242 312h98q68 -120 242 -312v-16h-70q-122 101 -221 207q-108 -114 -221 -207h-70v16z" />
<glyph unicode="&#x135;" horiz-adv-x="463" d="M37 -492q-80 0 -135 25v86q69 -20 129 -20q151 0 151 176v1312h99v-1298q0 -135 -63.5 -208t-180.5 -73zM-58 1257q151 163 242 312h98q68 -120 242 -312v-16h-70q-122 101 -221 207q-108 -114 -221 -207h-70v16z" />
<glyph unicode="&#x136;" horiz-adv-x="1190" d="M1190 0h-125l-561 772l-195 -172v-600h-102v1462h102v-760l162 162l573 598h130l-599 -618zM723 -139q-47 -169 -145 -314h-54v17q59 128 86 311h113v-14z" />
<glyph unicode="&#x137;" horiz-adv-x="991" d="M279 477l555 610h120l-428 -464l465 -623h-119l-413 549l-178 -162v-387h-99v1556h99v-780l-7 -299h5zM635 -139q-47 -169 -145 -314h-54v17q59 128 86 311h113v-14z" />
<glyph unicode="&#x138;" horiz-adv-x="991" d="M279 477l555 610h120l-428 -464l465 -623h-119l-413 549l-178 -162v-387h-99v1087h99v-311l-7 -299h5z" />
<glyph unicode="&#x139;" horiz-adv-x="1051" d="M207 0v1462h102v-1366h697v-96h-799zM609 1890q-81 -117 -313 -311h-70v16q73 79 144.5 171.5t97.5 140.5h141v-17z" />
<glyph unicode="&#x13a;" horiz-adv-x="463" d="M281 0h-99v1556h99v-1556zM519 1947q-81 -117 -313 -311h-70v16q73 79 144.5 171.5t97.5 140.5h141v-17z" />
<glyph unicode="&#x13b;" horiz-adv-x="1051" d="M207 0v1462h102v-1366h697v-96h-799zM660 -139q-47 -169 -145 -314h-54v17q59 128 86 311h113v-14z" />
<glyph unicode="&#x13c;" horiz-adv-x="463" d="M281 0h-99v1556h99v-1556zM296 -139q-47 -169 -145 -314h-54v17q59 128 86 311h113v-14z" />
<glyph unicode="&#x13d;" horiz-adv-x="1051" d="M207 0v1462h102v-1366h697v-96h-799zM874 1449q-39 -154 -145 -313h-53v16q21 45 48 139.5t38 171.5h112v-14z" />
<glyph unicode="&#x13e;" horiz-adv-x="463" d="M281 0h-99v1556h99v-1556zM584 1542q-39 -154 -145 -313h-53v16q21 45 48 139.5t38 171.5h112v-14z" />
<glyph unicode="&#x13f;" horiz-adv-x="1051" d="M207 0v1462h102v-1366h697v-96h-799zM756 631q-64 0 -64 96.5t64.5 96.5t64.5 -96q0 -45 -17 -71t-48 -26z" />
<glyph unicode="&#x140;" horiz-adv-x="477" d="M281 0h-99v1556h99v-1556zM469 580q-64 0 -64 96.5t64.5 96.5t64.5 -96q0 -45 -17 -71t-48 -26z" />
<glyph unicode="&#x141;" horiz-adv-x="1051" d="M207 0v551l-137 -86l-41 74l178 112v811h102v-747l324 205l47 -76l-371 -230v-518h697v-96h-799z" />
<glyph unicode="&#x142;" horiz-adv-x="463" d="M281 817l153 103l43 -70l-196 -131v-719h-99v653l-129 -86l-45 72l174 115v802h99v-739z" />
<glyph unicode="&#x143;" horiz-adv-x="1477" d="M1270 0h-103l-866 1298h-8q12 -232 12 -350v-948h-98v1462h102l865 -1296h6q-9 180 -9 342v954h99v-1462zM1001 1890q-81 -117 -313 -311h-70v16q73 79 144.5 171.5t97.5 140.5h141v-17z" />
<glyph unicode="&#x144;" horiz-adv-x="1208" d="M940 0v705q0 164 -69 238.5t-214 74.5q-195 0 -285.5 -98.5t-90.5 -319.5v-600h-99v1087h84l19 -149h6q106 170 377 170q370 0 370 -397v-711h-98zM872 1552q-81 -117 -313 -311h-70v16q73 79 144.5 171.5t97.5 140.5h141v-17z" />
<glyph unicode="&#x145;" horiz-adv-x="1477" d="M1270 0h-103l-866 1298h-8q12 -232 12 -350v-948h-98v1462h102l865 -1296h6q-9 180 -9 342v954h99v-1462zM797 -139q-47 -169 -145 -314h-54v17q59 128 86 311h113v-14z" />
<glyph unicode="&#x146;" horiz-adv-x="1208" d="M940 0v705q0 164 -69 238.5t-214 74.5q-195 0 -285.5 -98.5t-90.5 -319.5v-600h-99v1087h84l19 -149h6q106 170 377 170q370 0 370 -397v-711h-98zM674 -139q-47 -169 -145 -314h-54v17q59 128 86 311h113v-14z" />
<glyph unicode="&#x147;" horiz-adv-x="1477" d="M1270 0h-103l-866 1298h-8q12 -232 12 -350v-948h-98v1462h102l865 -1296h6q-9 180 -9 342v954h99v-1462zM1028 1890q-170 -188 -242 -311h-98q-76 128 -242 311v17h70q114 -94 221 -207q108 114 221 207h70v-17z" />
<glyph unicode="&#x148;" horiz-adv-x="1208" d="M940 0v705q0 164 -69 238.5t-214 74.5q-195 0 -285.5 -98.5t-90.5 -319.5v-600h-99v1087h84l19 -149h6q106 170 377 170q370 0 370 -397v-711h-98zM895 1552q-170 -188 -242 -311h-98q-76 128 -242 311v17h70q114 -94 221 -207q108 114 221 207h70v-17z" />
<glyph unicode="&#x149;" horiz-adv-x="1284" d="M1016 0v705q0 164 -69 238.5t-214 74.5q-195 0 -285.5 -98.5t-90.5 -319.5v-600h-99v1087h84l19 -149h6q106 170 377 170q370 0 370 -397v-711h-98zM1 961q70 231 110 501h117l12 -20q-75 -265 -174 -481h-65z" />
<glyph unicode="&#x14a;" horiz-adv-x="1477" d="M1270 0q0 -369 -342 -369q-93 0 -152 27v88q78 -20 150 -20q241 0 241 264v10l-866 1298h-8q12 -232 12 -350v-948h-98v1462h102l865 -1296h6q-9 180 -9 342v954h99v-1462z" />
<glyph unicode="&#x14b;" horiz-adv-x="1208" d="M795 -492q-79 0 -136 25v86q69 -20 129 -20q152 0 152 176v930q0 164 -72.5 238.5t-243 74.5t-257 -99.5t-86.5 -318.5v-600h-99v1087h84l19 -149h6q54 87 147 128.5t205 41.5q201 0 298 -99t97 -298v-922q0 -134 -62.5 -207.5t-180.5 -73.5z" />
<glyph unicode="&#x14c;" horiz-adv-x="1565" d="M1263 1283.5q173 -201.5 173 -550t-174 -551t-479.5 -202.5t-479.5 202.5t-174 552t175.5 550t480.5 200.5t478 -201.5zM381.5 1216q-141.5 -170 -141.5 -483.5t140 -485t403 -171.5t402.5 170t139.5 486.5t-139.5 485t-401 168.5t-403 -170zM506 1671h555v-82h-555v82z " />
<glyph unicode="&#x14d;" horiz-adv-x="1200" d="M953.5 957.5q127.5 -150.5 127.5 -414.5t-129 -413.5t-356 -149.5q-143 0 -252 69t-167 198t-58 298q0 266 129 414.5t353.5 148.5t352 -150.5zM320.5 894.5q-97.5 -123.5 -97.5 -348.5t98.5 -350.5t278.5 -125.5t278.5 125.5t98.5 350t-99.5 348.5t-279.5 124 t-277.5 -123.5zM324 1333h555v-82h-555v82z" />
<glyph unicode="&#x14e;" horiz-adv-x="1565" d="M1263 1283.5q173 -201.5 173 -550t-174 -551t-479.5 -202.5t-479.5 202.5t-174 552t175.5 550t480.5 200.5t478 -201.5zM381.5 1216q-141.5 -170 -141.5 -483.5t140 -485t403 -171.5t402.5 170t139.5 486.5t-139.5 485t-401 168.5t-403 -170zM1059 1825 q-30 -246 -280.5 -246t-272.5 246h82q14 -87 60.5 -124.5t134.5 -37.5t134.5 37.5t61.5 124.5h80z" />
<glyph unicode="&#x14f;" horiz-adv-x="1200" d="M953.5 957.5q127.5 -150.5 127.5 -414.5t-129 -413.5t-356 -149.5q-143 0 -252 69t-167 198t-58 298q0 266 129 414.5t353.5 148.5t352 -150.5zM320.5 894.5q-97.5 -123.5 -97.5 -348.5t98.5 -350.5t278.5 -125.5t278.5 125.5t98.5 350t-99.5 348.5t-279.5 124 t-277.5 -123.5zM876 1487q-30 -246 -280.5 -246t-272.5 246h82q14 -87 60.5 -124.5t134.5 -37.5t134.5 37.5t61.5 124.5h80z" />
<glyph unicode="&#x150;" horiz-adv-x="1565" d="M1263 1283.5q173 -201.5 173 -550t-174 -551t-479.5 -202.5t-479.5 202.5t-174 552t175.5 550t480.5 200.5t478 -201.5zM381.5 1216q-141.5 -170 -141.5 -483.5t140 -485t403 -171.5t402.5 170t139.5 486.5t-139.5 485t-401 168.5t-403 -170zM534 1595q31 33 67 90 t121 222h136v-17q-135 -202 -254 -311h-70v16zM872 1595q31 33 67 90t121 222h136v-17q-135 -202 -254 -311h-70v16z" />
<glyph unicode="&#x151;" horiz-adv-x="1200" d="M953.5 957.5q127.5 -150.5 127.5 -414.5t-129 -413.5t-356 -149.5q-143 0 -252 69t-167 198t-58 298q0 266 129 414.5t353.5 148.5t352 -150.5zM320.5 894.5q-97.5 -123.5 -97.5 -348.5t98.5 -350.5t278.5 -125.5t278.5 125.5t98.5 350t-99.5 348.5t-279.5 124 t-277.5 -123.5zM342 1257q31 33 67 90t121 222h136v-17q-135 -202 -254 -311h-70v16zM680 1257q31 33 67 90t121 222h136v-17q-135 -202 -254 -311h-70v16z" />
<glyph unicode="&#x152;" horiz-adv-x="1839" d="M1714 0h-756q-76 -16 -176 -16q-305 0 -479 200t-174 549t174.5 547.5t480.5 198.5q78 0 183 -17h747v-94h-655v-553h616v-94h-616v-627h655v-94zM782 80q109 0 174 18v1266q-62 16 -172 16q-262 0 -403 -167.5t-141 -481t140.5 -482.5t401.5 -169z" />
<glyph unicode="&#x153;" horiz-adv-x="1942" d="M1780 49q-159 -69 -342 -69q-320 0 -432 266q-123 -266 -410 -266q-143 0 -252 69t-167 198t-58 298q0 266 129 414.5t354 148.5q294 0 408 -279q110 279 399 279q192 0 303 -134t111 -364v-80h-762q2 -230 100.5 -345t276.5 -115q93 0 163.5 13t178.5 56v-90z M320.5 894.5q-97.5 -123.5 -97.5 -348.5t98.5 -350.5t275.5 -125.5t268 122.5t91 349.5t-93 351.5t-269 124.5t-273.5 -123.5zM1636 913.5q-82 106.5 -232 106.5t-237 -104t-102 -298h653q0 189 -82 295.5z" />
<glyph unicode="&#x154;" horiz-adv-x="1217" d="M1087 1059q0 -306 -313 -393l397 -666h-122l-377 637h-363v-637h-102v1462h348q272 0 402 -100.5t130 -302.5zM309 725h279q185 0 287 82.5t102 246.5t-100 240t-326 76h-242v-645zM874 1890q-81 -117 -313 -311h-70v16q73 79 144.5 171.5t97.5 140.5h141v-17z" />
<glyph unicode="&#x155;" horiz-adv-x="797" d="M426 1059.5q76 48.5 164.5 48.5t167.5 -14l-19 -95q-68 17 -141 17q-139 0 -228 -118t-89 -298v-600h-99v1087h84l10 -196h7q67 120 143 168.5zM722 1552q-81 -117 -313 -311h-70v16q73 79 144.5 171.5t97.5 140.5h141v-17z" />
<glyph unicode="&#x156;" horiz-adv-x="1217" d="M1087 1059q0 -306 -313 -393l397 -666h-122l-377 637h-363v-637h-102v1462h348q272 0 402 -100.5t130 -302.5zM309 725h279q185 0 287 82.5t102 246.5t-100 240t-326 76h-242v-645zM723 -139q-47 -169 -145 -314h-54v17q59 128 86 311h113v-14z" />
<glyph unicode="&#x157;" horiz-adv-x="797" d="M426 1059.5q76 48.5 164.5 48.5t167.5 -14l-19 -95q-68 17 -141 17q-139 0 -228 -118t-89 -298v-600h-99v1087h84l10 -196h7q67 120 143 168.5zM308 -139q-47 -169 -145 -314h-54v17q59 128 86 311h113v-14z" />
<glyph unicode="&#x158;" horiz-adv-x="1217" d="M1087 1059q0 -306 -313 -393l397 -666h-122l-377 637h-363v-637h-102v1462h348q272 0 402 -100.5t130 -302.5zM309 725h279q185 0 287 82.5t102 246.5t-100 240t-326 76h-242v-645zM895 1890q-170 -188 -242 -311h-98q-76 128 -242 311v17h70q114 -94 221 -207 q108 114 221 207h70v-17z" />
<glyph unicode="&#x159;" horiz-adv-x="797" d="M426 1059.5q76 48.5 164.5 48.5t167.5 -14l-19 -95q-68 17 -141 17q-139 0 -228 -118t-89 -298v-600h-99v1087h84l10 -196h7q67 120 143 168.5zM745 1552q-170 -188 -242 -311h-98q-76 128 -242 311v17h70q114 -94 221 -207q108 114 221 207h70v-17z" />
<glyph unicode="&#x15a;" horiz-adv-x="1116" d="M1014 377q0 -183 -134.5 -290t-380 -107t-388.5 59v102q158 -67 403 -67q180 0 285.5 82.5t105.5 216.5q0 83 -35 137.5t-114 99.5t-267.5 109.5t-274 154t-85.5 246t128.5 260t332.5 103.5t385 -78l-37 -88q-182 76 -346 76t-260 -75t-96 -204q0 -81 29.5 -133 t96.5 -93.5t234 -100t253 -114t125.5 -126t39.5 -170.5zM839 1890q-81 -117 -313 -311h-70v16q73 79 144.5 171.5t97.5 140.5h141v-17z" />
<glyph unicode="&#x15b;" horiz-adv-x="954" d="M745 58.5q-111 -78.5 -322 -78.5t-339 67v107q164 -82 335.5 -82t255 53.5t83.5 139t-66.5 141.5t-224 112.5t-223.5 99.5q-133 85 -133 216.5t102.5 202.5t282.5 71t338 -66l-37 -90q-160 66 -295 66t-213 -44t-78 -125.5t60.5 -132.5t222 -109t228.5 -101 q134 -84 134 -226.5t-111 -221zM734 1552q-81 -117 -313 -311h-70v16q73 79 144.5 171.5t97.5 140.5h141v-17z" />
<glyph unicode="&#x15c;" horiz-adv-x="1116" d="M1014 377q0 -183 -134.5 -290t-380 -107t-388.5 59v102q158 -67 403 -67q180 0 285.5 82.5t105.5 216.5q0 83 -35 137.5t-114 99.5t-267.5 109.5t-274 154t-85.5 246t128.5 260t332.5 103.5t385 -78l-37 -88q-182 76 -346 76t-260 -75t-96 -204q0 -81 29.5 -133 t96.5 -93.5t234 -100t253 -114t125.5 -126t39.5 -170.5zM280 1595q151 163 242 312h98q68 -120 242 -312v-16h-70q-122 101 -221 207q-108 -114 -221 -207h-70v16z" />
<glyph unicode="&#x15d;" horiz-adv-x="954" d="M745 58.5q-111 -78.5 -322 -78.5t-339 67v107q164 -82 335.5 -82t255 53.5t83.5 139t-66.5 141.5t-224 112.5t-223.5 99.5q-133 85 -133 216.5t102.5 202.5t282.5 71t338 -66l-37 -90q-160 66 -295 66t-213 -44t-78 -125.5t60.5 -132.5t222 -109t228.5 -101 q134 -84 134 -226.5t-111 -221zM196 1257q151 163 242 312h98q68 -120 242 -312v-16h-70q-122 101 -221 207q-108 -114 -221 -207h-70v16z" />
<glyph unicode="&#x15e;" horiz-adv-x="1116" d="M1014 377q0 -183 -134.5 -290t-380 -107t-388.5 59v102q158 -67 403 -67q180 0 285.5 82.5t105.5 216.5q0 83 -35 137.5t-114 99.5t-267.5 109.5t-274 154t-85.5 246t128.5 260t332.5 103.5t385 -78l-37 -88q-182 76 -346 76t-260 -75t-96 -204q0 -81 29.5 -133 t96.5 -93.5t234 -100t253 -114t125.5 -126t39.5 -170.5zM461 -403q160 0 160 108q0 94 -193 121l93 174h96l-66 -117q168 -37 168 -174q0 -100 -67.5 -150.5t-188.5 -50.5q-68 0 -94 11v88q30 -10 92 -10z" />
<glyph unicode="&#x15f;" horiz-adv-x="954" d="M745 58.5q-111 -78.5 -322 -78.5t-339 67v107q164 -82 335.5 -82t255 53.5t83.5 139t-66.5 141.5t-224 112.5t-223.5 99.5q-133 85 -133 216.5t102.5 202.5t282.5 71t338 -66l-37 -90q-160 66 -295 66t-213 -44t-78 -125.5t60.5 -132.5t222 -109t228.5 -101 q134 -84 134 -226.5t-111 -221zM371 -403q160 0 160 108q0 94 -193 121l93 174h96l-66 -117q168 -37 168 -174q0 -100 -67.5 -150.5t-188.5 -50.5q-68 0 -94 11v88q30 -10 92 -10z" />
<glyph unicode="&#x160;" horiz-adv-x="1116" d="M1014 377q0 -183 -134.5 -290t-380 -107t-388.5 59v102q158 -67 403 -67q180 0 285.5 82.5t105.5 216.5q0 83 -35 137.5t-114 99.5t-267.5 109.5t-274 154t-85.5 246t128.5 260t332.5 103.5t385 -78l-37 -88q-182 76 -346 76t-260 -75t-96 -204q0 -81 29.5 -133 t96.5 -93.5t234 -100t253 -114t125.5 -126t39.5 -170.5zM859 1890q-170 -188 -242 -311h-98q-76 128 -242 311v17h70q114 -94 221 -207q108 114 221 207h70v-17z" />
<glyph unicode="&#x161;" horiz-adv-x="954" d="M745 58.5q-111 -78.5 -322 -78.5t-339 67v107q164 -82 335.5 -82t255 53.5t83.5 139t-66.5 141.5t-224 112.5t-223.5 99.5q-133 85 -133 216.5t102.5 202.5t282.5 71t338 -66l-37 -90q-160 66 -295 66t-213 -44t-78 -125.5t60.5 -132.5t222 -109t228.5 -101 q134 -84 134 -226.5t-111 -221zM759 1552q-170 -188 -242 -311h-98q-76 128 -242 311v17h70q114 -94 221 -207q108 114 221 207h70v-17z" />
<glyph unicode="&#x162;" horiz-adv-x="1073" d="M588 0h-103v1366h-475v96h1053v-96h-475v-1366zM428 -403q160 0 160 108q0 94 -193 121l93 174h96l-66 -117q168 -37 168 -174q0 -100 -67.5 -150.5t-188.5 -50.5q-68 0 -94 11v88q30 -10 92 -10z" />
<glyph unicode="&#x163;" horiz-adv-x="686" d="M469 68q94 0 164 16v-80q-72 -24 -166 -24q-144 0 -212.5 77t-68.5 242v702h-161v58l161 45l50 246h51v-263h319v-86h-319v-688q0 -125 44 -185t138 -60zM332 -403q160 0 160 108q0 94 -193 121l93 174h96l-66 -117q168 -37 168 -174q0 -100 -67.5 -150.5t-188.5 -50.5 q-68 0 -94 11v88q30 -10 92 -10z" />
<glyph unicode="&#x164;" horiz-adv-x="1073" d="M588 0h-103v1366h-475v96h1053v-96h-475v-1366zM829 1890q-170 -188 -242 -311h-98q-76 128 -242 311v17h70q114 -94 221 -207q108 114 221 207h70v-17z" />
<glyph unicode="&#x165;" horiz-adv-x="686" d="M469 68q94 0 164 16v-80q-72 -24 -166 -24q-144 0 -212.5 77t-68.5 242v702h-161v58l161 45l50 246h51v-263h319v-86h-319v-688q0 -125 44 -185t138 -60zM678 1542q-39 -154 -145 -313h-53v16q21 45 48 139.5t38 171.5h112v-14z" />
<glyph unicode="&#x166;" horiz-adv-x="1073" d="M588 793h354v-95h-354v-698h-103v698h-358v95h358v573h-475v96h1053v-96h-475v-573z" />
<glyph unicode="&#x167;" horiz-adv-x="686" d="M41 688h145v313h-161v58l161 45l50 246h51v-263h319v-86h-319v-313h309v-86h-309v-289q0 -125 44 -185t138 -60t164 16v-80q-72 -24 -166 -24q-144 0 -212.5 77t-68.5 242v303h-145v86z" />
<glyph unicode="&#x168;" horiz-adv-x="1473" d="M1282 1462v-946q0 -252 -146 -394t-403.5 -142t-400 142.5t-142.5 397.5v942h103v-946q0 -211 117 -328.5t328.5 -117.5t326.5 115.5t115 320.5v956h102zM893 1663q93 0 125 156h76q-16 -116 -69 -177t-132 -61q-71 0 -176 90q-32 26 -62.5 46t-69.5 20q-84 0 -116 -156 h-73q10 111 63 174.5t137 63.5q48 0 88 -25t78 -56t70 -53t61 -22z" />
<glyph unicode="&#x169;" horiz-adv-x="1208" d="M268 1087v-704q0 -164 69 -238.5t214 -74.5q194 0 285.5 98t91.5 319v600h98v-1087h-84l-18 150h-6q-106 -170 -377 -170q-371 0 -371 397v710h98zM765 1325q93 0 125 156h76q-16 -116 -69 -177t-132 -61q-71 0 -176 90q-32 26 -62.5 46t-69.5 20q-84 0 -116 -156h-73 q10 111 63 174.5t137 63.5q48 0 88 -25t78 -56t70 -53t61 -22z" />
<glyph unicode="&#x16a;" horiz-adv-x="1473" d="M1282 1462v-946q0 -252 -146 -394t-403.5 -142t-400 142.5t-142.5 397.5v942h103v-946q0 -211 117 -328.5t328.5 -117.5t326.5 115.5t115 320.5v956h102zM459 1671h555v-82h-555v82z" />
<glyph unicode="&#x16b;" horiz-adv-x="1208" d="M268 1087v-704q0 -164 69 -238.5t214 -74.5q194 0 285.5 98t91.5 319v600h98v-1087h-84l-18 150h-6q-106 -170 -377 -170q-371 0 -371 397v710h98zM328 1333h555v-82h-555v82z" />
<glyph unicode="&#x16c;" horiz-adv-x="1473" d="M1282 1462v-946q0 -252 -146 -394t-403.5 -142t-400 142.5t-142.5 397.5v942h103v-946q0 -211 117 -328.5t328.5 -117.5t326.5 115.5t115 320.5v956h102zM1011 1825q-30 -246 -280.5 -246t-272.5 246h82q14 -87 60.5 -124.5t134.5 -37.5t134.5 37.5t61.5 124.5h80z" />
<glyph unicode="&#x16d;" horiz-adv-x="1208" d="M268 1087v-704q0 -164 69 -238.5t214 -74.5q194 0 285.5 98t91.5 319v600h98v-1087h-84l-18 150h-6q-106 -170 -377 -170q-371 0 -371 397v710h98zM880 1487q-30 -246 -280.5 -246t-272.5 246h82q14 -87 60.5 -124.5t134.5 -37.5t134.5 37.5t61.5 124.5h80z" />
<glyph unicode="&#x16e;" horiz-adv-x="1473" d="M1282 1462v-946q0 -252 -146 -394t-403.5 -142t-400 142.5t-142.5 397.5v942h103v-946q0 -211 117 -328.5t328.5 -117.5t326.5 115.5t115 320.5v956h102zM892 1946q60 -59 60 -154t-60 -153t-157 -58t-157 58t-60 153.5t60 154t157 58.5t157 -59zM635.5 1895 q-37.5 -38 -37.5 -102.5t37.5 -102t99.5 -37.5t99.5 37.5t37.5 102.5t-39 102.5t-99.5 37.5t-98 -38z" />
<glyph unicode="&#x16f;" horiz-adv-x="1208" d="M268 1087v-704q0 -164 69 -238.5t214 -74.5q194 0 285.5 98t91.5 319v600h98v-1087h-84l-18 150h-6q-106 -170 -377 -170q-371 0 -371 397v710h98zM761 1608q60 -59 60 -154t-60 -153t-157 -58t-157 58t-60 153.5t60 154t157 58.5t157 -59zM504.5 1557 q-37.5 -38 -37.5 -102.5t37.5 -102t99.5 -37.5t99.5 37.5t37.5 102.5t-39 102.5t-99.5 37.5t-98 -38z" />
<glyph unicode="&#x170;" horiz-adv-x="1473" d="M1282 1462v-946q0 -252 -146 -394t-403.5 -142t-400 142.5t-142.5 397.5v942h103v-946q0 -211 117 -328.5t328.5 -117.5t326.5 115.5t115 320.5v956h102zM475 1595q31 33 67 90t121 222h136v-17q-135 -202 -254 -311h-70v16zM813 1595q31 33 67 90t121 222h136v-17 q-135 -202 -254 -311h-70v16z" />
<glyph unicode="&#x171;" horiz-adv-x="1208" d="M268 1087v-704q0 -164 69 -238.5t214 -74.5q194 0 285.5 98t91.5 319v600h98v-1087h-84l-18 150h-6q-106 -170 -377 -170q-371 0 -371 397v710h98zM346 1257q31 33 67 90t121 222h136v-17q-135 -202 -254 -311h-70v16zM684 1257q31 33 67 90t121 222h136v-17 q-135 -202 -254 -311h-70v16z" />
<glyph unicode="&#x172;" horiz-adv-x="1473" d="M1282 1462v-946q0 -252 -146 -394t-403.5 -142t-400 142.5t-142.5 397.5v942h103v-946q0 -211 117 -328.5t328.5 -117.5t326.5 115.5t115 320.5v956h102zM598 -264q0 146 152 264h90q-72 -63 -107.5 -119.5t-35.5 -128.5q0 -110 106 -110q49 0 82 12v-84 q-40 -16 -114 -16t-123.5 47.5t-49.5 134.5z" />
<glyph unicode="&#x173;" horiz-adv-x="1208" d="M541 -20q-371 0 -371 397v710h98v-704q0 -164 69 -238.5t214 -74.5q194 0 285.5 98t91.5 319v600h98v-1087q-72 -63 -107.5 -119.5t-35.5 -128.5q0 -110 106 -110q49 0 82 12v-84q-40 -16 -114 -16t-123.5 47.5t-49.5 134.5q0 147 157 268l-17 146h-6 q-106 -170 -377 -170z" />
<glyph unicode="&#x174;" horiz-adv-x="1827" d="M1372 0h-84l-321 1128q-40 139 -60 228q-16 -87 -45.5 -200t-322.5 -1156h-86l-402 1462h107l256 -942q15 -57 28 -105.5t24 -90.5q21 -87 34 -162q24 136 102 413l250 887h113l293 -1018q51 -176 73 -284q13 72 33.5 153t308.5 1149h103zM618 1595q151 163 242 312h98 q68 -120 242 -312v-16h-70q-122 101 -221 207q-108 -114 -221 -207h-70v16z" />
<glyph unicode="&#x175;" horiz-adv-x="1481" d="M1051 0l-238 727q-23 74 -59 217h-6l-66 -219l-242 -725h-98l-311 1087h106l174 -630q61 -234 80 -344h6q59 234 86 311l224 663h90l213 -661q72 -235 88 -311h6q8 65 80 348l166 624h100l-295 -1087h-104zM459 1257q151 163 242 312h98q68 -120 242 -312v-16h-70 q-122 101 -221 207q-108 -114 -221 -207h-70v16z" />
<glyph unicode="&#x176;" horiz-adv-x="1081" d="M543 662l428 800h110l-487 -897v-565h-105v557l-489 905h117zM251 1595q151 163 242 312h98q68 -120 242 -312v-16h-70q-122 101 -221 207q-108 -114 -221 -207h-70v16z" />
<glyph unicode="&#x177;" horiz-adv-x="940" d="M0 1087h102l230 -610q105 -281 133 -379h6q42 129 137 385l230 604h102l-487 -1263q-59 -154 -99 -208q-80 -108 -223 -108q-57 0 -127 21v86q58 -16 117 -16t98 24t71 75q39 63 126 302zM179 1257q151 163 242 312h98q68 -120 242 -312v-16h-70q-122 101 -221 207 q-108 -114 -221 -207h-70v16z" />
<glyph unicode="&#x178;" horiz-adv-x="1081" d="M543 662l428 800h110l-487 -897v-565h-105v557l-489 905h117zM288 1727q0 86 63.5 86t63.5 -86t-63.5 -86t-63.5 86zM669 1727q0 86 63.5 86t63.5 -86t-63.5 -86t-63.5 86z" />
<glyph unicode="&#x179;" horiz-adv-x="1180" d="M1098 0h-1016v76l856 1290h-817v96h954v-76l-858 -1290h881v-96zM864 1890q-81 -117 -313 -311h-70v16q73 79 144.5 171.5t97.5 140.5h141v-17z" />
<glyph unicode="&#x17a;" horiz-adv-x="944" d="M858 0h-776v63l645 936h-598v88h727v-63l-649 -936h651v-88zM763 1552q-81 -117 -313 -311h-70v16q73 79 144.5 171.5t97.5 140.5h141v-17z" />
<glyph unicode="&#x17b;" horiz-adv-x="1180" d="M1098 0h-1016v76l856 1290h-817v96h954v-76l-858 -1290h881v-96zM590 1630q-64 0 -64 96.5t64.5 96.5t64.5 -96q0 -45 -17 -71t-48 -26z" />
<glyph unicode="&#x17c;" horiz-adv-x="944" d="M858 0h-776v63l645 936h-598v88h727v-63l-649 -936h651v-88zM490 1292q-64 0 -64 96.5t64.5 96.5t64.5 -96q0 -45 -17 -71t-48 -26z" />
<glyph unicode="&#x17d;" horiz-adv-x="1180" d="M1098 0h-1016v76l856 1290h-817v96h954v-76l-858 -1290h881v-96zM891 1890q-170 -188 -242 -311h-98q-76 128 -242 311v17h70q114 -94 221 -207q108 114 221 207h70v-17z" />
<glyph unicode="&#x17e;" horiz-adv-x="944" d="M858 0h-776v63l645 936h-598v88h727v-63l-649 -936h651v-88zM780 1552q-170 -188 -242 -311h-98q-76 128 -242 311v17h70q114 -94 221 -207q108 114 221 207h70v-17z" />
<glyph unicode="&#x17f;" horiz-adv-x="627" d="M281 0h-99v1180q0 203 74.5 295t239.5 92q90 0 180 -27l-23 -86q-80 25 -159 25q-116 0 -164.5 -68.5t-48.5 -222.5v-1188z" />
<glyph unicode="&#x192;" d="M303 854v59l207 37v146q0 201 76.5 294t240.5 93q82 0 183 -31l-25 -86q-89 29 -160 29q-115 0 -166 -67.5t-51 -223.5v-162h281v-88h-281v-1028q0 -155 -71 -236.5t-207 -81.5q-85 0 -140 19v90q78 -18 144 -18q176 0 176 217v1038h-207z" />
<glyph unicode="&#x1a0;" horiz-adv-x="1565" d="M1561 1538q-19 -282 -232 -352q107 -182 107 -453q0 -348 -174 -550.5t-479.5 -202.5t-479.5 202.5t-174 552t175.5 550t492.5 200.5t487 -230q81 21 120.5 92t39.5 209h104zM381.5 1216q-141.5 -170 -141.5 -483.5t140 -485t403 -171.5t402.5 170t139.5 486.5 t-139.5 485t-401 168.5t-403 -170z" />
<glyph unicode="&#x1a1;" horiz-adv-x="1200" d="M1081 545q0 -266 -129 -415.5t-356 -149.5q-143 0 -252 69t-167 198t-58 298q0 266 129 414.5t351 148.5t351 -147q72 24 107.5 92t38.5 202h100l12 -18q-11 -144 -62 -225t-147 -119q82 -137 82 -348zM320.5 894.5q-97.5 -123.5 -97.5 -348.5t98.5 -350.5t278.5 -125.5 t278.5 125.5t98.5 350t-99.5 348.5t-279.5 124t-277.5 -123.5z" />
<glyph unicode="&#x1af;" horiz-adv-x="1497" d="M1282 1462v-207q89 19 130.5 89t41.5 212h105l12 -18q-12 -167 -85.5 -254.5t-203.5 -112.5v-655q0 -252 -146 -394t-403.5 -142t-400 142.5t-142.5 397.5v942h103v-946q0 -211 117 -328.5t328.5 -117.5t326.5 115.5t115 320.5v956h102z" />
<glyph unicode="&#x1b0;" horiz-adv-x="1262" d="M268 1087v-704q0 -164 72.5 -238.5t243 -74.5t257.5 99t87 318v600h98v-122q127 21 160 134q16 57 16 167h101l12 -19q-9 -123 -41 -190q-69 -145 -248 -176v-881h-84l-18 150h-6q-52 -82 -143.5 -126t-209.5 -44q-201 0 -298 98t-97 299v710h98z" />
<glyph unicode="&#x1f0;" horiz-adv-x="463" d="M37 -492q-80 0 -135 25v86q69 -20 129 -20q151 0 151 176v1312h99v-1298q0 -135 -63.5 -208t-180.5 -73zM524 1552q-170 -188 -242 -311h-98q-76 128 -242 311v17h70q114 -94 221 -207q108 114 221 207h70v-17z" />
<glyph unicode="&#x1fa;" horiz-adv-x="1229" d="M776 1564q60 -58 60 -146q0 -168 -150 -212l553 -1206h-115l-200 446h-617l-209 -446h-110l565 1206q-68 17 -110 69t-42 141t60 147.5t157.5 58.5t157.5 -58zM885 539l-207 454q-24 52 -60 154q-23 -70 -63 -160l-209 -448h539zM519.5 1512q-38.5 -38 -38.5 -102.5 t38 -102t99.5 -37.5t99.5 37.5t38 102.5t-39 102.5t-99 37.5t-98.5 -38zM561 1690q103 111 191 272h141v-16q-44 -61 -121.5 -141t-140.5 -132h-70v17z" />
<glyph unicode="&#x1fb;" horiz-adv-x="1085" d="M842 0l-25 172h-8q-82 -105 -168.5 -148.5t-225.5 -43.5t-228 82t-89 234t132.5 240t383.5 93l207 6v72q0 155 -63 234t-208.5 79t-307.5 -84l-37 86q179 84 356 84t265.5 -93t88.5 -290v-723h-73zM442 70q174 0 274.5 99.5t100.5 276.5v107l-190 -8 q-229 -11 -326.5 -71.5t-97.5 -175.5t62.5 -171.5t176.5 -56.5zM467 1712q97 101 188 250h138v-14q-35 -45 -112.5 -120t-145.5 -128h-68v12zM698 1565q60 -59 60 -154t-60 -153t-157 -58t-157 58t-60 153.5t60 154t157 58.5t157 -59zM442 1514.5q-39 -37.5 -39 -102.5 t38 -102.5t100 -37.5t99.5 37.5t37.5 102.5t-39 102.5t-98.5 37.5t-98.5 -37.5z" />
<glyph unicode="&#x1fc;" horiz-adv-x="1653" d="M1528 0h-717v516h-475l-227 -516h-111l653 1462h877v-94h-615v-553h576v-94h-576v-627h615v-94zM377 608h434v760h-100zM1274 1890q-81 -117 -313 -311h-70v16q73 79 144.5 171.5t97.5 140.5h141v-17z" />
<glyph unicode="&#x1fd;" horiz-adv-x="1731" d="M1243 -20q-295 0 -397 256q-68 -133 -168 -194.5t-254 -61.5t-240 82.5t-86 231.5t125 238t377 97l201 6v72q0 155 -61.5 234t-204 79t-299.5 -84l-37 86q173 84 346 84q261 0 325 -211q111 213 347 213q184 0 289.5 -134.5t105.5 -363.5v-80h-715q0 -460 348 -460 q85 0 150 12t174 57v-90q-92 -41 -165 -55t-161 -14zM434 70q169 0 266 99.5t97 276.5v107l-187 -8q-219 -11 -313 -71.5t-94 -175.5t61 -171.5t170 -56.5zM1217 1020q-284 0 -314 -402h604q0 188 -77.5 295t-212.5 107zM1157 1552q-81 -117 -313 -311h-70v16 q73 79 144.5 171.5t97.5 140.5h141v-17z" />
<glyph unicode="&#x1fe;" horiz-adv-x="1565" d="M1245 1303q191 -207 191 -562.5t-174 -558t-480 -202.5q-236 0 -395 120l-86 -120l-74 59l90 127q-188 200 -188 559t175.5 559.5t479.5 200.5q232 0 392 -121l108 152l72 -60zM1185.5 246q139.5 170 139.5 486t-139 487l-742 -1037q133 -106 338 -106q264 0 403.5 170z M381.5 1216q-141.5 -170 -141.5 -482.5t139 -483.5l739 1034q-133 102 -334 102q-261 0 -402.5 -170zM1069 1890q-81 -117 -313 -311h-70v16q73 79 144.5 171.5t97.5 140.5h141v-17z" />
<glyph unicode="&#x1ff;" horiz-adv-x="1200" d="M969 936q112 -147 112 -402t-129 -404.5t-356 -149.5q-173 0 -291 98l-86 -113l-72 58l93 120q-121 153 -121 410.5t129 406t354 148.5q179 0 301 -104l96 124l74 -55zM320.5 894.5q-97.5 -123.5 -97.5 -336.5t78 -335l543 705q-98 90 -262 90t-261.5 -123.5z M878.5 195.5q98.5 125.5 98.5 332.5t-72 326l-543 -702q94 -82 238 -82q180 0 278.5 125.5zM882 1552q-81 -117 -313 -311h-70v16q73 79 144.5 171.5t97.5 140.5h141v-17z" />
<glyph unicode="&#x218;" horiz-adv-x="1116" d="M1014 377q0 -183 -134.5 -290t-380 -107t-388.5 59v102q158 -67 403 -67q180 0 285.5 82.5t105.5 216.5q0 83 -35 137.5t-114 99.5t-267.5 109.5t-274 154t-85.5 246t128.5 260t332.5 103.5t385 -78l-37 -88q-182 76 -346 76t-260 -75t-96 -204q0 -81 29.5 -133 t96.5 -93.5t234 -100t253 -114t125.5 -126t39.5 -170.5zM627 -139q-47 -169 -145 -314h-54v17q59 128 86 311h113v-14z" />
<glyph unicode="&#x219;" horiz-adv-x="954" d="M745 58.5q-111 -78.5 -322 -78.5t-339 67v107q164 -82 335.5 -82t255 53.5t83.5 139t-66.5 141.5t-224 112.5t-223.5 99.5q-133 85 -133 216.5t102.5 202.5t282.5 71t338 -66l-37 -90q-160 66 -295 66t-213 -44t-78 -125.5t60.5 -132.5t222 -109t228.5 -101 q134 -84 134 -226.5t-111 -221zM525 -139q-47 -169 -145 -314h-54v17q59 128 86 311h113v-14z" />
<glyph unicode="&#x21a;" horiz-adv-x="1073" d="M588 0h-103v1366h-475v96h1053v-96h-475v-1366zM602 -139q-47 -169 -145 -314h-54v17q59 128 86 311h113v-14z" />
<glyph unicode="&#x21b;" horiz-adv-x="686" d="M469 68q94 0 164 16v-80q-72 -24 -166 -24q-144 0 -212.5 77t-68.5 242v702h-161v58l161 45l50 246h51v-263h319v-86h-319v-688q0 -125 44 -185t138 -60zM462 -139q-47 -169 -145 -314h-54v17q59 128 86 311h113v-14z" />
<glyph unicode="&#x237;" horiz-adv-x="463" d="M37 -492q-80 0 -135 25v86q69 -20 129 -20q151 0 151 176v1312h99v-1298q0 -135 -63.5 -208t-180.5 -73z" />
<glyph unicode="&#x2bc;" horiz-adv-x="297" d="M29 961q70 231 110 501h117l12 -20q-75 -265 -174 -481h-65z" />
<glyph unicode="&#x2c6;" horiz-adv-x="1182" d="M299 1257q151 163 242 312h98q68 -120 242 -312v-16h-70q-122 101 -221 207q-108 -114 -221 -207h-70v16z" />
<glyph unicode="&#x2c7;" horiz-adv-x="1182" d="M881 1552q-170 -188 -242 -311h-98q-76 128 -242 311v17h70q114 -94 221 -207q108 114 221 207h70v-17z" />
<glyph unicode="&#x2c9;" horiz-adv-x="1141" d="M293 1333h555v-82h-555v82z" />
<glyph unicode="&#x2d8;" horiz-adv-x="1182" d="M864 1487q-30 -246 -280.5 -246t-272.5 246h82q14 -87 60.5 -124.5t134.5 -37.5t134.5 37.5t61.5 124.5h80z" />
<glyph unicode="&#x2d9;" horiz-adv-x="483" d="M242 1292q-64 0 -64 96.5t64.5 96.5t64.5 -96q0 -45 -17 -71t-48 -26z" />
<glyph unicode="&#x2da;" horiz-adv-x="1182" d="M745 1608q60 -59 60 -154t-60 -153t-157 -58t-157 58t-60 153.5t60 154t157 58.5t157 -59zM488.5 1557q-37.5 -38 -37.5 -102.5t37.5 -102t99.5 -37.5t99.5 37.5t37.5 102.5t-39 102.5t-99.5 37.5t-98 -38z" />
<glyph unicode="&#x2db;" horiz-adv-x="356" d="M63 -264q0 146 152 264h90q-72 -63 -107.5 -119.5t-35.5 -128.5q0 -110 106 -110q49 0 82 12v-84q-40 -16 -114 -16t-123.5 47.5t-49.5 134.5z" />
<glyph unicode="&#x2dc;" horiz-adv-x="1182" d="M780 1325q93 0 125 156h76q-16 -116 -69 -177t-132 -61q-71 0 -176 90q-32 26 -62.5 46t-69.5 20q-84 0 -116 -156h-73q10 111 63 174.5t137 63.5q48 0 88 -25t78 -56t70 -53t61 -22z" />
<glyph unicode="&#x2dd;" horiz-adv-x="1182" d="M258 1257q31 33 67 90t121 222h136v-17q-135 -202 -254 -311h-70v16zM596 1257q31 33 67 90t121 222h136v-17q-135 -202 -254 -311h-70v16z" />
<glyph unicode="&#x2f3;" horiz-adv-x="682" d="M497 -186q60 -59 60 -154t-60 -153t-157 -58t-157 58t-60 153.5t60 154t157 58.5t157 -59zM240.5 -237q-37.5 -38 -37.5 -102.5t37.5 -102t99.5 -37.5t99.5 37.5t37.5 102.5t-39 102.5t-99.5 37.5t-98 -38z" />
<glyph unicode="&#x300;" horiz-adv-x="0" d="M-501 1241h-69q-96 79 -188.5 171.5t-125.5 139.5v17h142q26 -48 98.5 -142t142.5 -170v-16z" />
<glyph unicode="&#x301;" horiz-adv-x="0" d="M-325 1552q-81 -117 -313 -311h-70v16q73 79 144.5 171.5t97.5 140.5h141v-17z" />
<glyph unicode="&#x303;" horiz-adv-x="0" d="M-446 1325q93 0 125 156h76q-16 -116 -69 -177t-132 -61q-71 0 -176 90q-32 26 -62.5 46t-69.5 20q-84 0 -116 -156h-73q10 111 63 174.5t137 63.5q48 0 88 -25t78 -56t70 -53t61 -22z" />
<glyph unicode="&#x309;" horiz-adv-x="0" d="M-510 1501q0 96 -145 96q-48 0 -93 -8v78q52 12 107 12q108 0 168.5 -45.5t60.5 -128.5q0 -140 -168 -176l-10 -121h-80l-10 178q170 29 170 115z" />
<glyph unicode="&#x30f;" horiz-adv-x="0" d="M-539 1569q125 -244 189 -312v-16h-70q-57 50 -131.5 142.5t-122.5 168.5v17h135zM-877 1569q126 -245 189 -312v-16h-70q-57 50 -131.5 142.5t-122.5 168.5v17h135z" />
<glyph unicode="&#x323;" horiz-adv-x="0" d="M-598 -324q-64 0 -64 96.5t65 96.5t65 -96q0 -45 -17.5 -71t-48.5 -26z" />
<glyph unicode="&#x384;" horiz-adv-x="1182" d="M530 1257q69 179 99 394h119v-17q-18 -77 -63 -191t-97 -202h-58v16z" />
<glyph unicode="&#x385;" horiz-adv-x="1182" d="M526 1405q75 164 115 311h117v-18q-21 -52 -72.5 -145t-101.5 -164h-58v16zM309 1389q0 86 63.5 86t63.5 -86t-63.5 -86t-63.5 86zM745 1389q0 86 63.5 86t63.5 -86t-63.5 -86t-63.5 86z" />
<glyph unicode="&#x386;" horiz-adv-x="1229" d="M911 516h-594l-204 -516h-113l588 1468h65l576 -1468h-115zM354 608h523l-199 527q-25 62 -60 172q-27 -96 -59 -174zM76 1152q69 179 99 394h119v-17q-18 -77 -63 -191t-97 -202h-58v16z" />
<glyph unicode="&#x387;" horiz-adv-x="487" d="M162 721q0 98 81 98t81 -98t-81 -98t-81 98z" />
<glyph unicode="&#x388;" horiz-adv-x="1221" d="M1096 0h-799v1462h799v-94h-697v-553h658v-94h-658v-627h697v-94zM-40 1152q69 179 99 394h119v-17q-18 -77 -63 -191t-97 -202h-58v16z" />
<glyph unicode="&#x389;" horiz-adv-x="1563" d="M1356 0h-103v719h-854v-719h-102v1462h102v-649h854v649h103v-1462zM-40 1152q69 179 99 394h119v-17q-18 -77 -63 -191t-97 -202h-58v16z" />
<glyph unicode="&#x38a;" horiz-adv-x="602" d="M293 0v1462h102v-1462h-102zM-40 1152q69 179 99 394h119v-17q-18 -77 -63 -191t-97 -202h-58v16z" />
<glyph unicode="&#x38c;" horiz-adv-x="1577" d="M1275 1283.5q173 -201.5 173 -550t-174 -551t-479.5 -202.5t-479.5 202.5t-174 552t175.5 550t480.5 200.5t478 -201.5zM393.5 1216q-141.5 -170 -141.5 -483.5t140 -485t403 -171.5t402.5 170t139.5 486.5t-139.5 485t-401 168.5t-403 -170zM-40 1152q69 179 99 394h119 v-17q-18 -77 -63 -191t-97 -202h-58v16z" />
<glyph unicode="&#x38e;" horiz-adv-x="1321" d="M783 662l428 800h110l-487 -897v-565h-105v557l-489 905h117zM-40 1152q69 179 99 394h119v-17q-18 -77 -63 -191t-97 -202h-58v16z" />
<glyph unicode="&#x38f;" horiz-adv-x="1608" d="M1215 1241q-146 152 -399.5 152t-401.5 -151.5t-148 -395t90.5 -415t312.5 -359.5v-72h-567v94h407q-133 118 -205 224q-149 219 -149 503q0 200 80 351t229.5 232t348.5 81q311 0 485 -174t174 -488q0 -209 -80.5 -384t-269.5 -345h403v-94h-565v72q215 175 308 350 t93 421t-146 398zM-40 1152q69 179 99 394h119v-17q-18 -77 -63 -191t-97 -202h-58v16z" />
<glyph unicode="&#x390;" horiz-adv-x="629" d="M592 0q-57 -20 -139 -20q-152 0 -219.5 80t-67.5 243v784h98v-774q0 -134 46.5 -189.5t152.5 -55.5q65 0 129 16v-84zM167 1405q75 164 115 311h117v-18q-21 -52 -72.5 -145t-101.5 -164h-58v16zM-50 1389q0 86 63.5 86t63.5 -86t-63.5 -86t-63.5 86zM386 1389 q0 86 63.5 86t63.5 -86t-63.5 -86t-63.5 86z" />
<glyph unicode="&#x391;" horiz-adv-x="1229" d="M911 516h-594l-204 -516h-113l588 1468h65l576 -1468h-115zM354 608h523l-199 527q-25 62 -60 172q-27 -96 -59 -174z" />
<glyph unicode="&#x392;" horiz-adv-x="1284" d="M207 1462h401q271 0 398 -92t127 -278q0 -127 -77.5 -211.5t-226.5 -108.5v-6q175 -26 257.5 -110.5t82.5 -235.5q0 -202 -134 -311t-380 -109h-448v1462zM309 811h322q206 0 299.5 68.5t93.5 214.5t-105.5 212t-314.5 66h-295v-561zM309 721v-631h344q406 0 406 330 q0 301 -428 301h-322z" />
<glyph unicode="&#x393;" horiz-adv-x="1028" d="M309 0h-102v1462h801v-94h-699v-1368z" />
<glyph unicode="&#x394;" d="M20 59l521 1403h80l528 -1405v-57h-1129v59zM580 1315q-53 -153 -441 -1219h889q-391 1054 -448 1219z" />
<glyph unicode="&#x395;" horiz-adv-x="1130" d="M1006 0h-799v1462h799v-94h-697v-553h658v-94h-658v-627h697v-94z" />
<glyph unicode="&#x396;" horiz-adv-x="1180" d="M1098 0h-1016v76l856 1290h-817v96h954v-76l-858 -1290h881v-96z" />
<glyph unicode="&#x397;" horiz-adv-x="1473" d="M1266 0h-103v719h-854v-719h-102v1462h102v-649h854v649h103v-1462z" />
<glyph unicode="&#x398;" horiz-adv-x="1565" d="M449 793h665v-95h-665v95zM1263 1283.5q173 -201.5 173 -550t-174 -551t-479.5 -202.5t-479.5 202.5t-174 552t175.5 550t480.5 200.5t478 -201.5zM381.5 1216q-141.5 -170 -141.5 -483.5t140 -485t403 -171.5t402.5 170t139.5 486.5t-139.5 485t-401 168.5t-403 -170z " />
<glyph unicode="&#x399;" horiz-adv-x="516" d="M207 0v1462h102v-1462h-102z" />
<glyph unicode="&#x39a;" horiz-adv-x="1190" d="M1190 0h-125l-561 772l-195 -172v-600h-102v1462h102v-760l162 162l573 598h130l-599 -618z" />
<glyph unicode="&#x39b;" horiz-adv-x="1229" d="M113 0h-113l596 1468h49l584 -1468h-115l-436 1120q-23 60 -60 172q-29 -100 -59 -174z" />
<glyph unicode="&#x39c;" horiz-adv-x="1767" d="M850 0l-545 1350h-8q8 -124 8 -254v-1096h-98v1462h158l518 -1286h6l518 1286h154v-1462h-103v1108q0 116 12 240h-8l-547 -1348h-65z" />
<glyph unicode="&#x39d;" horiz-adv-x="1477" d="M1270 0h-103l-866 1298h-8q12 -232 12 -350v-948h-98v1462h102l865 -1296h6q-9 180 -9 342v954h99v-1462z" />
<glyph unicode="&#x39e;" horiz-adv-x="1087" d="M164 815h760v-94h-760v94zM82 1462h924v-94h-924v94zM1047 94v-94h-1006v94h1006z" />
<glyph unicode="&#x39f;" horiz-adv-x="1565" d="M1263 1283.5q173 -201.5 173 -550t-174 -551t-479.5 -202.5t-479.5 202.5t-174 552t175.5 550t480.5 200.5t478 -201.5zM381.5 1216q-141.5 -170 -141.5 -483.5t140 -485t403 -171.5t402.5 170t139.5 486.5t-139.5 485t-401 168.5t-403 -170z" />
<glyph unicode="&#x3a0;" horiz-adv-x="1462" d="M1255 0h-102v1366h-844v-1366h-102v1462h1048v-1462z" />
<glyph unicode="&#x3a1;" horiz-adv-x="1198" d="M1087 1042q0 -212 -144 -325t-408 -113h-226v-604h-102v1462h358q522 0 522 -420zM309 692h201q247 0 357 81.5t110 257.5t-104 257.5t-322 81.5h-242v-678z" />
<glyph unicode="&#x3a3;" horiz-adv-x="1128" d="M61 0v84l533 676l-520 620v82h964v-94h-647l-182 2l514 -604l-530 -672h905v-94h-1037z" />
<glyph unicode="&#x3a4;" horiz-adv-x="1073" d="M588 0h-103v1366h-475v96h1053v-96h-475v-1366z" />
<glyph unicode="&#x3a5;" horiz-adv-x="1081" d="M543 662l428 800h110l-487 -897v-565h-105v557l-489 905h117z" />
<glyph unicode="&#x3a6;" horiz-adv-x="1561" d="M729 1483h102v-180h43q275 0 425.5 -141t150.5 -392q0 -358 -276 -496q-136 -69 -332 -69h-11v-225h-102v225h-18q-193 0 -327 68q-273 138 -273 485q0 156 70 281.5t201 194.5t310 69h37v180zM831 289h15q236 0 364.5 124.5t128.5 348t-120 340.5t-345 117h-43v-930z M729 1219h-41q-219 0 -343 -122t-124 -341t128.5 -343t363.5 -124h16v930z" />
<glyph unicode="&#x3a7;" horiz-adv-x="1102" d="M1102 0h-117l-432 682l-440 -682h-113l492 762l-447 700h115l395 -626l401 626h109l-453 -698z" />
<glyph unicode="&#x3a8;" horiz-adv-x="1565" d="M1421 979q0 -526 -571 -526h-27v-453h-102v453h-27q-571 0 -571 526v483h102v-479q0 -226 117 -333t356 -107h23v919h102v-919h23q239 0 356 107t117 333v479h102v-483z" />
<glyph unicode="&#x3a9;" horiz-adv-x="1587" d="M1195 1241q-146 152 -399.5 152t-401.5 -151.5t-148 -395t90.5 -415t312.5 -359.5v-72h-567v94h407q-133 118 -205 224q-149 219 -149 503q0 200 80 351t229.5 232t348.5 81q311 0 485 -174t174 -488q0 -209 -80.5 -384t-269.5 -345h403v-94h-565v72q215 175 308 350 t93 421t-146 398z" />
<glyph unicode="&#x3aa;" horiz-adv-x="516" d="M207 0v1462h102v-1462h-102zM5 1727q0 86 63.5 86t63.5 -86t-63.5 -86t-63.5 86zM386 1727q0 86 63.5 86t63.5 -86t-63.5 -86t-63.5 86z" />
<glyph unicode="&#x3ab;" horiz-adv-x="1081" d="M543 662l428 800h110l-487 -897v-565h-105v557l-489 905h117zM288 1727q0 86 63.5 86t63.5 -86t-63.5 -86t-63.5 86zM669 1727q0 86 63.5 86t63.5 -86t-63.5 -86t-63.5 86z" />
<glyph unicode="&#x3ac;" horiz-adv-x="1208" d="M578 68q180 0 265 108.5t85 353.5v35q0 237 -85.5 345t-261 108t-267 -123.5t-91.5 -353.5q0 -473 355 -473zM926 168q-121 -188 -347.5 -188t-343 143t-116.5 417t120.5 421t346.5 147q254 0 358 -234h6q4 52 18.5 119.5t24.5 93.5h74q-41 -134 -41 -391v-495 q0 -142 90 -142q37 0 64 11v-72q-29 -18 -82 -18q-146 0 -164 188h-8zM567 1257q69 179 99 394h119v-17q-18 -77 -63 -191t-97 -202h-58v16z" />
<glyph unicode="&#x3ad;" horiz-adv-x="928" d="M672 618v-86h-140q-169 0 -251 -62.5t-82 -171t87 -168.5t244 -60q76 0 140 14t174 66v-93q-135 -77 -329.5 -77t-307.5 81t-113 226q0 224 248 284v9q-215 63 -215 239q0 133 103 211t282 78q180 0 340 -68l-37 -84q-148 64 -297 64q-287 0 -287 -201t326 -201h115z M451 1257q69 179 99 394h119v-17q-18 -77 -63 -191t-97 -202h-58v16z" />
<glyph unicode="&#x3ae;" horiz-adv-x="1208" d="M940 -492v1197q0 164 -72.5 238.5t-243 74.5t-257 -99.5t-86.5 -318.5v-600h-99v1087h84l19 -149h6q54 87 147 128.5t205 41.5q201 0 298 -99t97 -298v-1203h-98zM561 1257q69 179 99 394h119v-17q-18 -77 -63 -191t-97 -202h-58v16z" />
<glyph unicode="&#x3af;" horiz-adv-x="629" d="M592 0q-57 -20 -139 -20q-152 0 -219.5 80t-67.5 243v784h98v-774q0 -134 46.5 -189.5t152.5 -55.5q65 0 129 16v-84zM171 1257q69 179 99 394h119v-17q-18 -77 -63 -191t-97 -202h-58v16z" />
<glyph unicode="&#x3b0;" horiz-adv-x="1219" d="M1024 1087q61 -228 61 -518.5t-121.5 -439.5t-351 -149t-338 125t-108.5 387v595h98v-606q0 -201 82.5 -307t267.5 -106q371 0 371 536q0 240 -59 483h98zM542 1405q75 164 115 311h117v-18q-21 -52 -72.5 -145t-101.5 -164h-58v16zM325 1389q0 86 63.5 86t63.5 -86 t-63.5 -86t-63.5 86zM761 1389q0 86 63.5 86t63.5 -86t-63.5 -86t-63.5 86z" />
<glyph unicode="&#x3b1;" horiz-adv-x="1208" d="M578 68q180 0 265 108.5t85 353.5v35q0 237 -85.5 345t-261 108t-267 -123.5t-91.5 -353.5q0 -473 355 -473zM926 168q-121 -188 -347.5 -188t-343 143t-116.5 417t120.5 421t346.5 147q254 0 358 -234h6q4 52 18.5 119.5t24.5 93.5h74q-41 -134 -41 -391v-495 q0 -142 90 -142q37 0 64 11v-72q-29 -18 -82 -18q-146 0 -164 188h-8z" />
<glyph unicode="&#x3b2;" horiz-adv-x="1245" d="M303 1442.5q121 124.5 335.5 124.5t329.5 -102t115 -283q0 -140 -72.5 -232.5t-213.5 -118.5v-6q176 -24 261 -124t85 -294t-132 -306.5t-336.5 -112.5t-393.5 100v-580h-99v1586q0 224 121 348.5zM281 170q195 -104 376 -104t286.5 91t105.5 255q0 364 -392 364h-118v88 h106q164 0 249 81.5t85 229.5t-87 226t-257 78t-262 -97t-92 -284v-928z" />
<glyph unicode="&#x3b3;" horiz-adv-x="983" d="M459 -492h-99q0 92 30 238.5t73 265.5l-453 1075h103l268 -645l125 -313h6l86 238l272 720h103l-404 -1040q-44 -116 -74.5 -269t-35.5 -270z" />
<glyph unicode="&#x3b4;" horiz-adv-x="1190" d="M573 940q-158 89 -220 169.5t-62 191.5t93.5 188.5t242.5 77.5q97 0 187.5 -20.5t213.5 -80.5l-45 -86q-112 57 -191.5 78t-175.5 21t-159.5 -50.5t-63.5 -134.5t53 -141.5t228.5 -159t250.5 -172t110.5 -153.5t35.5 -197q0 -229 -126.5 -360t-347 -131t-350.5 124.5 t-130 324.5t109.5 324t346.5 187zM967 473q0 135 -70.5 232t-237.5 182q-148 -36 -222.5 -75.5t-120.5 -91.5q-95 -109 -95 -280.5t101.5 -271.5t276 -100t271.5 104.5t97 300.5z" />
<glyph unicode="&#x3b5;" horiz-adv-x="928" d="M672 618v-86h-140q-169 0 -251 -62.5t-82 -171t87 -168.5t244 -60q76 0 140 14t174 66v-93q-135 -77 -329.5 -77t-307.5 81t-113 226q0 224 248 284v9q-215 63 -215 239q0 133 103 211t282 78q180 0 340 -68l-37 -84q-148 64 -297 64q-287 0 -287 -201t326 -201h115z" />
<glyph unicode="&#x3b6;" horiz-adv-x="956" d="M883 -129q0 -118 -113 -272h-96q114 155 114 258q0 49 -26 77q-51 53 -255 91t-296 142t-92 292q0 271 209 547q67 87 154.5 181t293.5 290q-105 -7 -364 -7h-230v86h717v-75q-256 -236 -401.5 -407.5t-210 -313.5t-64.5 -276t29 -197.5t95 -103t208.5 -70.5t206 -60 t92.5 -72t29 -110z" />
<glyph unicode="&#x3b7;" horiz-adv-x="1208" d="M940 -492v1197q0 164 -72.5 238.5t-243 74.5t-257 -99.5t-86.5 -318.5v-600h-99v1087h84l19 -149h6q54 87 147 128.5t205 41.5q201 0 298 -99t97 -298v-1203h-98z" />
<glyph unicode="&#x3b8;" horiz-adv-x="1167" d="M586 1579q463 0 463 -799.5t-469 -799.5q-461 0 -461 800q0 392 119.5 595.5t347.5 203.5zM582 68q353 0 368 692h-733q12 -692 365 -692zM845 1332.5q-91 158.5 -266 158.5t-262.5 -164.5t-99.5 -480.5h731q-12 328 -103 486.5z" />
<glyph unicode="&#x3b9;" horiz-adv-x="629" d="M592 0q-57 -20 -139 -20q-152 0 -219.5 80t-67.5 243v784h98v-774q0 -134 46.5 -189.5t152.5 -55.5q65 0 129 16v-84z" />
<glyph unicode="&#x3ba;" horiz-adv-x="991" d="M279 477l555 610h120l-428 -464l465 -623h-119l-413 549l-178 -162v-387h-99v1087h99v-311l-7 -299h5z" />
<glyph unicode="&#x3bb;" horiz-adv-x="1030" d="M-12 0l477 1092l-55 165q-35 107 -60 149q-50 83 -139 83q-44 0 -102 -12v75q63 17 122.5 17t103.5 -23t78 -76.5t81 -185.5l401 -1139q15 -43 33 -64.5t48 -21.5t54 11v-74q-30 -16 -80 -16t-83.5 32t-59.5 105l-172 489q-96 280 -123 389h-4q-32 -95 -76.5 -202 t-339.5 -793h-104z" />
<glyph unicode="&#x3bc;" horiz-adv-x="1221" d="M563 -20q-187 0 -287 112q5 -92 5 -170v-414h-99v1579h99v-704q0 -164 69 -238.5t213 -74.5q194 0 285.5 98t91.5 319v600h98v-1087h-84l-18 150h-6q-50 -77 -150 -123.5t-217 -46.5z" />
<glyph unicode="&#x3bd;" horiz-adv-x="1051" d="M100 1087q332 -895 367 -999h6q399 369 399 999h95q0 -352 -110 -607.5t-349 -479.5h-102l-408 1087h102z" />
<glyph unicode="&#x3be;" horiz-adv-x="940" d="M424 825q-236 70 -236 289q0 131 85 226.5t245 138.5q-69 -9 -248 -9h-88v86h670v-79h-16q-155 0 -286 -47t-201 -128.5t-70 -183.5q0 -254 380 -254h150v-84h-150q-200 0 -318 -96.5t-118 -255.5q0 -175 131 -250q66 -37 235 -73.5t231.5 -87.5t62.5 -159t-113 -259h-96 q114 157 114 256q0 50 -26 79q-49 53 -253 91t-297 137t-93 251.5t80 256t225 145.5v10z" />
<glyph unicode="&#x3bf;" horiz-adv-x="1200" d="M953.5 957.5q127.5 -150.5 127.5 -414.5t-129 -413.5t-356 -149.5q-143 0 -252 69t-167 198t-58 298q0 266 129 414.5t353.5 148.5t352 -150.5zM320.5 894.5q-97.5 -123.5 -97.5 -348.5t98.5 -350.5t278.5 -125.5t278.5 125.5t98.5 350t-99.5 348.5t-279.5 124 t-277.5 -123.5z" />
<glyph unicode="&#x3c0;" horiz-adv-x="1253" d="M1085 68q42 0 68 12v-84q-37 -16 -82 -16q-91 0 -142.5 58t-51.5 171v792h-533v-1001h-98v1001h-221v58l165 28h1006v-86h-221v-778q0 -155 110 -155z" />
<glyph unicode="&#x3c1;" horiz-adv-x="1196" d="M586 -20q-186 0 -316 106h-2l3 -94l3 -187v-297h-98v1059q0 268 114 404.5t336 136.5t336.5 -142t114.5 -420t-124.5 -422t-366.5 -144zM274 190q136 -122 322 -122q377 0 377 479q0 232 -85.5 351.5t-267 119.5t-264 -110.5t-82.5 -344.5v-373z" />
<glyph unicode="&#x3c2;" horiz-adv-x="973" d="M874 971q-141 47 -245 47q-406 0 -406 -504q0 -141 35 -213q69 -142 332 -197q161 -34 227 -86t66 -147q0 -77 -31 -139t-82 -133h-96q114 153 114 260q0 65 -59 100t-211.5 65t-237.5 91q-161 117 -161 398t134 438t380 157q138 0 268 -49z" />
<glyph unicode="&#x3c3;" horiz-adv-x="1202" d="M899 1001q174 -200 174 -466t-127.5 -410.5t-351.5 -144.5t-349.5 142.5t-125.5 408t149.5 411t436.5 145.5h448v-86h-254zM709 1001q-486 0 -486 -467q0 -229 97 -346.5t275 -117.5t276 116t98 318q0 297 -181 497h-79z" />
<glyph unicode="&#x3c4;" horiz-adv-x="913" d="M848 1087v-86h-430v-677q0 -131 54.5 -194.5t174.5 -63.5q75 0 146 20v-84q-57 -22 -168 -22q-153 0 -230.5 85t-77.5 246v690h-297v58l162 28h666z" />
<glyph unicode="&#x3c5;" horiz-adv-x="1219" d="M1024 1087q61 -228 61 -518.5t-121.5 -439.5t-351 -149t-338 125t-108.5 387v595h98v-606q0 -201 82.5 -307t267.5 -106q371 0 371 536q0 240 -59 483h98z" />
<glyph unicode="&#x3c6;" horiz-adv-x="1389" d="M637 -492v472q-256 17 -387 161.5t-131 423t200 525.5l80 -56q-102 -138 -139 -248t-37 -233q0 -449 414 -485v682q0 358 283 358q165 0 257.5 -140.5t92.5 -385.5q0 -180 -66 -311.5t-186.5 -205.5t-282.5 -85v-472h-98zM1112.5 319q52.5 111 52.5 288t-69.5 294 t-182.5 117q-88 0 -133 -69.5t-45 -196.5v-684q128 11 226.5 75.5t151 175.5z" />
<glyph unicode="&#x3c7;" horiz-adv-x="1053" d="M49 1085q46 17 90 17t72 -14.5t50 -43.5t42 -77t217 -545l344 665h111l-406 -765l193 -472q54 -134 79 -178q47 -82 113 -82q42 0 80 9v-76q-37 -15 -95.5 -15t-99 24.5t-74 77t-89.5 193.5l-170 428l-414 -723h-112l477 826l-228 563q-27 67 -53 96t-58 29t-69 -8v71z " />
<glyph unicode="&#x3c8;" horiz-adv-x="1477" d="M1127.5 221.5q115.5 130.5 115.5 372t-59 493.5h96q63 -226 63 -497.5t-142.5 -431t-412.5 -176.5v-474h-98v474q-257 12 -390.5 155.5t-133.5 411.5v538h98v-540q0 -221 110 -340.5t316 -132.5v1480h98v-1480q224 17 339.5 147.5z" />
<glyph unicode="&#x3c9;" horiz-adv-x="1503" d="M1262 1087q122 -256 122 -539.5t-91 -425.5t-259 -142q-113 0 -177 51.5t-99 146.5h-10q-39 -103 -104.5 -150.5t-170.5 -47.5q-168 0 -261 140t-93 425t123 542h102q-66 -154 -93.5 -286.5t-27.5 -317t67 -299t182 -114.5q230 0 230 290v324h99v-324q0 -136 58.5 -213 t175.5 -77t181 116t64 300.5t-27.5 315t-93.5 285.5h103z" />
<glyph unicode="&#x3ca;" horiz-adv-x="629" d="M592 0q-57 -20 -139 -20q-152 0 -219.5 80t-67.5 243v784h98v-774q0 -134 46.5 -189.5t152.5 -55.5q65 0 129 16v-84zM3 1389q0 86 63.5 86t63.5 -86t-63.5 -86t-63.5 86zM384 1389q0 86 63.5 86t63.5 -86t-63.5 -86t-63.5 86z" />
<glyph unicode="&#x3cb;" horiz-adv-x="1219" d="M1024 1087q61 -228 61 -518.5t-121.5 -439.5t-351 -149t-338 125t-108.5 387v595h98v-606q0 -201 82.5 -307t267.5 -106q371 0 371 536q0 240 -59 483h98zM346 1389q0 86 63.5 86t63.5 -86t-63.5 -86t-63.5 86zM727 1389q0 86 63.5 86t63.5 -86t-63.5 -86t-63.5 86z" />
<glyph unicode="&#x3cc;" horiz-adv-x="1200" d="M953.5 957.5q127.5 -150.5 127.5 -414.5t-129 -413.5t-356 -149.5q-143 0 -252 69t-167 198t-58 298q0 266 129 414.5t353.5 148.5t352 -150.5zM320.5 894.5q-97.5 -123.5 -97.5 -348.5t98.5 -350.5t278.5 -125.5t278.5 125.5t98.5 350t-99.5 348.5t-279.5 124 t-277.5 -123.5zM553 1257q69 179 99 394h119v-17q-18 -77 -63 -191t-97 -202h-58v16z" />
<glyph unicode="&#x3cd;" horiz-adv-x="1219" d="M1024 1087q61 -228 61 -518.5t-121.5 -439.5t-351 -149t-338 125t-108.5 387v595h98v-606q0 -201 82.5 -307t267.5 -106q371 0 371 536q0 240 -59 483h98zM553 1257q69 179 99 394h119v-17q-18 -77 -63 -191t-97 -202h-58v16z" />
<glyph unicode="&#x3ce;" horiz-adv-x="1503" d="M1262 1087q122 -256 122 -539.5t-91 -425.5t-259 -142q-113 0 -177 51.5t-99 146.5h-10q-39 -103 -104.5 -150.5t-170.5 -47.5q-168 0 -261 140t-93 425t123 542h102q-66 -154 -93.5 -286.5t-27.5 -317t67 -299t182 -114.5q230 0 230 290v324h99v-324q0 -136 58.5 -213 t175.5 -77t181 116t64 300.5t-27.5 315t-93.5 285.5h103zM692 1257q69 179 99 394h119v-17q-18 -77 -63 -191t-97 -202h-58v16z" />
<glyph unicode="&#x3d1;" horiz-adv-x="1208" d="M545 -20q-365 0 -365 350q0 62 15.5 181.5t15.5 165.5t-22.5 70.5t-59.5 24.5t-92 -22l-27 75q62 31 138.5 31t120.5 -47.5t44 -120t-15 -179t-15 -185.5q0 -254 258 -254q401 0 401 686q0 56 -4 108q-332 3 -511 108t-179 300q0 143 85.5 225t231.5 82q187 0 309 -161.5 t162 -465.5h142v-90h-136q5 -65 5 -104q0 -375 -130 -576.5t-372 -201.5zM930 952q-32 252 -127.5 394.5t-231.5 142.5q-108 0 -167.5 -55t-59.5 -156q0 -157 151.5 -240.5t434.5 -85.5z" />
<glyph unicode="&#x3d2;" horiz-adv-x="1104" d="M543 662l50 113q140 320 210 461t121 190t118 49q31 0 62 -11v-90q-26 6 -59.5 6t-70 -43.5t-96.5 -162.5q-122 -244 -284 -631v-543h-105v557l-489 905h117z" />
<glyph unicode="&#x3d6;" horiz-adv-x="1587" d="M1059 -20q-106 0 -174.5 49t-108.5 159h-4q-37 -107 -103 -157.5t-180 -50.5q-171 0 -259.5 114.5t-88.5 337.5q0 142 41.5 271.5t139.5 297.5h-302v58l168 28h1334v-86h-267q81 -143 116.5 -273t35.5 -296q0 -221 -88.5 -336.5t-259.5 -115.5zM1303 432q0 334 -148 569 h-737q-172 -293 -172 -569q0 -185 62.5 -273.5t182.5 -88.5t177 76t57 208v221h98v-221q0 -134 60.5 -209t167.5 -75q252 0 252 362z" />
<glyph unicode="&#x400;" horiz-adv-x="1130" d="M1006 0h-799v1462h799v-94h-697v-553h658v-94h-658v-627h697v-94zM697 1579h-69q-96 79 -188.5 171.5t-125.5 139.5v17h142q26 -48 98.5 -142t142.5 -170v-16z" />
<glyph unicode="&#x401;" horiz-adv-x="1130" d="M1006 0h-799v1462h799v-94h-697v-553h658v-94h-658v-627h697v-94zM354 1727q0 86 63.5 86t63.5 -86t-63.5 -86t-63.5 86zM735 1727q0 86 63.5 86t63.5 -86t-63.5 -86t-63.5 86z" />
<glyph unicode="&#x402;" horiz-adv-x="1425" d="M928 -20q-94 0 -142 18v100q58 -18 154.5 -18t155.5 71.5t59 204.5v160q0 146 -69.5 207t-227.5 61h-409v-784h-103v1366h-336v96h955v-96h-516v-487h438q190 0 281.5 -88t91.5 -271v-160q0 -183 -86 -281.5t-246 -98.5z" />
<glyph unicode="&#x403;" horiz-adv-x="1028" d="M309 0h-102v1462h801v-94h-699v-1368zM866 1890q-81 -117 -313 -311h-70v16q73 79 144.5 171.5t97.5 140.5h141v-17z" />
<glyph unicode="&#x404;" horiz-adv-x="1272" d="M831 1391q-256 0 -412.5 -153t-176.5 -425h776v-94h-780q6 -311 156 -478t421 -167q184 0 338 47v-90q-145 -51 -362 -51q-308 0 -485 199t-177 556q0 223 84.5 393t243 262.5t370.5 92.5t381 -80l-41 -92q-160 80 -336 80z" />
<glyph unicode="&#x405;" horiz-adv-x="1116" d="M1014 377q0 -183 -134.5 -290t-380 -107t-388.5 59v102q158 -67 403 -67q180 0 285.5 82.5t105.5 216.5q0 83 -35 137.5t-114 99.5t-267.5 109.5t-274 154t-85.5 246t128.5 260t332.5 103.5t385 -78l-37 -88q-182 76 -346 76t-260 -75t-96 -204q0 -81 29.5 -133 t96.5 -93.5t234 -100t253 -114t125.5 -126t39.5 -170.5z" />
<glyph unicode="&#x406;" horiz-adv-x="516" d="M207 0v1462h102v-1462h-102z" />
<glyph unicode="&#x407;" horiz-adv-x="516" d="M207 0v1462h102v-1462h-102zM5 1727q0 86 63.5 86t63.5 -86t-63.5 -86t-63.5 86zM386 1727q0 86 63.5 86t63.5 -86t-63.5 -86t-63.5 86z" />
<glyph unicode="&#x408;" horiz-adv-x="506" d="M-33 -369q-92 0 -151 27v88q78 -20 149 -20q242 0 242 264v1472h102v-1462q0 -369 -342 -369z" />
<glyph unicode="&#x409;" horiz-adv-x="1874" d="M1761 424q0 -205 -126 -314.5t-355 -109.5h-315v1366h-402q-71 -507 -112 -763.5t-79.5 -385.5t-97.5 -184.5t-139 -55.5t-135 25v92q61 -22 119 -22t97 51t73 185q68 265 188 1154h590v-645h195q250 0 374.5 -94t124.5 -299zM1067 90h190q202 0 298 80.5t96 247.5 t-94 238t-314 71h-176v-637z" />
<glyph unicode="&#x40a;" horiz-adv-x="1939" d="M1133 817h194q249 0 374.5 -94t125.5 -298.5t-126 -314.5t-355 -110h-316v723h-721v-723h-102v1462h102v-645h721v645h103v-645zM1133 90h190q201 0 297 79.5t96 247.5t-94 239t-313 71h-176v-637z" />
<glyph unicode="&#x40b;" horiz-adv-x="1430" d="M449 879h450q189 0 275 -85t86 -274v-520h-105v526q0 145 -60 201.5t-210 56.5h-436v-784h-103v1366h-336v96h981v-96h-542v-487z" />
<glyph unicode="&#x40c;" horiz-adv-x="1171" d="M1171 0h-139l-723 745v-745h-102v1462h102v-708l703 708h135l-707 -708zM936 1890q-81 -117 -313 -311h-70v16q73 79 144.5 171.5t97.5 140.5h141v-17z" />
<glyph unicode="&#x40d;" horiz-adv-x="1477" d="M207 1462h98v-956q0 -102 -8 -342h6l864 1298h103v-1462h-99v950q0 162 13 350h-8l-867 -1300h-102v1462zM852 1579h-69q-96 79 -188.5 171.5t-125.5 139.5v17h142q26 -48 98.5 -142t142.5 -170v-16z" />
<glyph unicode="&#x40e;" horiz-adv-x="1204" d="M441 14q-67 -34 -175.5 -34t-181.5 30v103q86 -37 170 -37t135.5 24.5t95.5 79t107 182.5l-582 1100h121l447 -854q35 -69 63 -143h4l25 61l420 936h114l-469 -1028q-45 -99 -86 -182.5t-91 -143.5t-117 -94zM623 1579q-149 0 -227 66.5t-91 214.5h88q15 -110 68 -155.5 t163.5 -45.5t164 47t65.5 154h88q-21 -281 -319 -281z" />
<glyph unicode="&#x40f;" horiz-adv-x="1462" d="M1255 0h-475v-369h-98v369h-475v1462h102v-1366h844v1366h102v-1462z" />
<glyph unicode="&#x410;" horiz-adv-x="1229" d="M911 516h-594l-204 -516h-113l588 1468h65l576 -1468h-115zM354 608h523l-199 527q-25 62 -60 172q-27 -96 -59 -174z" />
<glyph unicode="&#x411;" horiz-adv-x="1219" d="M602 817q252 0 378 -95.5t126 -299.5t-124.5 -313t-356.5 -109h-418v1462h821v-96h-719v-549h293zM309 90h299q197 0 292 79.5t95 247.5t-96 239t-311 71h-279v-637z" />
<glyph unicode="&#x412;" horiz-adv-x="1284" d="M207 1462h401q271 0 398 -92t127 -278q0 -127 -77.5 -211.5t-226.5 -108.5v-6q175 -26 257.5 -110.5t82.5 -235.5q0 -202 -134 -311t-380 -109h-448v1462zM309 811h322q206 0 299.5 68.5t93.5 214.5t-105.5 212t-314.5 66h-295v-561zM309 721v-631h344q406 0 406 330 q0 301 -428 301h-322z" />
<glyph unicode="&#x413;" horiz-adv-x="1028" d="M309 0h-102v1462h801v-94h-699v-1368z" />
<glyph unicode="&#x414;" horiz-adv-x="1337" d="M1276 -369h-98v369h-1065v-369h-99v465h105q148 257 260 652.5t125 713.5h622v-1366h150v-465zM1022 96v1270h-430q-24 -315 -126 -679t-233 -591h789z" />
<glyph unicode="&#x415;" horiz-adv-x="1130" d="M1006 0h-799v1462h799v-94h-697v-553h658v-94h-658v-627h697v-94z" />
<glyph unicode="&#x416;" horiz-adv-x="1597" d="M625 745l-592 717h127l588 -708v708h102v-708l588 708h127l-594 -710l626 -752h-135l-612 741v-741h-102v741l-613 -741h-135z" />
<glyph unicode="&#x417;" horiz-adv-x="1145" d="M920 403q0 308 -449 308h-217v96h225q212 0 313 80t101 216t-92.5 211t-222.5 75t-223 -31.5t-201 -108.5l-58 80q202 154 463 154q205 0 323.5 -98t118.5 -265q0 -286 -303 -352v-6q332 -71 332 -356q0 -201 -141.5 -313.5t-391.5 -112.5t-415 86v104q198 -96 402.5 -96 t320 86.5t115.5 242.5z" />
<glyph unicode="&#x418;" horiz-adv-x="1477" d="M207 1462h98v-956q0 -102 -8 -342h6l864 1298h103v-1462h-99v950q0 162 13 350h-8l-867 -1300h-102v1462z" />
<glyph unicode="&#x419;" horiz-adv-x="1477" d="M207 1462h98v-956q0 -102 -8 -342h6l864 1298h103v-1462h-99v950q0 162 13 350h-8l-867 -1300h-102v1462zM737 1579q-149 0 -227 66.5t-91 214.5h88q15 -110 68 -155.5t163.5 -45.5t164 47t65.5 154h88q-21 -281 -319 -281z" />
<glyph unicode="&#x41a;" horiz-adv-x="1171" d="M1171 0h-139l-723 745v-745h-102v1462h102v-708l703 708h135l-707 -708z" />
<glyph unicode="&#x41b;" horiz-adv-x="1395" d="M1188 0h-103v1366h-530q-96 -797 -165 -1076q-31 -129 -66 -192q-67 -121 -207 -121q-67 0 -117 25v92q61 -22 113 -22q87 0 135 108q85 188 221 1282h719v-1462z" />
<glyph unicode="&#x41c;" horiz-adv-x="1767" d="M850 0l-545 1350h-8q8 -124 8 -254v-1096h-98v1462h158l518 -1286h6l518 1286h154v-1462h-103v1108q0 116 12 240h-8l-547 -1348h-65z" />
<glyph unicode="&#x41d;" horiz-adv-x="1473" d="M1266 0h-103v719h-854v-719h-102v1462h102v-649h854v649h103v-1462z" />
<glyph unicode="&#x41e;" horiz-adv-x="1565" d="M1263 1283.5q173 -201.5 173 -550t-174 -551t-479.5 -202.5t-479.5 202.5t-174 552t175.5 550t480.5 200.5t478 -201.5zM381.5 1216q-141.5 -170 -141.5 -483.5t140 -485t403 -171.5t402.5 170t139.5 486.5t-139.5 485t-401 168.5t-403 -170z" />
<glyph unicode="&#x41f;" horiz-adv-x="1462" d="M1255 0h-102v1366h-844v-1366h-102v1462h1048v-1462z" />
<glyph unicode="&#x420;" horiz-adv-x="1198" d="M1087 1042q0 -212 -144 -325t-408 -113h-226v-604h-102v1462h358q522 0 522 -420zM309 692h201q247 0 357 81.5t110 257.5t-104 257.5t-322 81.5h-242v-678z" />
<glyph unicode="&#x421;" horiz-adv-x="1272" d="M831 1391q-275 0 -433 -176t-158 -485.5t149 -482.5t426 -173q184 0 338 47v-90q-145 -51 -362 -51q-308 0 -485 199t-177 556q0 223 84.5 393t243 262.5t370.5 92.5t381 -80l-41 -92q-160 80 -336 80z" />
<glyph unicode="&#x422;" horiz-adv-x="1073" d="M588 0h-103v1366h-475v96h1053v-96h-475v-1366z" />
<glyph unicode="&#x423;" horiz-adv-x="1204" d="M441 14q-67 -34 -175.5 -34t-181.5 30v103q86 -37 170 -37t135.5 24.5t95.5 79t107 182.5l-582 1100h121l447 -854q35 -69 63 -143h4l25 61l420 936h114l-469 -1028q-45 -99 -86 -182.5t-91 -143.5t-117 -94z" />
<glyph unicode="&#x424;" horiz-adv-x="1561" d="M729 1483h102v-180h43q275 0 425.5 -141t150.5 -392q0 -358 -276 -496q-136 -69 -332 -69h-11v-225h-102v225h-18q-193 0 -327 68q-273 138 -273 485q0 156 70 281.5t201 194.5t310 69h37v180zM831 289h15q236 0 364.5 124.5t128.5 348t-120 340.5t-345 117h-43v-930z M729 1219h-41q-219 0 -343 -122t-124 -341t128.5 -343t363.5 -124h16v930z" />
<glyph unicode="&#x425;" horiz-adv-x="1102" d="M1102 0h-117l-432 682l-440 -682h-113l492 762l-447 700h115l395 -626l401 626h109l-453 -698z" />
<glyph unicode="&#x426;" horiz-adv-x="1473" d="M1255 96h156v-465h-98v369h-1106v1462h102v-1366h844v1366h102v-1366z" />
<glyph unicode="&#x427;" horiz-adv-x="1372" d="M602 532q-420 0 -420 367v563h103v-567q0 -266 325 -266q96 0 192 17.5t261 76.5v739h102v-1462h-102v635q-261 -103 -461 -103z" />
<glyph unicode="&#x428;" horiz-adv-x="2060" d="M1853 0h-1646v1462h102v-1366h670v1366h102v-1366h670v1366h102v-1462z" />
<glyph unicode="&#x429;" horiz-adv-x="2071" d="M207 0v1462h102v-1366h670v1366h102v-1366h670v1366h102v-1366h156v-465h-98v369h-1704z" />
<glyph unicode="&#x42a;" horiz-adv-x="1348" d="M346 0v1366h-336v96h439v-645h282q252 0 378 -95.5t126 -299.5t-124.5 -313t-356.5 -109h-408zM449 90h288q197 0 292 79.5t95 247.5t-96 239t-311 71h-268v-637z" />
<glyph unicode="&#x42b;" horiz-adv-x="1669" d="M1462 0h-102v1462h102v-1462zM309 817h283q251 0 377.5 -95.5t126.5 -299.5t-124 -313t-358 -109h-407v1462h102v-645zM309 90h289q204 0 295.5 83t91.5 246.5t-95 235.5t-312 72h-269v-637z" />
<glyph unicode="&#x42c;" horiz-adv-x="1219" d="M309 817h295q252 0 378 -95.5t126 -300t-124 -313t-357 -108.5h-420v1462h102v-645zM309 90h301q197 0 292 79.5t95 247.5t-96 239t-311 71h-281v-637z" />
<glyph unicode="&#x42d;" horiz-adv-x="1266" d="M434 1391q-157 0 -317 -78l-41 92q164 78 368 78q324 0 508.5 -192t184.5 -525q0 -239 -83 -417t-239.5 -273.5t-378 -95.5t-366.5 51v94q167 -51 364 -51q270 0 425 169t169 476h-774v94h772q-22 278 -174.5 428t-417.5 150z" />
<glyph unicode="&#x42e;" horiz-adv-x="2105" d="M1810.5 1283.5q165.5 -201.5 165.5 -550t-166 -551t-459.5 -202.5t-459.5 199.5t-168 539.5h-414v-719h-102v1462h102v-649h416q19 312 185 492t450.5 180t450 -201.5zM834 733q0 -313 133 -485t383 -172t383 170.5t133 486t-132.5 484.5t-381 169t-383.5 -170t-135 -483 z" />
<glyph unicode="&#x42f;" horiz-adv-x="1202" d="M545 637l-391 -637h-123l411 657q-153 30 -237 131t-84 254q0 420 526 420h348v-1462h-102v637h-348zM231 1047q0 -322 385 -322h277v645h-242q-221 0 -320.5 -76.5t-99.5 -246.5z" />
<glyph unicode="&#x430;" horiz-adv-x="1085" d="M842 0l-25 172h-8q-82 -105 -168.5 -148.5t-225.5 -43.5t-228 82t-89 234t132.5 240t383.5 93l207 6v72q0 155 -63 234t-208.5 79t-307.5 -84l-37 86q179 84 356 84t265.5 -93t88.5 -290v-723h-73zM442 70q174 0 274.5 99.5t100.5 276.5v107l-190 -8 q-229 -11 -326.5 -71.5t-97.5 -175.5t62.5 -171.5t176.5 -56.5z" />
<glyph unicode="&#x431;" horiz-adv-x="1176" d="M123 653q0 708 399 807q140 35 268.5 59.5t227.5 43.5l18 -86l-120 -23q-297 -56 -392 -86q-277 -80 -299 -592h6q107 127 208 181.5t208 54.5q200 0 306 -129t106 -374.5t-122 -387t-344.5 -141.5t-346 175t-123.5 498zM602 70q171 0 261.5 114t90.5 322q0 416 -317 416 q-116 0 -224.5 -72.5t-189.5 -200.5q0 -179 45 -314q87 -265 334 -265z" />
<glyph unicode="&#x432;" horiz-adv-x="1159" d="M922.5 1020q93.5 -67 93.5 -182.5t-51 -174t-166 -81.5v-7q131 -15 189.5 -75.5t58.5 -173.5q0 -157 -103.5 -241.5t-302.5 -84.5h-459v1087h461q186 0 279.5 -67zM942 328q0 200 -307 200h-354v-434h368q293 0 293 234zM845 668q66 47 66 145.5t-68 139t-204 40.5h-358 v-372h346q152 0 218 47z" />
<glyph unicode="&#x433;" horiz-adv-x="862" d="M821 1001h-540v-1001h-99v1087h639v-86z" />
<glyph unicode="&#x434;" horiz-adv-x="1118" d="M113 94q280 393 288 993h523v-993h145v-463h-98v369h-832v-369h-98v463h72zM825 94v901h-338q-24 -541 -262 -901h600z" />
<glyph unicode="&#x435;" horiz-adv-x="1124" d="M963 49q-159 -69 -342 -69q-237 0 -369.5 146t-132.5 407.5t128 418t332.5 156.5t315.5 -134t111 -364v-80h-783q2 -224 104.5 -342t293.5 -118q93 0 163.5 13t178.5 56v-90zM819 913.5q-82 106.5 -233 106.5t-246 -103.5t-111 -298.5h672q0 189 -82 295.5z" />
<glyph unicode="&#x436;" horiz-adv-x="1362" d="M631 1087h100v-528l467 528h121l-471 -528l508 -559h-127l-498 551v-551h-100v551l-498 -551h-127l506 555l-469 532h121l467 -528v528z" />
<glyph unicode="&#x437;" horiz-adv-x="926" d="M719 311q0 221 -316 221h-151v86h135q295 0 295 203q0 97 -68 148t-198 51t-293 -72l-37 82q174 78 345 78t263 -74t92 -205q0 -189 -194 -241v-6q231 -57 231 -277q0 -151 -110.5 -238t-314.5 -87t-330 75v99q103 -49 178 -66.5t160 -17.5q148 0 230.5 62.5t82.5 178.5z " />
<glyph unicode="&#x438;" horiz-adv-x="1229" d="M276 1087v-786l-6 -205l645 991h132v-1087h-95v781l4 210l-645 -991h-129v1087h94z" />
<glyph unicode="&#x439;" horiz-adv-x="1229" d="M276 1087v-786l-6 -205l645 991h132v-1087h-95v781l4 210l-645 -991h-129v1087h94zM615 1241q-149 0 -227 66.5t-91 214.5h88q15 -110 68 -155.5t163.5 -45.5t164 47t65.5 154h88q-21 -281 -319 -281z" />
<glyph unicode="&#x43a;" horiz-adv-x="940" d="M772 1087h123l-487 -526l522 -561h-133l-514 551v-551h-101v1087h101v-528z" />
<glyph unicode="&#x43b;" horiz-adv-x="1116" d="M934 0h-98v995h-385q-30 -395 -73.5 -602.5t-112 -305t-177.5 -97.5q-39 0 -68 8v90q19 -6 54 -6q113 0 182.5 238.5t105.5 766.5h572v-1087z" />
<glyph unicode="&#x43c;" horiz-adv-x="1382" d="M1106 967q-44 -126 -373 -967h-88l-301 764q-19 46 -35.5 97t-36.5 110v-971h-90v1087h131l314 -800q37 -97 61 -181l62 175l313 806h137v-1087h-94v967z" />
<glyph unicode="&#x43d;" horiz-adv-x="1251" d="M281 1087v-477h690v477h98v-1087h-98v524h-690v-524h-99v1087h99z" />
<glyph unicode="&#x43e;" horiz-adv-x="1200" d="M953.5 957.5q127.5 -150.5 127.5 -414.5t-129 -413.5t-356 -149.5q-143 0 -252 69t-167 198t-58 298q0 266 129 414.5t353.5 148.5t352 -150.5zM320.5 894.5q-97.5 -123.5 -97.5 -348.5t98.5 -350.5t278.5 -125.5t278.5 125.5t98.5 350t-99.5 348.5t-279.5 124 t-277.5 -123.5z" />
<glyph unicode="&#x43f;" horiz-adv-x="1231" d="M281 0h-99v1087h867v-1087h-99v993h-669v-993z" />
<glyph unicode="&#x440;" horiz-adv-x="1219" d="M647 -20q-251 0 -366 188h-7l3 -84q4 -74 4 -162v-414h-99v1579h84l19 -155h6q112 176 345 176t348.5 -144.5t115.5 -416.5t-121.5 -419.5t-331.5 -147.5zM366.5 177q85.5 -109 265.5 -109t271.5 124t91.5 347q0 479 -346 479q-190 0 -279 -104.5t-89 -340.5v-32 q0 -255 85.5 -364z" />
<glyph unicode="&#x441;" horiz-adv-x="973" d="M616 -20q-233 0 -365 147t-132 413.5t137 417t375 150.5q141 0 270 -49l-27 -88q-141 47 -245 47q-200 0 -303 -123.5t-103 -349.5t103 -350.5t288 -124.5q148 0 275 53v-92q-104 -51 -273 -51z" />
<glyph unicode="&#x442;" horiz-adv-x="913" d="M872 1001h-362v-1001h-98v1001h-371v86h831v-86z" />
<glyph unicode="&#x443;" horiz-adv-x="940" d="M0 1087h102l230 -610q105 -281 133 -379h6q42 129 137 385l230 604h102l-487 -1263q-59 -154 -99 -208q-80 -108 -223 -108q-57 0 -127 21v86q58 -16 117 -16t98 24t71 75q39 63 126 302z" />
<glyph unicode="&#x444;" horiz-adv-x="1372" d="M1253 545q0 -251 -135.5 -399t-380.5 -166v-472h-98v472q-244 14 -382 162t-138 401t136 400t384 165v448h98v-448q246 -18 381 -165t135 -398zM328.5 877.5q-105.5 -121.5 -105.5 -333.5t108.5 -334.5t307.5 -137.5v944q-205 -17 -310.5 -138.5zM1043 214 q106 125 106 332.5t-107 330t-305 139.5v-944q200 17 306 142z" />
<glyph unicode="&#x445;" horiz-adv-x="1020" d="M449 559l-379 528h114l324 -458l321 458h109l-373 -528l400 -559h-115l-342 485l-344 -485h-109z" />
<glyph unicode="&#x446;" horiz-adv-x="1223" d="M1174 -369h-99v369h-893v1087h99v-993h649v993h98v-993h146v-463z" />
<glyph unicode="&#x447;" horiz-adv-x="1188" d="M907 516q-186 -143 -405 -143q-167 0 -252.5 87t-85.5 251v376h98v-364q0 -138 67 -199t206 -61q189 0 372 147v477h99v-1087h-99v516z" />
<glyph unicode="&#x448;" horiz-adv-x="1745" d="M922 94h542v993h99v-1087h-1381v1087h99v-993h542v993h99v-993z" />
<glyph unicode="&#x449;" horiz-adv-x="1757" d="M922 94h542v993h99v-993h145v-463h-98v369h-1428v1087h99v-993h542v993h99v-993z" />
<glyph unicode="&#x44a;" horiz-adv-x="1323" d="M469 629h352q383 0 383 -301q0 -155 -107 -241.5t-306 -86.5h-420v1001h-330v86h428v-458zM469 535v-441h338q144 0 218.5 62t74.5 172t-67 158.5t-232 48.5h-332z" />
<glyph unicode="&#x44b;" horiz-adv-x="1481" d="M281 629h346q383 0 383 -301q0 -155 -107 -241.5t-307 -86.5h-414v1087h99v-458zM281 535v-441h331q141 0 217 59t76 172t-67 161.5t-232 48.5h-325zM1298 0h-98v1087h98v-1087z" />
<glyph unicode="&#x44c;" horiz-adv-x="1165" d="M281 629h383q383 0 383 -301q0 -155 -107 -241.5t-307 -86.5h-451v1087h99v-458zM281 535v-441h368q142 0 217.5 60t75.5 172t-67 160.5t-232 48.5h-362z" />
<glyph unicode="&#x44d;" horiz-adv-x="1006" d="M358 -20q-193 0 -290 51v92q127 -53 284 -53q196 0 313 124.5t119 335.5h-620v88h616q-17 197 -119.5 298.5t-281.5 101.5q-106 0 -266 -60l-29 89q56 23 140 42t153 19q244 0 377 -144t133 -410t-141.5 -420t-387.5 -154z" />
<glyph unicode="&#x44e;" horiz-adv-x="1634" d="M1397.5 957.5q118.5 -150.5 118.5 -414.5t-119.5 -413.5t-321.5 -149.5t-321.5 147t-122.5 397h-350v-524h-99v1087h99v-477h352q14 235 130.5 366.5t316 131.5t318 -150.5zM822.5 894.5q-87.5 -123.5 -87.5 -348.5t88.5 -350.5t249.5 -125.5t249.5 126t88.5 349.5 t-89 348t-250.5 124.5t-249 -123.5z" />
<glyph unicode="&#x44f;" horiz-adv-x="1083" d="M166 0h-125l328 469q-150 28 -216.5 104t-66.5 209.5t99.5 219t267.5 85.5h448v-1087h-98v457h-332zM190 772q0 -221 291 -221h322v442h-352q-124 0 -192.5 -56.5t-68.5 -164.5z" />
<glyph unicode="&#x450;" horiz-adv-x="1124" d="M963 49q-159 -69 -342 -69q-237 0 -369.5 146t-132.5 407.5t128 418t332.5 156.5t315.5 -134t111 -364v-80h-783q2 -224 104.5 -342t293.5 -118q93 0 163.5 13t178.5 56v-90zM819 913.5q-82 106.5 -233 106.5t-246 -103.5t-111 -298.5h672q0 189 -82 295.5zM685 1241h-69 q-96 79 -188.5 171.5t-125.5 139.5v17h142q26 -48 98.5 -142t142.5 -170v-16z" />
<glyph unicode="&#x451;" horiz-adv-x="1124" d="M963 49q-159 -69 -342 -69q-237 0 -369.5 146t-132.5 407.5t128 418t332.5 156.5t315.5 -134t111 -364v-80h-783q2 -224 104.5 -342t293.5 -118q93 0 163.5 13t178.5 56v-90zM819 913.5q-82 106.5 -233 106.5t-246 -103.5t-111 -298.5h672q0 189 -82 295.5zM331 1389 q0 86 63.5 86t63.5 -86t-63.5 -86t-63.5 86zM712 1389q0 86 63.5 86t63.5 -86t-63.5 -86t-63.5 86z" />
<glyph unicode="&#x452;" horiz-adv-x="1208" d="M795 -492q-79 0 -136 25v86q69 -20 129 -20q152 0 152 176v899q0 164 -68.5 238.5t-214.5 74.5q-197 0 -286.5 -98.5t-89.5 -319.5v-569h-99v1272h-155v82h155v202h99v-202h473v-82h-473v-242l-5 -139h7q61 98 154 142t231 44q370 0 370 -397v-891q0 -134 -62.5 -207.5 t-180.5 -73.5z" />
<glyph unicode="&#x453;" horiz-adv-x="862" d="M821 1001h-540v-1001h-99v1087h639v-86zM761 1552q-81 -117 -313 -311h-70v16q73 79 144.5 171.5t97.5 140.5h141v-17z" />
<glyph unicode="&#x454;" horiz-adv-x="993" d="M909 31q-102 -51 -282 -51q-237 0 -372.5 149.5t-135.5 411t140.5 414.5t381.5 153q157 0 281 -49l-29 -88q-132 47 -254 47q-185 0 -291 -105t-123 -295h625v-88h-629q2 -217 111 -338.5t279.5 -121.5t297.5 53v-92z" />
<glyph unicode="&#x455;" horiz-adv-x="954" d="M745 58.5q-111 -78.5 -322 -78.5t-339 67v107q164 -82 335.5 -82t255 53.5t83.5 139t-66.5 141.5t-224 112.5t-223.5 99.5q-133 85 -133 216.5t102.5 202.5t282.5 71t338 -66l-37 -90q-160 66 -295 66t-213 -44t-78 -125.5t60.5 -132.5t222 -109t228.5 -101 q134 -84 134 -226.5t-111 -221z" />
<glyph unicode="&#x456;" horiz-adv-x="463" d="M281 0h-99v1087h99v-1087zM231 1292q-63 0 -63 96.5t64.5 96.5t64.5 -96q0 -45 -17.5 -71t-48.5 -26z" />
<glyph unicode="&#x457;" horiz-adv-x="463" d="M281 0h-99v1087h99v-1087zM-21 1389q0 86 63.5 86t63.5 -86t-63.5 -86t-63.5 86zM360 1389q0 86 63.5 86t63.5 -86t-63.5 -86t-63.5 86z" />
<glyph unicode="&#x458;" horiz-adv-x="463" d="M37 -492q-80 0 -135 25v86q69 -20 129 -20q151 0 151 176v1312h99v-1298q0 -135 -63.5 -208t-180.5 -73zM231 1292q-63 0 -63 96.5t64.5 96.5t64.5 -96q0 -45 -17.5 -71t-48.5 -26z" />
<glyph unicode="&#x459;" horiz-adv-x="1655" d="M862 621h285q205 0 297 -71.5t92 -225.5q0 -324 -420 -324h-352v995h-313q-29 -394 -72.5 -603t-113.5 -305.5t-181 -96.5q-37 0 -64 8v90q20 -6 52 -6q114 0 183 231t107 774h500v-466zM862 526v-432h271q154 0 226.5 57.5t72.5 176.5q0 140 -114 178q-59 20 -192 20 h-264z" />
<glyph unicode="&#x45a;" horiz-adv-x="1759" d="M967 1087v-466h295q196 0 287 -71t91 -229t-104.5 -239.5t-304.5 -81.5h-363v526h-587v-526h-99v1087h99v-466h587v466h99zM967 526v-432h280q142 0 215.5 54.5t73.5 177.5q0 144 -114 181q-59 19 -181 19h-274z" />
<glyph unicode="&#x45b;" horiz-adv-x="1208" d="M940 0v674q0 164 -69 238.5t-214 74.5q-197 0 -286.5 -98t-89.5 -320v-569h-99v1272h-155v82h155v202h99v-202h473v-82h-473v-242l-5 -139h7q61 98 154 142t231 44q370 0 370 -397v-680h-98z" />
<glyph unicode="&#x45c;" horiz-adv-x="940" d="M772 1087h123l-487 -526l522 -561h-133l-514 551v-551h-101v1087h101v-528zM805 1552q-81 -117 -313 -311h-70v16q73 79 144.5 171.5t97.5 140.5h141v-17z" />
<glyph unicode="&#x45d;" horiz-adv-x="1229" d="M276 1087v-786l-6 -205l645 991h132v-1087h-95v781l4 210l-645 -991h-129v1087h94zM720 1241h-69q-96 79 -188.5 171.5t-125.5 139.5v17h142q26 -48 98.5 -142t142.5 -170v-16z" />
<glyph unicode="&#x45e;" horiz-adv-x="940" d="M0 1087h102l230 -610q105 -281 133 -379h6q42 129 137 385l230 604h102l-487 -1263q-59 -154 -99 -208q-80 -108 -223 -108q-57 0 -127 21v86q58 -16 117 -16t98 24t71 75q39 63 126 302zM470 1241q-149 0 -227 66.5t-91 214.5h88q15 -110 68 -155.5t163.5 -45.5t164 47 t65.5 154h88q-21 -281 -319 -281z" />
<glyph unicode="&#x45f;" horiz-adv-x="1231" d="M567 0h-385v1087h99v-993h669v993h99v-1087h-383v-369h-99v369z" />
<glyph unicode="&#x460;" horiz-adv-x="1987" d="M805 1327q-118 59 -218 59t-181 -74q-166 -153 -166 -554q0 -324 114.5 -503t319.5 -179q165 0 268 80v506h102v-504q110 -82 297.5 -82t296.5 180.5t109 501.5q0 397 -160 553q-77 75 -175.5 75t-209.5 -59l-43 94q121 64 254 64q212 0 328.5 -190.5t116.5 -546 t-135 -562t-382 -206.5q-111 0 -189.5 21.5t-156.5 74.5h-4q-76 -53 -153.5 -74.5t-188.5 -21.5q-250 0 -385 205.5t-135 560t124 547t341 192.5q135 0 254 -64z" />
<glyph unicode="&#x461;" horiz-adv-x="1548" d="M1016 88q354 354 354 999h94q0 -367 -99 -618.5t-314 -468.5h-101l-196 526l-30 -65q-37 -82 -46 -101t-184 -360h-103l-391 1087h104l209 -577q39 -106 136 -408h6q61 137 262 525l-166 460h102l209 -577l148 -422h6z" />
<glyph unicode="&#x462;" horiz-adv-x="1378" d="M756 817q510 0 510 -397q0 -199 -128 -309.5t-364 -110.5h-407v1155h-336v84h336v317h102v-317h481v-84h-481v-338h287zM758 88q397 0 397 332q0 158 -98 231.5t-320 73.5h-268v-637h289z" />
<glyph unicode="&#x463;" horiz-adv-x="1241" d="M356 1087h398v-81h-398v-377h383q383 0 383 -301q0 -155 -107 -241.5t-306 -86.5h-451v1006h-227v81h227v232h98v-232zM356 535v-441h369q142 0 217.5 60t75.5 172t-69 160.5t-236 48.5h-357z" />
<glyph unicode="&#x464;" horiz-adv-x="1866" d="M1425 1391q-256 0 -412.5 -153t-176.5 -425h776v-94h-781q6 -309 155.5 -477t422.5 -168q184 0 338 47v-90q-145 -51 -363 -51q-304 0 -480.5 195t-180.5 544h-414v-719h-102v1462h102v-649h416q23 308 209.5 489t484.5 181q214 0 383 -80l-41 -92q-160 80 -336 80z" />
<glyph unicode="&#x465;" horiz-adv-x="1487" d="M1403 31q-100 -51 -275 -51q-237 0 -365 142.5t-130 405.5h-352v-528h-99v1087h99v-473h356q19 232 153 363t351 131q61 0 141.5 -13.5t132.5 -35.5l-29 -88q-121 47 -245 47q-178 0 -281.5 -106t-120.5 -298h584v-88h-588q2 -213 106 -334.5t289 -121.5q148 0 273 53 v-92z" />
<glyph unicode="&#x466;" horiz-adv-x="1286" d="M887 690h-195v-690h-98v690h-191l-292 -690h-111l627 1468h49l610 -1468h-115zM442 784h406q-82 198 -126 304t-73 204q-16 -52 -33 -96t-174 -412z" />
<glyph unicode="&#x467;" horiz-adv-x="1022" d="M561 1087l451 -1087h-101l-209 500h-143v-500h-98v500h-142l-206 -500h-103l453 1087h98zM352 582h318q-116 287 -156 409h-6q-50 -161 -156 -409z" />
<glyph unicode="&#x468;" horiz-adv-x="1763" d="M1352 719h-183v-719h-98v719h-178l-305 -719h-111l307 719h-475v-719h-102v1462h102v-649h516l279 655h49l610 -1468h-114zM932 813h381l-121 293q-34 85 -66 186q-16 -51 -32.5 -94.5t-161.5 -384.5z" />
<glyph unicode="&#x469;" horiz-adv-x="1395" d="M934 1087l450 -1087h-100l-221 532h-131v-532h-98v532h-127l-222 -532h-102l221 528h-323v-528h-99v1087h99v-473h358l197 473h98zM739 614h291q-114 281 -143 377h-6q-49 -155 -142 -377z" />
<glyph unicode="&#x46a;" horiz-adv-x="1419" d="M1260 1462v-86l-439 -545q229 -6 332 -142q52 -69 98 -218t144 -471h-105l-147 483q-45 148 -118 204t-230 56h-35v-743h-103v743h-34q-109 0 -171 -23.5t-103 -78t-73 -158.5l-147 -483h-104l139 457q47 158 99 229q103 139 333 145l-438 545v86h1102zM1133 1368h-848 l424 -526z" />
<glyph unicode="&#x46b;" horiz-adv-x="1241" d="M1083 1087v-83l-342 -373q177 -13 263 -117q44 -53 98 -186l129 -328h-105l-133 344q-44 115 -106.5 157t-179.5 42h-37v-543h-99v543h-34q-119 0 -181.5 -42t-105.5 -155l-135 -346h-105l129 328q48 124 93 181q87 111 268 122l-344 373v83h927zM965 1001h-691l347 -380 z" />
<glyph unicode="&#x46c;" horiz-adv-x="1929" d="M1769 1462v-86l-438 -559q126 -4 206.5 -38t132 -104t95.5 -218l140 -457h-105l-147 483q-44 144 -115.5 195t-232.5 51h-35v-729h-103v729h-34q-117 0 -178.5 -22.5t-100.5 -75t-68 -148.5l-147 -483h-104l139 457q28 94 61 161t86 111h-512v-729h-102v1462h102v-639 h805l-446 553v86h1101zM1642 1368h-847l428 -539z" />
<glyph unicode="&#x46d;" horiz-adv-x="1636" d="M1479 1087v-83l-355 -388q188 0 278 -106q44 -52 95 -182l129 -328h-104l-133 344q-42 109 -100 146.5t-181 37.5h-43v-528h-98v528h-43q-124 0 -182 -37.5t-99 -144.5l-135 -346h-102l129 328q55 143 120 200h-374v-528h-99v1087h99v-473h630l-360 390v83h928z M1360 1001h-690l346 -380z" />
<glyph unicode="&#x46e;" horiz-adv-x="1145" d="M969 -408q-78 46 -191 46t-204.5 -8.5t-182.5 -8.5q-150 0 -229.5 60.5t-79.5 179t98.5 182t324 76.5t317 79.5t91.5 213.5q0 299 -442 299h-217v96h225q212 0 313 80t101 216t-92.5 211t-222.5 75t-223 -31.5t-201 -108.5l-58 80q74 58 175 98.5t200 49.5 q-65 75 -235 245v17h75q108 -77 236 -203q91 113 153.5 156t113 43t85.5 -13v-84q-26 11 -66 11q-90 0 -215 -168q181 -17 282 -113t101 -248q0 -286 -303 -352v-6q163 -31 247.5 -115t84.5 -237q0 -193 -126 -285t-415 -109q-157 -9 -226.5 -44t-69.5 -111q0 -146 198 -146 l377 17q127 0 201 -35v-105z" />
<glyph unicode="&#x46f;" horiz-adv-x="926" d="M313 -330q-278 0 -278 195q0 107 88 160t274 72.5t254 72.5t68 159.5t-79 154.5t-237 48h-151v86h135q295 0 295 203q0 97 -68 148t-198 51t-293 -72l-37 82q145 65 272 76q-50 58 -221 229v17h76q115 -84 236 -203q93 116 155 157.5t109 41.5t88 -13v-84q-29 11 -68 11 q-90 0 -207 -160q260 -44 260 -273q0 -189 -194 -241v-6q123 -28 177 -91t54 -167q0 -145 -99 -221.5t-281.5 -95.5t-243 -48.5t-60.5 -88t43.5 -82.5t123.5 -24t290 13l84 2q70 0 145 -31v-102q-67 39 -166 39l-81 -2q-215 -13 -265 -13z" />
<glyph unicode="&#x470;" horiz-adv-x="1565" d="M1421 979q0 -526 -571 -526h-27v-453h-102v453h-27q-571 0 -571 526v483h102v-479q0 -226 117 -333t356 -107h23v919h102v-919h23q239 0 356 107t117 333v479h102v-483z" />
<glyph unicode="&#x471;" horiz-adv-x="1477" d="M1127.5 221.5q115.5 130.5 115.5 372t-59 493.5h96q63 -226 63 -497.5t-142.5 -431t-412.5 -176.5v-474h-98v474q-257 12 -390.5 155.5t-133.5 411.5v538h98v-540q0 -221 110 -340.5t316 -132.5v1480h98v-1480q224 17 339.5 147.5z" />
<glyph unicode="&#x472;" horiz-adv-x="1565" d="M1263 1283.5q173 -201.5 173 -550t-174 -551t-479.5 -202.5t-479.5 202.5t-174 552t175.5 550t480.5 200.5t478 -201.5zM387.5 237.5q139.5 -161.5 395 -161.5t395 160t147.5 462h-1085q8 -299 147.5 -460.5zM1170.5 1233.5q-139.5 152.5 -388 152.5t-387.5 -153.5 t-153 -439.5h1081q-13 288 -152.5 440.5z" />
<glyph unicode="&#x473;" horiz-adv-x="1200" d="M953.5 957.5q127.5 -150.5 127.5 -414.5t-129 -413.5t-356 -149.5q-143 0 -252 69t-167 198t-58 298q0 266 129 414.5t353.5 148.5t352 -150.5zM326 190.5q99 -120.5 273.5 -120.5t273 118.5t104.5 333.5h-754q4 -211 103 -331.5zM860.5 912q-98.5 106 -263 106 t-261.5 -107.5t-111 -300.5h750q-16 196 -114.5 302z" />
<glyph unicode="&#x474;" horiz-adv-x="1210" d="M1292 1370q-42 14 -86.5 14t-75.5 -26t-60.5 -87.5t-80.5 -209.5l-354 -1061h-94l-541 1462h109l358 -968q85 -234 121 -355q44 164 125 402l176 532q64 192 104 265t87.5 105t108.5 32t103 -15v-90z" />
<glyph unicode="&#x475;" horiz-adv-x="973" d="M420 0l-420 1087h102l279 -733q73 -187 96 -270h6q37 130 115 365l125 372q68 207 143 260q38 27 82.5 27t73.5 -8v-88q-29 8 -66 8q-72 0 -143 -215l-272 -805h-121z" />
<glyph unicode="&#x476;" horiz-adv-x="1210" d="M1292 1370q-42 14 -86.5 14t-75.5 -26t-60.5 -87.5t-80.5 -209.5l-354 -1061h-94l-541 1462h109l358 -968q85 -234 121 -355q44 164 125 402l176 532q64 192 104 265t87.5 105t108.5 32t103 -15v-90zM653 1907q125 -244 189 -312v-16h-70q-57 50 -131.5 142.5 t-122.5 168.5v17h135zM315 1907q126 -245 189 -312v-16h-70q-57 50 -131.5 142.5t-122.5 168.5v17h135z" />
<glyph unicode="&#x477;" horiz-adv-x="973" d="M420 0l-420 1087h102l279 -733q73 -187 96 -270h6q37 130 115 365l125 372q68 207 143 260q38 27 82.5 27t73.5 -8v-88q-29 8 -66 8q-72 0 -143 -215l-272 -805h-121zM538 1569q125 -244 189 -312v-16h-70q-57 50 -131.5 142.5t-122.5 168.5v17h135zM200 1569 q126 -245 189 -312v-16h-70q-57 50 -131.5 142.5t-122.5 168.5v17h135z" />
<glyph unicode="&#x478;" horiz-adv-x="2335" d="M1141 1285q151 -200 151 -551t-156 -552.5t-429.5 -201.5t-425.5 198t-152 551.5t156 554.5t430.5 201t425.5 -200zM360.5 1219q-120.5 -167 -120.5 -485t119.5 -488t350.5 -170t351.5 167.5t120.5 488.5t-120 487.5t-350.5 166.5t-351 -167zM1866 98q25 88 366 989h103 l-488 -1263q-53 -142 -94 -201q-80 -115 -227 -115q-57 0 -127 21v86q58 -16 117 -16t97.5 23.5t69.5 72t72 155.5l55 150l-415 1087h102q169 -450 256 -679.5t107 -309.5h6z" />
<glyph unicode="&#x479;" horiz-adv-x="2093" d="M953.5 957.5q127.5 -150.5 127.5 -414.5t-129 -413.5t-356 -149.5q-143 0 -252 69t-167 198t-58 298q0 266 129 414.5t353.5 148.5t352 -150.5zM320.5 894.5q-97.5 -123.5 -97.5 -348.5t98.5 -350.5t278.5 -125.5t278.5 125.5t98.5 350t-99.5 348.5t-279.5 124 t-277.5 -123.5zM1153 1087h102l230 -610q105 -281 133 -379h6q42 129 137 385l230 604h102l-487 -1263q-59 -154 -99 -208q-80 -108 -223 -108q-57 0 -127 21v86q58 -16 117 -16t98 24t71 75q39 63 126 302z" />
<glyph unicode="&#x47a;" horiz-adv-x="1626" d="M1342 1251q155 -198 155 -517.5t-155 -518.5t-433 -229q-21 -74 -95 -74t-95 74q-280 29 -435 228.5t-155 519t156.5 518t433.5 227.5q21 69 95 69t95 -69q278 -30 433 -228zM911 1380q-17 -80 -97 -80t-97 80q-228 -29 -352.5 -194.5t-124.5 -451.5t123 -455.5 t354 -198.5q17 80 96 80t96 -78q234 29 355.5 196.5t121.5 454t-122 452.5t-353 195z" />
<glyph unicode="&#x47b;" horiz-adv-x="1241" d="M1015 926q107 -147 107 -383t-108.5 -381t-302.5 -174q-19 -72 -90 -72t-91 70q-190 29 -300.5 177t-110.5 383.5t108 381t301 174.5q14 76 90.5 76t94.5 -76q195 -29 302 -176zM223 545q0 -196 80 -317t225 -150q19 72 91.5 72t91.5 -72q148 30 227.5 152t79.5 315 t-80 314t-229 151q-21 -66 -89.5 -66t-89.5 66q-149 -28 -228 -148.5t-79 -316.5z" />
<glyph unicode="&#x47c;" horiz-adv-x="1987" d="M805 1327q-118 59 -211 59q-164 0 -258 -166t-94 -477t113.5 -489t318.5 -178q172 0 319 121q161 -121 348.5 -121t295.5 179t108 488t-91 476t-247 167q-94 0 -205 -59l-43 94q121 64 254 64q212 0 328.5 -190.5t116.5 -546t-135 -562t-382 -206.5q-111 0 -189.5 21.5 t-156.5 74.5h-4q-76 -53 -153.5 -74.5t-188.5 -21.5q-250 0 -385 205.5t-135 560t124 547t341 192.5q135 0 254 -64zM1089 1853q27 -35 27 -105q0 -144 -205 -202v56q127 38 127 106q0 24 -14.5 35t-32.5 20t-32.5 20.5t-14.5 40t20 46.5t59 18t66 -35zM1401 1886h-12 q-112 0 -239 49l-67 25q-84 32 -117.5 39.5t-80 7.5t-78 -29t-31.5 -104v-8h-90v8q0 104 52.5 161.5t154.5 57.5q50 0 98 -13t171.5 -62.5t238.5 -49.5v-82z" />
<glyph unicode="&#x47d;" horiz-adv-x="1569" d="M780 37q-98 -57 -219 -57q-214 0 -328 142.5t-114 414.5q0 365 169 503q83 68 199.5 68t198.5 -45l-33 -86q-82 43 -157 43q-133 0 -203 -123.5t-70 -358.5t90 -351.5t256 -116.5q109 0 215 67q110 -67 220 -67q166 0 254 116.5t88 351t-65 358.5t-187 124 q-78 0 -160 -43l-31 86q82 45 195.5 45t191.5 -67q160 -139 160 -504q0 -268 -115 -412.5t-327 -144.5q-128 0 -228 57zM690 1292q127 38 127 107q0 24 -14.5 35t-32.5 19.5t-32.5 20.5t-14.5 40t20 46.5t59 18.5t66 -35t27 -106q0 -143 -205 -201v55zM1180 1577h-13 q-113 0 -251 53t-172.5 60.5t-80 7.5t-77 -29t-31.5 -104v-9h-90v9q0 104 52.5 161.5t154.5 57.5q50 0 98 -13t171.5 -62.5t238.5 -49.5v-82z" />
<glyph unicode="&#x47e;" horiz-adv-x="1987" d="M1403 1796v-27l-80 -172h-12l-54 117h-202l-56 -117h-12l-55 117h-203l-53 -117h-12l-80 172v27h819zM805 1327q-118 59 -218 59t-181 -74q-166 -153 -166 -554q0 -324 114.5 -503t319.5 -179q165 0 268 80v506h102v-504q110 -82 297.5 -82t296.5 180.5t109 501.5 q0 397 -160 553q-77 75 -175.5 75t-209.5 -59l-43 94q121 64 254 64q212 0 328.5 -190.5t116.5 -546t-135 -562t-382 -206.5q-111 0 -189.5 21.5t-156.5 74.5h-4q-76 -53 -153.5 -74.5t-188.5 -21.5q-250 0 -385 205.5t-135 560t124 547t341 192.5q135 0 254 -64z" />
<glyph unicode="&#x47f;" horiz-adv-x="1548" d="M1180 1444v-27l-80 -172h-13l-53 117h-203l-55 -117h-12l-55 117h-203l-53 -117h-13l-80 172v27h820zM1016 88q354 354 354 999h94q0 -367 -99 -618.5t-314 -468.5h-101l-196 526l-30 -65q-37 -82 -46 -101t-184 -360h-103l-391 1087h104l209 -577q39 -106 136 -408h6 q61 137 262 525l-166 460h102l209 -577l148 -422h6z" />
<glyph unicode="&#x480;" horiz-adv-x="1272" d="M831 1391q-275 0 -433 -176t-158 -487t157 -481.5t441 -170.5q69 0 127 10v-578h-103v472h-33q-338 0 -519 195t-181 560q0 223 84.5 393t243 262.5t370.5 92.5t381 -80l-41 -92q-160 80 -336 80z" />
<glyph unicode="&#x481;" horiz-adv-x="973" d="M635 72q76 0 147 20v-584h-100v469h-43q-249 0 -384.5 143.5t-135.5 415t137 422t375 150.5q141 0 270 -49l-27 -88q-141 47 -245 47q-200 0 -303 -123.5t-103 -351t106.5 -349.5t305.5 -122z" />
<glyph unicode="&#x482;" horiz-adv-x="1239" d="M500 348l-197 -342l-82 45l197 342l-303 178l41 74l303 -180l237 407l-307 181l43 73l305 -180l195 334l80 -45l-197 -336l309 -178l-45 -74l-305 180l-233 -407l305 -180l-39 -74z" />
<glyph unicode="&#x483;" horiz-adv-x="1141" d="M239 1196q-20 18 -20 67.5t24.5 67t73.5 17.5h441q6 51 24.5 71.5t58 20.5t59.5 -18.5t20 -66t-22 -65.5t-77 -18h-440q-6 -51 -25 -72.5t-58 -21.5t-59 18z" />
<glyph unicode="&#x484;" horiz-adv-x="1182" d="M260 1356q61 0 122 13t145.5 47t135.5 49.5t105 15.5q100 0 153.5 -56.5t53.5 -162.5v-9h-90v9q0 75 -31.5 104t-78.5 29t-83.5 -8.5t-171.5 -60.5t-248 -52h-12v82z" />
<glyph unicode="&#x485;" horiz-adv-x="1182" d="M690 1247q-205 58 -205 202q0 70 27 105t66 35q79 0 79 -67q0 -26 -14.5 -37.5t-32.5 -20.5t-32.5 -20t-14.5 -35q0 -68 127 -106v-56z" />
<glyph unicode="&#x486;" horiz-adv-x="1182" d="M669 1554q27 -35 27 -105q0 -144 -204 -202v56q126 38 126 106q0 24 -14.5 35t-32.5 20t-32.5 20.5t-14.5 40t20 46.5t59 18t66 -35z" />
<glyph unicode="&#x488;" horiz-adv-x="2025" d="M1135 1231q-7 57 -45 82.5t-94 25.5t-88.5 -24t-39.5 -84h-75q11 194 208 194q93 0 149.5 -50.5t63.5 -143.5h-79zM1135 -319q-7 57 -45 82.5t-94 25.5t-88.5 -24t-39.5 -84h-75q5 89 55 141.5t147.5 52.5t155 -51t63.5 -143h-79zM1714 -41q-6 57 -44 83t-94.5 26 t-89 -24.5t-38.5 -84.5h-76q5 90 55.5 142.5t148 52.5t155 -51t63.5 -144h-80zM561 -41q-6 57 -44 83t-94.5 26t-89 -24.5t-38.5 -84.5h-76q5 90 55.5 142.5t148 52.5t155 -51t63.5 -144h-80zM1714 946q-6 57 -44 83t-94.5 26t-89 -24.5t-38.5 -84.5h-76q5 90 55.5 142.5 t148 52.5t155 -51t63.5 -144h-80zM561 946q-6 57 -44 83t-94.5 26t-89 -24.5t-38.5 -84.5h-76q5 90 55.5 142.5t148 52.5t155 -51t63.5 -144h-80zM1905 459q-7 57 -44.5 82.5t-94 25.5t-89 -24t-39.5 -84h-75q11 194 209 194q92 0 149.5 -52t63.5 -142h-80zM383 459 q-5 51 -39.5 79.5t-95 28.5t-93 -24t-38.5 -84h-76q5 90 55.5 142t148 52t155 -51t63.5 -143h-80z" />
<glyph unicode="&#x489;" horiz-adv-x="1958" d="M1069 -35l10 -14q-40 -156 -123 -336h-75q55 230 71 350h117zM891 1141l-10 14q43 162 123 336h75q-55 -230 -71 -350h-117zM1581 651q163 -44 336 -123v-75q-230 55 -350 71v117zM391 463l-14 -8q-171 44 -336 120v76q230 -55 350 -71v-117zM1458 180l19 -4 q77 -131 149 -323l-53 -54q-124 199 -197 299zM502 885l-19 4q-77 131 -149 323l53 54q138 -222 197 -299zM1331 1010l4 18q134 79 324 150l53 -54q-208 -129 -299 -196zM627 53l-4 -16q-143 -82 -324 -152l-53 54q208 129 299 196z" />
<glyph unicode="&#x48a;" horiz-adv-x="1477" d="M305 1462v-956q0 -102 -8 -342h6l864 1298h103v-1368h127l-142 -463h-116l131 369h-99v950q0 162 13 350h-8l-867 -1300h-102v1462h98zM737 1579q-149 0 -227 66.5t-90 214.5h88q14 -109 66.5 -155t164.5 -46t165 48t65 153h88q-23 -281 -320 -281z" />
<glyph unicode="&#x48b;" horiz-adv-x="1229" d="M276 1087v-786l-6 -205l645 991h132v-993h127l-142 -463h-117l132 369h-95v781l4 210l-645 -991h-129v1087h94zM614 1241q-149 0 -227 66.5t-90 214.5h88q14 -109 66.5 -155t164.5 -46t165 48t65 153h88q-21 -281 -320 -281z" />
<glyph unicode="&#x48c;" horiz-adv-x="1219" d="M207 1155h-160v84h160v223h102v-223h424v-84h-424v-338h299q250 0 375 -95.5t125 -300t-124 -313t-357 -108.5h-420v1155zM309 90h301q198 0 292.5 79.5t94.5 247t-96.5 239t-310.5 71.5h-281v-637z" />
<glyph unicode="&#x48d;" horiz-adv-x="1165" d="M281 1292h352v-82h-352v-581h383q383 0 383 -301q0 -155 -107 -241.5t-307 -86.5h-451v1210h-155v82h155v264h99v-264zM281 535v-441h368q142 0 217.5 60t75.5 172t-69 160.5t-236 48.5h-356z" />
<glyph unicode="&#x48e;" horiz-adv-x="1198" d="M1087 1042q0 -259 -219 -372l121 -168l-69 -53l-136 188q-101 -33 -249 -33h-226v-604h-102v1462h358q522 0 522 -420zM815 743q162 77 162 295q0 169 -104 250.5t-322 81.5h-242v-678h205q129 0 217 21l-117 164l70 51z" />
<glyph unicode="&#x48f;" horiz-adv-x="1219" d="M647 -20q-251 0 -366 188h-7l3 -84q4 -74 4 -162v-414h-99v1579h84l19 -155h6q112 176 345 176t348.5 -144.5t115.5 -420.5q0 -319 -172 -465l121 -168l-70 -53l-123 172q-90 -49 -209 -49zM645 68q88 0 158 34l-129 183l69 51l129 -182q123 123 123 385q0 479 -346 479 q-190 0 -279 -104.5t-89 -340.5v-32q0 -255 85.5 -364t278.5 -109z" />
<glyph unicode="&#x490;" horiz-adv-x="1028" d="M909 1462v301h99v-395h-699v-1368h-102v1462h702z" />
<glyph unicode="&#x491;" horiz-adv-x="862" d="M821 1001h-540v-1001h-99v1087h543v330h96v-416z" />
<glyph unicode="&#x492;" horiz-adv-x="1028" d="M309 772h439v-94h-439v-678h-102v678h-160v94h160v690h801v-94h-699v-596z" />
<glyph unicode="&#x493;" horiz-adv-x="862" d="M821 1001h-540v-409h366v-86h-366v-506h-99v506h-164v86h164v495h639v-86z" />
<glyph unicode="&#x494;" horiz-adv-x="1292" d="M1028 1462v-94h-719v-588q115 23 223 23q203 0 349.5 -79t222.5 -226t76 -344q0 -320 -133.5 -493t-380.5 -173q-144 0 -258 49v101q131 -56 258 -56q193 0 298 151t105 418.5t-146.5 413.5t-410.5 146q-108 0 -203 -23v-688h-102v1462h821z" />
<glyph unicode="&#x495;" horiz-adv-x="1049" d="M838 1001h-557v-391q93 27 194 27q248 0 377 -149t129 -422.5t-103 -420.5t-286 -147q-138 0 -225 58v100q112 -68 237.5 -68t199 124t73.5 356t-104 355.5t-308 123.5q-98 0 -184 -35v-512h-99v1087h656v-86z" />
<glyph unicode="&#x496;" horiz-adv-x="1642" d="M625 745l-592 717h127l588 -708v708h102v-708l588 708h127l-594 -710l547 -658h94v-463h-99v369h-51l-612 741v-741h-102v741l-613 -741h-135z" />
<glyph unicode="&#x497;" horiz-adv-x="1411" d="M631 1087h100v-528l467 528h121l-471 -528l422 -465h110v-463h-98v369h-53l-498 551v-551h-100v551l-498 -551h-127l506 555l-469 532h121l467 -528v528z" />
<glyph unicode="&#x498;" horiz-adv-x="1145" d="M920 403q0 308 -449 308h-217v96h225q212 0 313 80t101 216t-92.5 211t-222.5 75t-223 -31.5t-201 -108.5l-58 80q202 154 463 154q205 0 323.5 -98t118.5 -265q0 -286 -303 -352v-6q332 -71 332 -356q0 -201 -141.5 -313.5t-391.5 -112.5t-415 86v104q198 -96 402.5 -96 t320 86.5t115.5 242.5zM588 -248q0 72 -35.5 128.5t-108.5 119.5h91q151 -118 151 -260q0 -87 -51 -136.5t-122 -49.5t-114 16v84q34 -12 82 -12q107 0 107 110z" />
<glyph unicode="&#x499;" horiz-adv-x="926" d="M719 311q0 221 -316 221h-151v86h135q295 0 295 203q0 97 -68 148t-198 51t-293 -72l-37 82q174 78 345 78t263 -74t92 -205q0 -189 -194 -241v-6q231 -57 231 -277q0 -151 -110.5 -238t-314.5 -87t-330 75v99q103 -49 178 -66.5t160 -17.5q148 0 230.5 62.5t82.5 178.5z M488 -248q0 72 -35.5 128.5t-108.5 119.5h91q151 -118 151 -260q0 -87 -51 -136.5t-122 -49.5t-114 16v84q34 -12 82 -12q107 0 107 110z" />
<glyph unicode="&#x49a;" horiz-adv-x="1278" d="M1120 94h127v-463h-98v369h-84l-561 772l-195 -172v-600h-102v1462h102v-760l162 162l573 598h130l-599 -618z" />
<glyph unicode="&#x49b;" horiz-adv-x="989" d="M772 1087h123l-487 -526l434 -467h116v-463h-98v369h-63l-514 551v-551h-101v1087h101v-528z" />
<glyph unicode="&#x49c;" horiz-adv-x="1190" d="M1190 0h-125l-508 700v-389h-86v432l-162 -143v-600h-102v1462h102v-760l162 162v355h86v-267l487 510h130l-599 -618z" />
<glyph unicode="&#x49d;" horiz-adv-x="940" d="M412 698v316h86v-223l274 296h123l-397 -428v-194l432 -465h-133l-299 322v-216h-86v308l-129 137v-551h-101v1087h101v-528z" />
<glyph unicode="&#x49e;" horiz-adv-x="1190" d="M49 1274h158v188h102v-188h250v-94h-250v-478l162 162l573 598h130l-599 -618l615 -844h-125l-561 772l-195 -172v-600h-102v1180h-158v94z" />
<glyph unicode="&#x49f;" horiz-adv-x="991" d="M27 1356h155v200h99v-200h385v-86h-385v-494l-7 -299h5l555 610h120l-428 -464l465 -623h-119l-413 549l-178 -162v-387h-99v1270h-155v86z" />
<glyph unicode="&#x4a0;" horiz-adv-x="1319" d="M1319 0h-125l-561 772l-195 -172v-600h-102v1366h-326v96h428v-760l162 162l574 598h129l-598 -618z" />
<glyph unicode="&#x4a1;" horiz-adv-x="1118" d="M950 1087h123l-487 -526l522 -561h-133l-514 551v-551h-101v1001h-319v86h420v-528z" />
<glyph unicode="&#x4a2;" horiz-adv-x="1483" d="M1266 94h118v-463h-98v369h-123v719h-854v-719h-102v1462h102v-649h854v649h103v-1368z" />
<glyph unicode="&#x4a3;" horiz-adv-x="1251" d="M281 1087v-477h690v477h98v-993h119v-463h-98v369h-119v524h-690v-524h-99v1087h99z" />
<glyph unicode="&#x4a4;" horiz-adv-x="1602" d="M1591 1366h-325v-1366h-103v719h-854v-719h-102v1462h102v-649h854v649h428v-96z" />
<glyph unicode="&#x4a5;" horiz-adv-x="1430" d="M281 1087v-477h690v477h418v-86h-320v-1001h-98v524h-690v-524h-99v1087h99z" />
<glyph unicode="&#x4a6;" horiz-adv-x="2146" d="M1184 0h-103v1366h-772v-1366h-102v1462h977v-682q113 23 223 23q194 0 336 -79.5t216.5 -226.5t74.5 -343q0 -321 -136 -493.5t-382 -172.5q-145 0 -259 49v101q134 -56 259 -56q192 0 299.5 150.5t107.5 417.5t-139 414t-389 147q-116 0 -211 -23v-688z" />
<glyph unicode="&#x4a7;" horiz-adv-x="1737" d="M989 610q93 27 174 27q250 0 378 -146t128 -423.5t-96 -423.5t-275 -146q-138 0 -225 58v100q114 -68 221 -68q132 0 201.5 123.5t69.5 347.5q0 488 -412 488q-91 0 -164 -27v-520h-98v993h-610v-993h-99v1087h807v-477z" />
<glyph unicode="&#x4a8;" horiz-adv-x="1565" d="M1331 -84q-158 0 -301 104q-100 -40 -274 -40t-322.5 92.5t-226.5 262t-78 390.5q0 361 163 560.5t460 199.5q130 0 209 -27l-27 -96q-75 24 -186 24q-508 0 -508 -663q0 -311 143.5 -479t404.5 -168q100 0 160 20q-105 98 -163 250t-58 332q0 245 94.5 380.5 t262.5 135.5t260 -132.5t92 -383.5q0 -185 -78.5 -348.5t-212.5 -251.5q89 -68 179.5 -68t145.5 21v-92q-42 -23 -139 -23zM1329 680q0 416 -250 416q-115 0 -181.5 -109.5t-66.5 -308.5q0 -350 224 -543q132 72 203 215t71 330z" />
<glyph unicode="&#x4a9;" horiz-adv-x="1239" d="M686 496q0 -226 154 -359q78 51 126 145t48 226.5t-36.5 204t-121.5 71.5q-170 0 -170 -288zM1067 -53q-126 0 -240 76q-86 -43 -229 -43t-252 70.5t-168 197.5t-59 287q0 266 117 419.5t329 153.5q82 0 146 -18l-21 -91q-69 19 -129 19q-162 0 -250 -124.5t-88 -358.5 q0 -139 47 -245q99 -220 357 -220q78 0 127 22q-172 154 -172 406q0 178 72 277t201 99t196 -96t67 -252q0 -300 -203 -444q24 -18 68 -32.5t95 -14.5t96 14v-88q-44 -14 -107 -14z" />
<glyph unicode="&#x4aa;" horiz-adv-x="1272" d="M831 1391q-275 0 -433 -176t-158 -485.5t149 -482.5t426 -173q184 0 338 47v-90q-145 -51 -362 -51q-308 0 -485 199t-177 556q0 223 84.5 393t243 262.5t370.5 92.5t381 -80l-41 -92q-160 80 -336 80zM795 -248q0 72 -35.5 128.5t-108.5 119.5h91q151 -118 151 -260 q0 -87 -51 -136.5t-122 -49.5t-114 16v84q34 -12 82 -12q107 0 107 110z" />
<glyph unicode="&#x4ab;" horiz-adv-x="973" d="M616 -20q-233 0 -365 147t-132 413.5t137 417t375 150.5q141 0 270 -49l-27 -88q-141 47 -245 47q-200 0 -303 -123.5t-103 -349.5t103 -350.5t288 -124.5q148 0 275 53v-92q-104 -51 -273 -51zM621 -248q0 72 -35.5 128.5t-108.5 119.5h91q151 -118 151 -260 q0 -87 -51 -136.5t-122 -49.5t-114 16v84q34 -12 82 -12q107 0 107 110z" />
<glyph unicode="&#x4ac;" horiz-adv-x="1073" d="M588 94h119v-463h-99v369h-123v1366h-475v96h1053v-96h-475v-1272z" />
<glyph unicode="&#x4ad;" horiz-adv-x="913" d="M872 1001h-362v-907h119v-463h-99v369h-118v1001h-371v86h831v-86z" />
<glyph unicode="&#x4ae;" horiz-adv-x="1081" d="M543 662l428 800h110l-487 -897v-565h-105v557l-489 905h117z" />
<glyph unicode="&#x4af;" horiz-adv-x="940" d="M518 -4v-488h-98v492l-420 1087h102l281 -739q56 -142 84 -248h6q41 136 84 250l281 737h102z" />
<glyph unicode="&#x4b0;" horiz-adv-x="1081" d="M543 662l428 800h110l-487 -897v-67h315v-95h-315v-403h-105v403h-317v95h317v59l-489 905h117z" />
<glyph unicode="&#x4b1;" horiz-adv-x="940" d="M520 0h307v-86h-309v-406h-98v406h-309v86h309l-420 1087h102l281 -739q56 -142 84 -248h6q41 136 84 250l281 737h102z" />
<glyph unicode="&#x4b2;" horiz-adv-x="1171" d="M1040 94h101v-463h-99v369h-57l-432 682l-440 -682h-113l492 762l-447 700h115l395 -626l401 626h109l-453 -698z" />
<glyph unicode="&#x4b3;" horiz-adv-x="1036" d="M508 485l-344 -485h-109l394 559l-379 528h114l324 -458l321 458h109l-373 -528l332 -465h109v-463h-99v369h-57z" />
<glyph unicode="&#x4b4;" horiz-adv-x="1720" d="M1503 96h156v-465h-98v369h-1106v1366h-445v96h1073v-96h-526v-1270h844v1366h102v-1366z" />
<glyph unicode="&#x4b5;" horiz-adv-x="1411" d="M862 1001h-393v-907h649v993h99v-993h145v-463h-98v369h-893v1001h-330v86h821v-86z" />
<glyph unicode="&#x4b6;" horiz-adv-x="1372" d="M602 532q-420 0 -420 367v563h103v-567q0 -266 325 -266q96 0 192 17.5t261 76.5v739h102v-1368h119v-463h-98v369h-123v635q-261 -103 -461 -103z" />
<glyph unicode="&#x4b7;" horiz-adv-x="1188" d="M907 516q-186 -143 -405 -143q-167 0 -252.5 87t-85.5 251v376h98v-364q0 -138 67 -199t206 -61q189 0 372 147v477h99v-993h118v-463h-98v369h-119v516z" />
<glyph unicode="&#x4b8;" horiz-adv-x="1372" d="M711 633q140 13 352 90v739h102v-1462h-102v635q-174 -72 -352 -96v-326h-86v319h-23q-420 0 -420 367v563h103v-567q0 -266 325 -266h15v370h86v-366z" />
<glyph unicode="&#x4b9;" horiz-adv-x="1188" d="M262 1087v-364q0 -138 67 -199t206 -61h2v311h86v-305q142 25 284 141v477h99v-1087h-99v516q-144 -108 -284 -133v-252h-86v242h-35q-167 0 -252.5 87t-85.5 251v376h98z" />
<glyph unicode="&#x4ba;" horiz-adv-x="1352" d="M1087 567q0 275 -325 275q-126 0 -213 -24t-138 -42.5t-102 -36.5v-739h-102v1462h102v-635q274 111 470 111t303.5 -94t107.5 -281v-563h-103v567z" />
<glyph unicode="&#x4bb;" horiz-adv-x="1167" d="M281 571q187 144 405 144q167 0 252.5 -87t85.5 -251v-377h-98v365q0 138 -67 199t-206 61q-191 0 -372 -148v-477h-99v1087h99v-516z" />
<glyph unicode="&#x4bc;" horiz-adv-x="1636" d="M1030 76q177 0 383 67v-96q-179 -67 -403 -67q-326 0 -498.5 179t-187.5 529q-129 2 -196 58.5t-67 162.5q0 66 21 111h100q-18 -50 -18 -112q0 -124 160 -124q9 209 90.5 368.5t224.5 246t324 86.5q268 0 407 -185t139 -546v-66h-1077q19 -315 168.5 -463.5 t429.5 -148.5zM1399 782q0 607 -451 607q-227 0 -363 -157t-153 -450h967z" />
<glyph unicode="&#x4bd;" horiz-adv-x="1303" d="M1141 49q-159 -69 -342 -69q-235 0 -367.5 144t-134.5 404q-126 7 -185 66t-59 140t21 126h100q-18 -50 -18 -106q0 -127 145 -133q22 225 147 356t319.5 131t305.5 -134t111 -364v-80h-783q2 -224 104.5 -342t293.5 -118q93 0 163.5 13t178.5 56v-90zM997 913.5 q-82 106.5 -234.5 106.5t-246.5 -106.5t-108 -295.5h671q0 189 -82 295.5z" />
<glyph unicode="&#x4be;" horiz-adv-x="1636" d="M1030 76q177 0 383 67v-96q-179 -67 -403 -67v-349h-99v353q-559 52 -587 704q-129 2 -196 58.5t-67 162.5q0 66 21 111h100q-18 -50 -18 -112q0 -124 160 -124q9 209 90.5 368.5t224.5 246t324 86.5q268 0 407 -185t139 -546v-66h-1077q19 -315 168.5 -463.5 t429.5 -148.5zM1399 782q0 607 -451 607q-227 0 -363 -157t-153 -450h967z" />
<glyph unicode="&#x4bf;" horiz-adv-x="1303" d="M1141 49q-159 -69 -344 -69v-349h-99v357q-189 29 -294 168t-107 372q-126 7 -185 66t-59 140t21 126h100q-18 -50 -18 -106q0 -127 145 -133q22 225 147 356t319.5 131t305.5 -134t111 -364v-80h-783q2 -224 104.5 -342t293.5 -118q93 0 163.5 13t178.5 56v-90z M997 913.5q-82 106.5 -234.5 106.5t-246.5 -106.5t-108 -295.5h671q0 189 -82 295.5z" />
<glyph unicode="&#x4c0;" horiz-adv-x="516" d="M207 0v1462h102v-1462h-102z" />
<glyph unicode="&#x4c1;" horiz-adv-x="1597" d="M625 745l-592 717h127l588 -708v708h102v-708l588 708h127l-594 -710l626 -752h-135l-612 741v-741h-102v741l-613 -741h-135zM799 1591q-149 0 -227 66.5t-91 214.5h88q15 -110 68 -155.5t163.5 -45.5t164 47t65.5 154h88q-21 -281 -319 -281z" />
<glyph unicode="&#x4c2;" horiz-adv-x="1362" d="M631 1087h100v-528l467 528h121l-471 -528l508 -559h-127l-498 551v-551h-100v551l-498 -551h-127l506 555l-469 532h121l467 -528v528zM680 1241q-149 0 -227 66.5t-91 214.5h88q15 -110 68 -155.5t163.5 -45.5t164 47t65.5 154h88q-21 -281 -319 -281z" />
<glyph unicode="&#x4c3;" horiz-adv-x="1341" d="M309 0h-102v1462h102v-727l725 727h129l-694 -692q54 12 100 12q322 0 491 -159.5t169 -475.5t-136 -487.5t-391 -171.5q-135 0 -249 49v101q134 -56 249 -56q202 0 309 149t107 418t-146.5 403t-428.5 134q-143 0 -234 -41v-645z" />
<glyph unicode="&#x4c4;" horiz-adv-x="1087" d="M401 -344q114 -68 220 -68q142 0 218 120.5t76 348t-117.5 344.5t-344.5 117q-92 0 -172 -26v-492h-99v1087h99v-528l520 528h123l-482 -481q288 0 433 -138.5t145 -410.5q0 -357 -189 -493q-91 -66 -215 -66t-215 58v100z" />
<glyph unicode="&#x4c5;" horiz-adv-x="1395" d="M1188 94h153l-147 -463h-117l131 369h-123v1366h-530q-96 -797 -165 -1076q-31 -129 -66 -192q-67 -121 -207 -121q-67 0 -117 25v92q61 -22 113 -22q87 0 135 108q85 188 221 1282h719v-1368z" />
<glyph unicode="&#x4c6;" horiz-adv-x="1116" d="M934 94h153l-147 -463h-117l131 369h-118v995h-385q-30 -395 -73.5 -602.5t-112 -305t-177.5 -97.5q-39 0 -68 8v90q19 -6 54 -6q113 0 182.5 238.5t105.5 766.5h572v-993z" />
<glyph unicode="&#x4c7;" horiz-adv-x="1473" d="M760 -512q-144 0 -266 51v94q134 -51 256 -51q208 0 310.5 137.5t102.5 427.5v574h-854v-721h-102v1462h102v-647h854v647h103v-1315q0 -331 -123 -495t-383 -164z" />
<glyph unicode="&#x4c8;" horiz-adv-x="1251" d="M281 1087v-475h690v475h98v-1052q0 -270 -81 -398.5t-261 -128.5q-126 0 -213 54v98q97 -61 217 -61q240 0 240 436v491h-690v-526h-99v1087h99z" />
<glyph unicode="&#x4c9;" horiz-adv-x="1473" d="M1266 94h153l-147 -463h-117l131 369h-123v719h-854v-719h-102v1462h102v-649h854v649h103v-1368z" />
<glyph unicode="&#x4ca;" horiz-adv-x="1251" d="M281 1087v-479h690v479h98v-993h154l-148 -463h-117l132 369h-119v522h-690v-522h-99v1087h99z" />
<glyph unicode="&#x4cb;" horiz-adv-x="1372" d="M602 532q-420 0 -420 367v563h103v-567q0 -266 325 -266q96 0 192 17.5t261 76.5v739h102v-1462h-123v-369h-98v463h119v541q-261 -103 -461 -103z" />
<glyph unicode="&#x4cc;" horiz-adv-x="1188" d="M907 516q-186 -143 -405 -143q-167 0 -252.5 87t-85.5 251v376h98v-364q0 -138 67 -199t206 -61q189 0 372 147v477h99v-1087h-119v-369h-99v463h119v422z" />
<glyph unicode="&#x4cd;" horiz-adv-x="1767" d="M850 0l-545 1350h-8q8 -124 8 -254v-1096h-98v1462h158l518 -1286h6l518 1286h154v-1368h153l-147 -463h-117l131 369h-123v1108q0 116 12 240h-8l-547 -1348h-65z" />
<glyph unicode="&#x4ce;" horiz-adv-x="1382" d="M1106 967q-44 -126 -373 -967h-88l-301 764q-19 46 -35.5 97t-36.5 110v-971h-90v1087h131l314 -800q37 -97 61 -181l62 175l313 806h137v-993h154l-148 -463h-116l131 369h-115v967z" />
<glyph unicode="&#x4cf;" horiz-adv-x="516" d="M207 0v1462h102v-1462h-102z" />
<glyph unicode="&#x4d0;" horiz-adv-x="1229" d="M911 516h-594l-204 -516h-113l588 1468h65l576 -1468h-115zM354 608h523l-199 527q-25 62 -60 172q-27 -96 -59 -174zM619 1579q-149 0 -227 66.5t-91 214.5h88q15 -110 68 -155.5t163.5 -45.5t164 47t65.5 154h88q-21 -281 -319 -281z" />
<glyph unicode="&#x4d1;" horiz-adv-x="1085" d="M842 0l-25 172h-8q-82 -105 -168.5 -148.5t-225.5 -43.5t-228 82t-89 234t132.5 240t383.5 93l207 6v72q0 155 -63 234t-208.5 79t-307.5 -84l-37 86q179 84 356 84t265.5 -93t88.5 -290v-723h-73zM442 70q174 0 274.5 99.5t100.5 276.5v107l-190 -8 q-229 -11 -326.5 -71.5t-97.5 -175.5t62.5 -171.5t176.5 -56.5zM546 1241q-149 0 -227 66.5t-91 214.5h88q15 -110 68 -155.5t163.5 -45.5t164 47t65.5 154h88q-21 -281 -319 -281z" />
<glyph unicode="&#x4d2;" horiz-adv-x="1229" d="M911 516h-594l-204 -516h-113l588 1468h65l576 -1468h-115zM354 608h523l-199 527q-25 62 -60 172q-27 -96 -59 -174zM367 1727q0 86 63.5 86t63.5 -86t-63.5 -86t-63.5 86zM748 1727q0 86 63.5 86t63.5 -86t-63.5 -86t-63.5 86z" />
<glyph unicode="&#x4d3;" horiz-adv-x="1085" d="M842 0l-25 172h-8q-82 -105 -168.5 -148.5t-225.5 -43.5t-228 82t-89 234t132.5 240t383.5 93l207 6v72q0 155 -63 234t-208.5 79t-307.5 -84l-37 86q179 84 356 84t265.5 -93t88.5 -290v-723h-73zM442 70q174 0 274.5 99.5t100.5 276.5v107l-190 -8 q-229 -11 -326.5 -71.5t-97.5 -175.5t62.5 -171.5t176.5 -56.5zM282 1389q0 86 63.5 86t63.5 -86t-63.5 -86t-63.5 86zM663 1389q0 86 63.5 86t63.5 -86t-63.5 -86t-63.5 86z" />
<glyph unicode="&#x4d4;" horiz-adv-x="1653" d="M1528 0h-717v516h-475l-227 -516h-111l653 1462h877v-94h-615v-553h576v-94h-576v-627h615v-94zM377 608h434v760h-100z" />
<glyph unicode="&#x4d5;" horiz-adv-x="1731" d="M1243 -20q-295 0 -397 256q-68 -133 -168 -194.5t-254 -61.5t-240 82.5t-86 231.5t125 238t377 97l201 6v72q0 155 -61.5 234t-204 79t-299.5 -84l-37 86q173 84 346 84q261 0 325 -211q111 213 347 213q184 0 289.5 -134.5t105.5 -363.5v-80h-715q0 -460 348 -460 q85 0 150 12t174 57v-90q-92 -41 -165 -55t-161 -14zM434 70q169 0 266 99.5t97 276.5v107l-187 -8q-219 -11 -313 -71.5t-94 -175.5t61 -171.5t170 -56.5zM1217 1020q-284 0 -314 -402h604q0 188 -77.5 295t-212.5 107z" />
<glyph unicode="&#x4d6;" horiz-adv-x="1130" d="M1006 0h-799v1462h799v-94h-697v-553h658v-94h-658v-627h697v-94zM592 1579q-149 0 -227 66.5t-91 214.5h88q15 -110 68 -155.5t163.5 -45.5t164 47t65.5 154h88q-21 -281 -319 -281z" />
<glyph unicode="&#x4d7;" horiz-adv-x="1124" d="M963 49q-159 -69 -342 -69q-237 0 -369.5 146t-132.5 407.5t128 418t332.5 156.5t315.5 -134t111 -364v-80h-783q2 -224 104.5 -342t293.5 -118q93 0 163.5 13t178.5 56v-90zM819 913.5q-82 106.5 -233 106.5t-246 -103.5t-111 -298.5h672q0 189 -82 295.5zM579 1241 q-149 0 -227 66.5t-91 214.5h88q15 -110 68 -155.5t163.5 -45.5t164 47t65.5 154h88q-21 -281 -319 -281z" />
<glyph unicode="&#x4d8;" horiz-adv-x="1442" d="M223 1413q214 72 416 72q329 0 501.5 -195.5t172.5 -560.5q0 -224 -75 -394t-217 -262.5t-335 -92.5q-275 0 -417 185.5t-142 549.5v61h1077q-34 610 -565 610q-189 0 -416 -73v100zM353.5 231.5q115.5 -155.5 339.5 -155.5t360.5 160.5t150.5 445.5h-966 q0 -295 115.5 -450.5z" />
<glyph unicode="&#x4d9;" horiz-adv-x="1124" d="M504 1108q237 0 369.5 -146t132.5 -409q0 -172 -59 -303.5t-167 -200.5t-248 -69q-191 0 -302 133.5t-111 363.5v80h782q-2 223 -103.5 342t-293.5 119q-89 0 -162.5 -14t-179.5 -56v90q90 39 165.5 54.5t176.5 15.5zM304.5 175.5q81.5 -107.5 233 -107.5t246.5 104 t111 297h-672q0 -186 81.5 -293.5z" />
<glyph unicode="&#x4da;" horiz-adv-x="1442" d="M223 1413q214 72 416 72q329 0 501.5 -195.5t172.5 -560.5q0 -224 -75 -394t-217 -262.5t-335 -92.5q-275 0 -417 185.5t-142 549.5v61h1077q-34 610 -565 610q-189 0 -416 -73v100zM353.5 231.5q115.5 -155.5 339.5 -155.5t360.5 160.5t150.5 445.5h-966 q0 -295 115.5 -450.5zM488 1727q0 86 63.5 86t63.5 -86t-63.5 -86t-63.5 86zM869 1727q0 86 63.5 86t63.5 -86t-63.5 -86t-63.5 86z" />
<glyph unicode="&#x4db;" horiz-adv-x="1124" d="M504 1108q237 0 369.5 -146t132.5 -409q0 -172 -59 -303.5t-167 -200.5t-248 -69q-191 0 -302 133.5t-111 363.5v80h782q-2 223 -103.5 342t-293.5 119q-89 0 -162.5 -14t-179.5 -56v90q90 39 165.5 54.5t176.5 15.5zM304.5 175.5q81.5 -107.5 233 -107.5t246.5 104 t111 297h-672q0 -186 81.5 -293.5zM310 1389q0 86 63.5 86t63.5 -86t-63.5 -86t-63.5 86zM691 1389q0 86 63.5 86t63.5 -86t-63.5 -86t-63.5 86z" />
<glyph unicode="&#x4dc;" horiz-adv-x="1597" d="M625 745l-592 717h127l588 -708v708h102v-708l588 708h127l-594 -710l626 -752h-135l-612 741v-741h-102v741l-613 -741h-135zM545 1727q0 86 63.5 86t63.5 -86t-63.5 -86t-63.5 86zM926 1727q0 86 63.5 86t63.5 -86t-63.5 -86t-63.5 86z" />
<glyph unicode="&#x4dd;" horiz-adv-x="1362" d="M631 1087h100v-528l467 528h121l-471 -528l508 -559h-127l-498 551v-551h-100v551l-498 -551h-127l506 555l-469 532h121l467 -528v528zM426 1389q0 86 63.5 86t63.5 -86t-63.5 -86t-63.5 86zM807 1389q0 86 63.5 86t63.5 -86t-63.5 -86t-63.5 86z" />
<glyph unicode="&#x4de;" horiz-adv-x="1145" d="M920 403q0 308 -449 308h-217v96h225q212 0 313 80t101 216t-92.5 211t-222.5 75t-223 -31.5t-201 -108.5l-58 80q202 154 463 154q205 0 323.5 -98t118.5 -265q0 -286 -303 -352v-6q332 -71 332 -356q0 -201 -141.5 -313.5t-391.5 -112.5t-415 86v104q198 -96 402.5 -96 t320 86.5t115.5 242.5zM310 1727q0 86 63.5 86t63.5 -86t-63.5 -86t-63.5 86zM691 1727q0 86 63.5 86t63.5 -86t-63.5 -86t-63.5 86z" />
<glyph unicode="&#x4df;" horiz-adv-x="926" d="M719 311q0 221 -316 221h-151v86h135q295 0 295 203q0 97 -68 148t-198 51t-293 -72l-37 82q174 78 345 78t263 -74t92 -205q0 -189 -194 -241v-6q231 -57 231 -277q0 -151 -110.5 -238t-314.5 -87t-330 75v99q103 -49 178 -66.5t160 -17.5q148 0 230.5 62.5t82.5 178.5z M194 1389q0 86 63.5 86t63.5 -86t-63.5 -86t-63.5 86zM575 1389q0 86 63.5 86t63.5 -86t-63.5 -86t-63.5 86z" />
<glyph unicode="&#x4e0;" horiz-adv-x="1153" d="M442 815q286 0 441 -107t155 -308t-142 -310.5t-398.5 -109.5t-415.5 83v109q198 -96 409 -96t324 85t113 238t-122 233.5t-351 80.5h-152v86l565 567h-749v96h882v-96z" />
<glyph unicode="&#x4e1;" horiz-adv-x="942" d="M770 0q0 346 -453 346h-124v80l507 573h-645v88h781v-73l-517 -578q291 -3 423 -112t132 -324q0 -148 -62 -260.5t-174.5 -172t-254.5 -59.5q-209 0 -352 68v102q165 -79 347 -79t287 108t105 293z" />
<glyph unicode="&#x4e2;" horiz-adv-x="1477" d="M207 1462h98v-956q0 -102 -8 -342h6l864 1298h103v-1462h-99v950q0 162 13 350h-8l-867 -1300h-102v1462zM461 1671h555v-82h-555v82z" />
<glyph unicode="&#x4e3;" horiz-adv-x="1229" d="M276 1087v-786l-6 -205l645 991h132v-1087h-95v781l4 210l-645 -991h-129v1087h94zM338 1333h555v-82h-555v82z" />
<glyph unicode="&#x4e4;" horiz-adv-x="1477" d="M207 1462h98v-956q0 -102 -8 -342h6l864 1298h103v-1462h-99v950q0 162 13 350h-8l-867 -1300h-102v1462zM483 1727q0 86 63.5 86t63.5 -86t-63.5 -86t-63.5 86zM864 1727q0 86 63.5 86t63.5 -86t-63.5 -86t-63.5 86z" />
<glyph unicode="&#x4e5;" horiz-adv-x="1229" d="M276 1087v-786l-6 -205l645 991h132v-1087h-95v781l4 210l-645 -991h-129v1087h94zM361 1389q0 86 63.5 86t63.5 -86t-63.5 -86t-63.5 86zM742 1389q0 86 63.5 86t63.5 -86t-63.5 -86t-63.5 86z" />
<glyph unicode="&#x4e6;" horiz-adv-x="1565" d="M1263 1283.5q173 -201.5 173 -550t-174 -551t-479.5 -202.5t-479.5 202.5t-174 552t175.5 550t480.5 200.5t478 -201.5zM381.5 1216q-141.5 -170 -141.5 -483.5t140 -485t403 -171.5t402.5 170t139.5 486.5t-139.5 485t-401 168.5t-403 -170zM529 1727q0 86 63.5 86 t63.5 -86t-63.5 -86t-63.5 86zM910 1727q0 86 63.5 86t63.5 -86t-63.5 -86t-63.5 86z" />
<glyph unicode="&#x4e7;" horiz-adv-x="1200" d="M953.5 957.5q127.5 -150.5 127.5 -414.5t-129 -413.5t-356 -149.5q-143 0 -252 69t-167 198t-58 298q0 266 129 414.5t353.5 148.5t352 -150.5zM320.5 894.5q-97.5 -123.5 -97.5 -348.5t98.5 -350.5t278.5 -125.5t278.5 125.5t98.5 350t-99.5 348.5t-279.5 124 t-277.5 -123.5zM346 1389q0 86 63.5 86t63.5 -86t-63.5 -86t-63.5 86zM727 1389q0 86 63.5 86t63.5 -86t-63.5 -86t-63.5 86z" />
<glyph unicode="&#x4e8;" horiz-adv-x="1565" d="M1263 1283.5q173 -201.5 173 -550t-174 -551t-479.5 -202.5t-479.5 202.5t-174 552t175.5 550t480.5 200.5t478 -201.5zM387.5 237.5q139.5 -161.5 395 -161.5t395 160t147.5 462h-1085q8 -299 147.5 -460.5zM1170.5 1233.5q-139.5 152.5 -388 152.5t-387.5 -153.5 t-153 -439.5h1081q-13 288 -152.5 440.5z" />
<glyph unicode="&#x4e9;" horiz-adv-x="1200" d="M953.5 957.5q127.5 -150.5 127.5 -414.5t-129 -413.5t-356 -149.5q-143 0 -252 69t-167 198t-58 298q0 266 129 414.5t353.5 148.5t352 -150.5zM326 190.5q99 -120.5 273.5 -120.5t273 118.5t104.5 333.5h-754q4 -211 103 -331.5zM860.5 912q-98.5 106 -263 106 t-261.5 -107.5t-111 -300.5h750q-16 196 -114.5 302z" />
<glyph unicode="&#x4ea;" horiz-adv-x="1565" d="M1263 1283.5q173 -201.5 173 -550t-174 -551t-479.5 -202.5t-479.5 202.5t-174 552t175.5 550t480.5 200.5t478 -201.5zM387.5 237.5q139.5 -161.5 395 -161.5t395 160t147.5 462h-1085q8 -299 147.5 -460.5zM1170.5 1233.5q-139.5 152.5 -388 152.5t-387.5 -153.5 t-153 -439.5h1081q-13 288 -152.5 440.5zM529 1727q0 86 63.5 86t63.5 -86t-63.5 -86t-63.5 86zM910 1727q0 86 63.5 86t63.5 -86t-63.5 -86t-63.5 86z" />
<glyph unicode="&#x4eb;" horiz-adv-x="1200" d="M953.5 957.5q127.5 -150.5 127.5 -414.5t-129 -413.5t-356 -149.5q-143 0 -252 69t-167 198t-58 298q0 266 129 414.5t353.5 148.5t352 -150.5zM326 190.5q99 -120.5 273.5 -120.5t273 118.5t104.5 333.5h-754q4 -211 103 -331.5zM860.5 912q-98.5 106 -263 106 t-261.5 -107.5t-111 -300.5h750q-16 196 -114.5 302zM346 1389q0 86 63.5 86t63.5 -86t-63.5 -86t-63.5 86zM727 1389q0 86 63.5 86t63.5 -86t-63.5 -86t-63.5 86z" />
<glyph unicode="&#x4ec;" horiz-adv-x="1266" d="M434 1391q-157 0 -317 -78l-41 92q164 78 368 78q324 0 508.5 -192t184.5 -525q0 -239 -83 -417t-239.5 -273.5t-378 -95.5t-366.5 51v94q167 -51 364 -51q270 0 425 169t169 476h-774v94h772q-22 278 -174.5 428t-417.5 150zM329 1727q0 86 63.5 86t63.5 -86t-63.5 -86 t-63.5 86zM710 1727q0 86 63.5 86t63.5 -86t-63.5 -86t-63.5 86z" />
<glyph unicode="&#x4ed;" horiz-adv-x="1006" d="M358 -20q-193 0 -290 51v92q127 -53 284 -53q196 0 313 124.5t119 335.5h-620v88h616q-17 197 -119.5 298.5t-281.5 101.5q-106 0 -266 -60l-29 89q56 23 140 42t153 19q244 0 377 -144t133 -410t-141.5 -420t-387.5 -154zM214 1389q0 86 63.5 86t63.5 -86t-63.5 -86 t-63.5 86zM595 1389q0 86 63.5 86t63.5 -86t-63.5 -86t-63.5 86z" />
<glyph unicode="&#x4ee;" horiz-adv-x="1204" d="M441 14q-67 -34 -175.5 -34t-181.5 30v103q86 -37 170 -37t135.5 24.5t95.5 79t107 182.5l-582 1100h121l447 -854q35 -69 63 -143h4l25 61l420 936h114l-469 -1028q-45 -99 -86 -182.5t-91 -143.5t-117 -94zM338 1671h555v-82h-555v82z" />
<glyph unicode="&#x4ef;" horiz-adv-x="940" d="M0 1087h102l230 -610q105 -281 133 -379h6q42 129 137 385l230 604h102l-487 -1263q-59 -154 -99 -208q-80 -108 -223 -108q-57 0 -127 21v86q58 -16 117 -16t98 24t71 75q39 63 126 302zM194 1333h555v-82h-555v82z" />
<glyph unicode="&#x4f0;" horiz-adv-x="1204" d="M441 14q-67 -34 -175.5 -34t-181.5 30v103q86 -37 170 -37t135.5 24.5t95.5 79t107 182.5l-582 1100h121l447 -854q35 -69 63 -143h4l25 61l420 936h114l-469 -1028q-45 -99 -86 -182.5t-91 -143.5t-117 -94zM365 1727q0 86 63.5 86t63.5 -86t-63.5 -86t-63.5 86z M746 1727q0 86 63.5 86t63.5 -86t-63.5 -86t-63.5 86z" />
<glyph unicode="&#x4f1;" horiz-adv-x="940" d="M0 1087h102l230 -610q105 -281 133 -379h6q42 129 137 385l230 604h102l-487 -1263q-59 -154 -99 -208q-80 -108 -223 -108q-57 0 -127 21v86q58 -16 117 -16t98 24t71 75q39 63 126 302zM214 1389q0 86 63.5 86t63.5 -86t-63.5 -86t-63.5 86zM595 1389q0 86 63.5 86 t63.5 -86t-63.5 -86t-63.5 86z" />
<glyph unicode="&#x4f2;" horiz-adv-x="1204" d="M441 14q-67 -34 -175.5 -34t-181.5 30v103q86 -37 170 -37t135.5 24.5t95.5 79t107 182.5l-582 1100h121l447 -854q35 -69 63 -143h4l25 61l420 936h114l-469 -1028q-45 -99 -86 -182.5t-91 -143.5t-117 -94zM367 1595q31 33 67 90t121 222h136v-17q-135 -202 -254 -311 h-70v16zM705 1595q31 33 67 90t121 222h136v-17q-135 -202 -254 -311h-70v16z" />
<glyph unicode="&#x4f3;" horiz-adv-x="940" d="M0 1087h102l230 -610q105 -281 133 -379h6q42 129 137 385l230 604h102l-487 -1263q-59 -154 -99 -208q-80 -108 -223 -108q-57 0 -127 21v86q58 -16 117 -16t98 24t71 75q39 63 126 302zM212 1257q31 33 67 90t121 222h136v-17q-135 -202 -254 -311h-70v16zM550 1257 q31 33 67 90t121 222h136v-17q-135 -202 -254 -311h-70v16z" />
<glyph unicode="&#x4f4;" horiz-adv-x="1372" d="M602 532q-420 0 -420 367v563h103v-567q0 -266 325 -266q96 0 192 17.5t261 76.5v739h102v-1462h-102v635q-261 -103 -461 -103zM420 1727q0 86 63.5 86t63.5 -86t-63.5 -86t-63.5 86zM801 1727q0 86 63.5 86t63.5 -86t-63.5 -86t-63.5 86z" />
<glyph unicode="&#x4f5;" horiz-adv-x="1188" d="M907 516q-186 -143 -405 -143q-167 0 -252.5 87t-85.5 251v376h98v-364q0 -138 67 -199t206 -61q189 0 372 147v477h99v-1087h-99v516zM331 1389q0 86 63.5 86t63.5 -86t-63.5 -86t-63.5 86zM712 1389q0 86 63.5 86t63.5 -86t-63.5 -86t-63.5 86z" />
<glyph unicode="&#x4f6;" horiz-adv-x="1028" d="M207 1462h801v-94h-699v-1274h99v-463h-99v369h-102v1462z" />
<glyph unicode="&#x4f7;" horiz-adv-x="862" d="M182 1087h639v-86h-540v-907h98v-463h-98v369h-99v1087z" />
<glyph unicode="&#x4f8;" horiz-adv-x="1669" d="M1462 0h-102v1462h102v-1462zM309 817h283q251 0 377.5 -95.5t126.5 -299.5t-124 -313t-358 -109h-407v1462h102v-645zM309 90h289q204 0 295.5 83t91.5 246.5t-95 235.5t-312 72h-269v-637zM576 1727q0 86 63.5 86t63.5 -86t-63.5 -86t-63.5 86zM957 1727q0 86 63.5 86 t63.5 -86t-63.5 -86t-63.5 86z" />
<glyph unicode="&#x4f9;" horiz-adv-x="1481" d="M281 629h346q383 0 383 -301q0 -155 -107 -241.5t-307 -86.5h-414v1087h99v-458zM281 535v-441h331q141 0 217 59t76 172t-67 161.5t-232 48.5h-325zM1298 0h-98v1087h98v-1087zM486 1389q0 86 63.5 86t63.5 -86t-63.5 -86t-63.5 86zM867 1389q0 86 63.5 86t63.5 -86 t-63.5 -86t-63.5 86z" />
<glyph unicode="&#x4fa;" horiz-adv-x="1028" d="M309 772h439v-94h-439v-584h119v-244q0 -104 -46 -161.5t-119.5 -57.5t-115.5 21v92q45 -18 84 -18q99 0 99 124v150h-123v678h-160v94h160v690h801v-94h-699v-596z" />
<glyph unicode="&#x4fb;" horiz-adv-x="862" d="M821 1001h-540v-409h366v-86h-366v-412h118v-244q0 -104 -46 -161.5t-120.5 -57.5t-113.5 21v92q45 -18 84 -18q98 0 98 124v150h-119v506h-164v86h164v495h639v-86z" />
<glyph unicode="&#x4fc;" horiz-adv-x="1192" d="M1042 94h119v-244q0 -104 -46 -161.5t-120.5 -57.5t-113.5 21v92q45 -18 84 -18q98 0 98 124v150h-78l-432 682l-440 -682h-113l492 762l-447 700h115l395 -626l401 626h109l-453 -698z" />
<glyph unicode="&#x4fd;" horiz-adv-x="1036" d="M449 559l-379 528h114l324 -458l321 458h109l-373 -528l332 -465h109v-244q0 -104 -46 -161.5t-121 -57.5t-114 21v92q45 -18 84 -18q98 0 98 124v150h-57l-342 485l-344 -485h-109z" />
<glyph unicode="&#x4fe;" horiz-adv-x="1102" d="M147 831h299l-401 631h115l395 -626l401 626h109l-410 -631h303v-90h-331l475 -741h-117l-432 682l-440 -682h-113l477 741h-330v90z" />
<glyph unicode="&#x4ff;" horiz-adv-x="1020" d="M123 608h291l-344 479h114l324 -458l321 458h109l-338 -479h297v-82h-309l377 -526h-115l-342 485l-344 -485h-109l371 526h-303v82z" />
<glyph unicode="&#x500;" horiz-adv-x="1219" d="M909 1462h103v-1462h-420q-233 0 -357 108.5t-124 313t126 300t377 95.5h295v645zM909 727h-280q-217 0 -312.5 -71.5t-95.5 -235.5t91.5 -247t295.5 -83h301v637z" />
<glyph unicode="&#x501;" horiz-adv-x="1219" d="M580 1108q118 0 204 -43t154 -147h6q-6 126 -6 247v391h98v-1556h-65l-25 166h-8q-124 -186 -352.5 -186t-347.5 140t-119 415t118 424t343 149zM853.5 907.5q-84.5 110.5 -267.5 110.5q-363 0 -363 -488q0 -462 359 -462q184 0 270 107t86 353v17q0 252 -84.5 362.5z " />
<glyph unicode="&#x502;" horiz-adv-x="1759" d="M1231 76q235 0 235 297v475h103v-481q0 -184 -89.5 -285.5t-254.5 -101.5q-236 0 -330 182q-121 -182 -338 -182t-330.5 105t-113.5 307.5t144.5 313.5t408.5 111h190v645h102v-1083q0 -303 273 -303zM856 725h-197q-436 0 -436 -334q0 -156 85.5 -238.5t237 -82.5 t231 79t79.5 213v363z" />
<glyph unicode="&#x503;" horiz-adv-x="1769" d="M237 959q118 149 339.5 149t330.5 -190h6q-6 126 -6 247v391h99v-1142q0 -177 61 -261.5t183 -84.5q251 0 251 305v327h98v-333q0 -189 -88 -288t-256 -99q-249 0 -315 223h-6q-109 -223 -343 -223t-353 140t-119 415t118 424zM830 902.5q-77 115.5 -252.5 115.5 t-265 -125t-89.5 -363q0 -462 359 -462q166 0 245.5 111t79.5 349v17q0 242 -77 357.5z" />
<glyph unicode="&#x504;" horiz-adv-x="1774" d="M1241 76q240 0 240 295v477h102v-481q0 -188 -88 -287.5t-266.5 -99.5t-267 97.5t-96.5 288.5t-109 268t-322 77h-194v96h194q199 0 301.5 79.5t102.5 216.5t-85 211.5t-204.5 74.5t-208.5 -30.5t-201 -109.5l-57 80q112 82 218 118t232 36q194 0 304 -98t110 -252 q0 -301 -301 -365v-6q171 -37 246 -124.5t86.5 -256.5t70.5 -237t193 -68z" />
<glyph unicode="&#x505;" horiz-adv-x="1546" d="M80 1030q178 78 333 78t247 -74t92 -209q0 -91 -49.5 -152.5t-145.5 -84.5v-6q113 -24 165.5 -83t67 -165t42 -162t72.5 -80t138 -24q236 0 236 305v327h98v-333q0 -189 -85 -288t-249 -99q-116 0 -185.5 33t-108 103.5t-56 195.5t-83.5 172.5t-220 47.5h-143v86h112 q141 0 215 52t74 148t-65 149t-186.5 53t-278.5 -72z" />
<glyph unicode="&#x506;" horiz-adv-x="1184" d="M899 403q0 308 -453 308h-206v96h225q212 0 313 80t101 216t-92.5 211t-223 75t-224 -32t-200.5 -108l-57 80q202 154 463 154q205 0 323.5 -99t118.5 -252q0 -299 -303 -364v-6q171 -35 244 -118t73 -238v-312h119v-463h-98v369h-123v403z" />
<glyph unicode="&#x507;" horiz-adv-x="983" d="M713 319q0 213 -314 213h-147v86h135q295 0 295 203q0 97 -68 148t-198 51t-293 -72l-37 82q174 78 345 78t263 -74t92 -205q0 -189 -194 -241v-6q122 -31 170.5 -95t48.5 -174v-219h119v-463h-99v369h-118v319z" />
<glyph unicode="&#x508;" horiz-adv-x="1907" d="M1006 1366h-443l-36 -258q-89 -641 -139.5 -827t-109 -245t-141 -59t-137.5 25v92q61 -22 111.5 -22t84.5 31.5t58 88t59 220.5q62 292 164 1050h631v-1079q0 -167 61 -237t195 -70q250 0 250 297v475h102v-481q0 -184 -93.5 -285.5t-269 -101.5t-261.5 99t-86 302v985z " />
<glyph unicode="&#x509;" horiz-adv-x="1667" d="M903 369q0 -301 256 -301q111 0 175.5 71.5t64.5 225.5v335h98v-333q0 -188 -86.5 -287.5t-251.5 -99.5q-354 0 -354 401v614h-354q-30 -400 -73.5 -607t-114 -302.5t-181.5 -95.5q-33 0 -62 8v90q20 -6 50 -6q115 0 184.5 233t107.5 772h541v-718z" />
<glyph unicode="&#x50a;" horiz-adv-x="2023" d="M1225 373q0 -153 60.5 -226t195.5 -73q250 0 250 288v486h102v-481q0 -184 -91.5 -285.5t-267.5 -101.5q-352 0 -352 401v338h-813v-719h-102v1462h102v-649h813v649h103v-1089z" />
<glyph unicode="&#x50b;" horiz-adv-x="1802" d="M1292 -20q-352 0 -352 401v143h-659v-524h-99v1087h99v-477h659v477h98v-714q0 -305 254 -305q118 0 180 75.5t62 221.5v335h98v-333q0 -189 -87.5 -288t-252.5 -99z" />
<glyph unicode="&#x50c;" horiz-adv-x="1503" d="M1243 1311q-183 80 -377 80q-290 0 -458 -174t-168 -484.5t148 -485.5t402 -175t370 137.5t116 427.5h-410v96h518v-88q0 -665 -587 -665q-313 0 -490.5 200t-177.5 553q0 229 90.5 399t259.5 260.5t391 90.5q228 0 412 -78z" />
<glyph unicode="&#x50d;" horiz-adv-x="1257" d="M676 547h477v-68q0 -246 -122 -372.5t-371.5 -126.5t-395 147.5t-145.5 411.5q0 173 70.5 302.5t205 198t331 68.5t359.5 -68l-32 -88q-150 66 -336 66q-234 0 -364 -123.5t-130 -351.5t116 -350.5t333 -122.5q383 0 383 391h-379v86z" />
<glyph unicode="&#x50e;" horiz-adv-x="1386" d="M10 1366v96h1057v-96h-479v-983q0 -161 62.5 -235t203.5 -74q240 0 240 299v475h102v-481q0 -187 -90 -287t-264 -100q-357 0 -357 401v985h-475z" />
<glyph unicode="&#x50f;" horiz-adv-x="1264" d="M862 1001h-362v-618q0 -315 256 -315q239 0 239 305v327h99v-333q0 -188 -86.5 -287.5t-251.5 -99.5q-355 0 -355 401v620h-360v86h821v-86z" />
<glyph unicode="&#x510;" horiz-adv-x="1159" d="M244 884q-86 87 -86 209.5t57 209t162 133.5t237 47q273 0 463 -111l-51 -90q-181 107 -412 107q-154 0 -251 -77t-97 -215t126.5 -214t346.5 -76h166v-96h-196q-233 0 -357.5 -84.5t-124.5 -239.5t110 -234t333 -79t399 86v-101q-151 -79 -413.5 -79t-401.5 104.5 t-139 300.5q0 146 100.5 245.5t280.5 131.5v6q-166 29 -252 116z" />
<glyph unicode="&#x511;" horiz-adv-x="928" d="M672 618v-86h-140q-169 0 -251 -62.5t-82 -171t87 -168.5t244 -60q76 0 140 14t174 66v-93q-135 -77 -329.5 -77t-307.5 81t-113 226q0 224 248 284v9q-215 63 -215 239q0 133 103 211t282 78q180 0 340 -68l-37 -84q-148 64 -297 64q-287 0 -287 -201t326 -201h115z" />
<glyph unicode="&#x512;" horiz-adv-x="1395" d="M1085 1366h-530q-96 -797 -165 -1076q-31 -129 -66 -192q-67 -121 -207 -121q-67 0 -117 25v92q61 -22 113 -22q87 0 135 108q85 188 221 1282h719v-1368h119v-244q0 -104 -46 -161.5t-137 -57.5q-56 0 -98 21v92q45 -18 84 -18q98 0 98 124v150h-123v1366z" />
<glyph unicode="&#x513;" horiz-adv-x="1116" d="M836 995h-385q-30 -395 -73.5 -602.5t-112 -305t-177.5 -97.5q-39 0 -68 8v90q19 -6 54 -6q113 0 182.5 238.5t105.5 766.5h572v-993h119v-244q0 -104 -46 -161.5t-137 -57.5q-56 0 -98 21v92q45 -18 84 -18q98 0 98 124v150h-118v995z" />
<glyph unicode="&#x1e00;" horiz-adv-x="1229" d="M911 516h-594l-204 -516h-113l588 1468h65l576 -1468h-115zM354 608h523l-199 527q-25 62 -60 172q-27 -96 -59 -174zM771 -186q60 -59 60 -154t-60 -153t-157 -58t-157 58t-60 153.5t60 154t157 58.5t157 -59zM514.5 -237q-37.5 -38 -37.5 -102.5t37.5 -102t99.5 -37.5 t99.5 37.5t37.5 102.5t-39 102.5t-99.5 37.5t-98 -38z" />
<glyph unicode="&#x1e01;" horiz-adv-x="1085" d="M842 0l-25 172h-8q-82 -105 -168.5 -148.5t-225.5 -43.5t-228 82t-89 234t132.5 240t383.5 93l207 6v72q0 155 -63 234t-208.5 79t-307.5 -84l-37 86q179 84 356 84t265.5 -93t88.5 -290v-723h-73zM442 70q174 0 274.5 99.5t100.5 276.5v107l-190 -8 q-229 -11 -326.5 -71.5t-97.5 -175.5t62.5 -171.5t176.5 -56.5zM677 -186q60 -59 60 -154t-60 -153t-157 -58t-157 58t-60 153.5t60 154t157 58.5t157 -59zM420.5 -237q-37.5 -38 -37.5 -102.5t37.5 -102t99.5 -37.5t99.5 37.5t37.5 102.5t-39 102.5t-99.5 37.5t-98 -38z " />
<glyph unicode="&#x1e3e;" horiz-adv-x="1767" d="M850 0l-545 1350h-8q8 -124 8 -254v-1096h-98v1462h158l518 -1286h6l518 1286h154v-1462h-103v1108q0 116 12 240h-8l-547 -1348h-65zM1161 1892q-81 -117 -313 -311h-70v16q73 79 144.5 171.5t97.5 140.5h141v-17z" />
<glyph unicode="&#x1e3f;" horiz-adv-x="1808" d="M1540 0v713q0 159 -62 232t-210 73q-307 0 -307 -381v-637h-101v743q0 275 -252 275q-171 0 -249 -99.5t-78 -318.5v-600h-99v1087h82l21 -149h6q45 81 128 125.5t183 44.5q257 0 330 -193h4q53 93 142.5 143t203.5 50q178 0 267 -95t89 -302v-711h-98zM1220 1552 q-81 -117 -313 -311h-70v16q73 79 144.5 171.5t97.5 140.5h141v-17z" />
<glyph unicode="&#x1e80;" horiz-adv-x="1827" d="M1372 0h-84l-321 1128q-40 139 -60 228q-16 -87 -45.5 -200t-322.5 -1156h-86l-402 1462h107l256 -942q15 -57 28 -105.5t24 -90.5q21 -87 34 -162q24 136 102 413l250 887h113l293 -1018q51 -176 73 -284q13 72 33.5 153t308.5 1149h103zM1028 1579h-69 q-96 79 -188.5 171.5t-125.5 139.5v17h142q26 -48 98.5 -142t142.5 -170v-16z" />
<glyph unicode="&#x1e81;" horiz-adv-x="1481" d="M1051 0l-238 727q-23 74 -59 217h-6l-66 -219l-242 -725h-98l-311 1087h106l174 -630q61 -234 80 -344h6q59 234 86 311l224 663h90l213 -661q72 -235 88 -311h6q8 65 80 348l166 624h100l-295 -1087h-104zM864 1241h-69q-96 79 -188.5 171.5t-125.5 139.5v17h142 q26 -48 98.5 -142t142.5 -170v-16z" />
<glyph unicode="&#x1e82;" horiz-adv-x="1827" d="M1372 0h-84l-321 1128q-40 139 -60 228q-16 -87 -45.5 -200t-322.5 -1156h-86l-402 1462h107l256 -942q15 -57 28 -105.5t24 -90.5q21 -87 34 -162q24 136 102 413l250 887h113l293 -1018q51 -176 73 -284q13 72 33.5 153t308.5 1149h103zM1198 1890q-81 -117 -313 -311 h-70v16q73 79 144.5 171.5t97.5 140.5h141v-17z" />
<glyph unicode="&#x1e83;" horiz-adv-x="1481" d="M1051 0l-238 727q-23 74 -59 217h-6l-66 -219l-242 -725h-98l-311 1087h106l174 -630q61 -234 80 -344h6q59 234 86 311l224 663h90l213 -661q72 -235 88 -311h6q8 65 80 348l166 624h100l-295 -1087h-104zM1044 1552q-81 -117 -313 -311h-70v16q73 79 144.5 171.5 t97.5 140.5h141v-17z" />
<glyph unicode="&#x1e84;" horiz-adv-x="1827" d="M1372 0h-84l-321 1128q-40 139 -60 228q-16 -87 -45.5 -200t-322.5 -1156h-86l-402 1462h107l256 -942q15 -57 28 -105.5t24 -90.5q21 -87 34 -162q24 136 102 413l250 887h113l293 -1018q51 -176 73 -284q13 72 33.5 153t308.5 1149h103zM655 1727q0 86 63.5 86 t63.5 -86t-63.5 -86t-63.5 86zM1036 1727q0 86 63.5 86t63.5 -86t-63.5 -86t-63.5 86z" />
<glyph unicode="&#x1e85;" horiz-adv-x="1481" d="M1051 0l-238 727q-23 74 -59 217h-6l-66 -219l-242 -725h-98l-311 1087h106l174 -630q61 -234 80 -344h6q59 234 86 311l224 663h90l213 -661q72 -235 88 -311h6q8 65 80 348l166 624h100l-295 -1087h-104zM498 1389q0 86 63.5 86t63.5 -86t-63.5 -86t-63.5 86zM879 1389 q0 86 63.5 86t63.5 -86t-63.5 -86t-63.5 86z" />
<glyph unicode="&#x1ea0;" horiz-adv-x="1229" d="M911 516h-594l-204 -516h-113l588 1468h65l576 -1468h-115zM354 608h523l-199 527q-25 62 -60 172q-27 -96 -59 -174zM612 -324q-64 0 -64 96.5t65 96.5t65 -96q0 -45 -17.5 -71t-48.5 -26z" />
<glyph unicode="&#x1ea1;" horiz-adv-x="1085" d="M842 0l-25 172h-8q-82 -105 -168.5 -148.5t-225.5 -43.5t-228 82t-89 234t132.5 240t383.5 93l207 6v72q0 155 -63 234t-208.5 79t-307.5 -84l-37 86q179 84 356 84t265.5 -93t88.5 -290v-723h-73zM442 70q174 0 274.5 99.5t100.5 276.5v107l-190 -8 q-229 -11 -326.5 -71.5t-97.5 -175.5t62.5 -171.5t176.5 -56.5zM512 -324q-64 0 -64 96.5t65 96.5t65 -96q0 -45 -17.5 -71t-48.5 -26z" />
<glyph unicode="&#x1ea2;" horiz-adv-x="1229" d="M911 516h-594l-204 -516h-113l588 1468h65l576 -1468h-115zM354 608h523l-199 527q-25 62 -60 172q-27 -96 -59 -174zM739 1839q0 96 -145 96q-48 0 -93 -8v78q52 12 107 12q108 0 168.5 -45.5t60.5 -128.5q0 -140 -168 -176l-10 -121h-80l-10 178q170 29 170 115z" />
<glyph unicode="&#x1ea3;" horiz-adv-x="1085" d="M842 0l-25 172h-8q-82 -105 -168.5 -148.5t-225.5 -43.5t-228 82t-89 234t132.5 240t383.5 93l207 6v72q0 155 -63 234t-208.5 79t-307.5 -84l-37 86q179 84 356 84t265.5 -93t88.5 -290v-723h-73zM442 70q174 0 274.5 99.5t100.5 276.5v107l-190 -8 q-229 -11 -326.5 -71.5t-97.5 -175.5t62.5 -171.5t176.5 -56.5zM633 1501q0 96 -145 96q-48 0 -93 -8v78q52 12 107 12q108 0 168.5 -45.5t60.5 -128.5q0 -140 -168 -176l-10 -121h-80l-10 178q170 29 170 115z" />
<glyph unicode="&#x1ea4;" horiz-adv-x="1229" d="M911 516h-594l-204 -516h-113l588 1468h65l576 -1468h-115zM354 608h523l-199 527q-25 62 -60 172q-27 -96 -59 -174zM674 1856q101 -135 229 -261v-16h-67q-128 93 -217 176q-89 -83 -217 -176h-68v16q141 136 234 261h106zM824 1790q68 88 135 211h125v-16 q-90 -121 -193 -211h-67v16z" />
<glyph unicode="&#x1ea5;" horiz-adv-x="1085" d="M842 0l-25 172h-8q-82 -105 -168.5 -148.5t-225.5 -43.5t-228 82t-89 234t132.5 240t383.5 93l207 6v72q0 155 -63 234t-208.5 79t-307.5 -84l-37 86q179 84 356 84t265.5 -93t88.5 -290v-723h-73zM442 70q174 0 274.5 99.5t100.5 276.5v107l-190 -8 q-229 -11 -326.5 -71.5t-97.5 -175.5t62.5 -171.5t176.5 -56.5zM588 1518q101 -135 229 -261v-16h-67q-128 93 -217 176q-89 -83 -217 -176h-68v16q141 136 234 261h106zM738 1452q68 88 135 211h125v-16q-90 -121 -193 -211h-67v16z" />
<glyph unicode="&#x1ea6;" horiz-adv-x="1229" d="M911 516h-594l-204 -516h-113l588 1468h65l576 -1468h-115zM354 608h523l-199 527q-25 62 -60 172q-27 -96 -59 -174zM674 1856q101 -135 229 -261v-16h-67q-128 93 -217 176q-89 -83 -217 -176h-68v16q141 136 234 261h106zM283 2001q65 -118 135 -211v-16h-67 q-115 100 -193 211v16h125z" />
<glyph unicode="&#x1ea7;" horiz-adv-x="1085" d="M842 0l-25 172h-8q-82 -105 -168.5 -148.5t-225.5 -43.5t-228 82t-89 234t132.5 240t383.5 93l207 6v72q0 155 -63 234t-208.5 79t-307.5 -84l-37 86q179 84 356 84t265.5 -93t88.5 -290v-723h-73zM442 70q174 0 274.5 99.5t100.5 276.5v107l-190 -8 q-229 -11 -326.5 -71.5t-97.5 -175.5t62.5 -171.5t176.5 -56.5zM588 1518q101 -135 229 -261v-16h-67q-128 93 -217 176q-89 -83 -217 -176h-68v16q141 136 234 261h106zM197 1663q65 -118 135 -211v-16h-67q-115 100 -193 211v16h125z" />
<glyph unicode="&#x1ea8;" horiz-adv-x="1229" d="M911 516h-594l-204 -516h-113l588 1468h65l576 -1468h-115zM354 608h523l-199 527q-25 62 -60 172q-27 -96 -59 -174zM1086 1987q0 -107 -131 -136l-4 -81h-68l-10 131q63 11 94 28t31 55t-29 51t-68 13t-79 -6v72q34 8 102 8t115 -36t47 -99zM674 1856 q101 -135 229 -261v-16h-67q-128 93 -217 176q-89 -83 -217 -176h-68v16q141 136 234 261h106z" />
<glyph unicode="&#x1ea9;" horiz-adv-x="1085" d="M842 0l-25 172h-8q-82 -105 -168.5 -148.5t-225.5 -43.5t-228 82t-89 234t132.5 240t383.5 93l207 6v72q0 155 -63 234t-208.5 79t-307.5 -84l-37 86q179 84 356 84t265.5 -93t88.5 -290v-723h-73zM442 70q174 0 274.5 99.5t100.5 276.5v107l-190 -8 q-229 -11 -326.5 -71.5t-97.5 -175.5t62.5 -171.5t176.5 -56.5zM1000 1649q0 -107 -131 -136l-4 -81h-68l-10 131q63 11 94 28t31 55t-29 51t-68 13t-79 -6v72q34 8 102 8t115 -36t47 -99zM588 1518q101 -135 229 -261v-16h-67q-128 93 -217 176q-89 -83 -217 -176h-68v16 q141 136 234 261h106z" />
<glyph unicode="&#x1eaa;" horiz-adv-x="1229" d="M911 516h-594l-204 -516h-113l588 1468h65l576 -1468h-115zM354 608h523l-199 527q-25 62 -60 172q-27 -96 -59 -174zM612 1998q-32 24 -61 44t-55 20q-80 0 -105 -129h-73q14 97 60 154t124 57q56 0 139 -62q32 -24 61 -43.5t58 -19.5q75 0 98 127h76 q-11 -101 -58.5 -156t-112.5 -55t-151 63zM674 1856q101 -135 229 -261v-16h-67q-128 93 -217 176q-89 -83 -217 -176h-68v16q141 136 234 261h106z" />
<glyph unicode="&#x1eab;" horiz-adv-x="1085" d="M842 0l-25 172h-8q-82 -105 -168.5 -148.5t-225.5 -43.5t-228 82t-89 234t132.5 240t383.5 93l207 6v72q0 155 -63 234t-208.5 79t-307.5 -84l-37 86q179 84 356 84t265.5 -93t88.5 -290v-723h-73zM442 70q174 0 274.5 99.5t100.5 276.5v107l-190 -8 q-229 -11 -326.5 -71.5t-97.5 -175.5t62.5 -171.5t176.5 -56.5zM526 1660q-32 24 -61 44t-55 20q-80 0 -105 -129h-73q14 97 60 154t124 57q56 0 139 -62q32 -24 61 -43.5t58 -19.5q75 0 98 127h76q-11 -101 -58.5 -156t-112.5 -55t-151 63zM588 1518q101 -135 229 -261v-16 h-67q-128 93 -217 176q-89 -83 -217 -176h-68v16q141 136 234 261h106z" />
<glyph unicode="&#x1eac;" horiz-adv-x="1229" d="M911 516h-594l-204 -516h-113l588 1468h65l576 -1468h-115zM354 608h523l-199 527q-25 62 -60 172q-27 -96 -59 -174zM612 -324q-64 0 -64 96.5t65 96.5t65 -96q0 -45 -17.5 -71t-48.5 -26zM328 1595q151 163 242 312h98q68 -120 242 -312v-16h-70q-122 101 -221 207 q-108 -114 -221 -207h-70v16z" />
<glyph unicode="&#x1ead;" horiz-adv-x="1085" d="M842 0l-25 172h-8q-82 -105 -168.5 -148.5t-225.5 -43.5t-228 82t-89 234t132.5 240t383.5 93l207 6v72q0 155 -63 234t-208.5 79t-307.5 -84l-37 86q179 84 356 84t265.5 -93t88.5 -290v-723h-73zM442 70q174 0 274.5 99.5t100.5 276.5v107l-190 -8 q-229 -11 -326.5 -71.5t-97.5 -175.5t62.5 -171.5t176.5 -56.5zM251 1257q151 163 242 312h98q68 -120 242 -312v-16h-70q-122 101 -221 207q-108 -114 -221 -207h-70v16zM512 -324q-64 0 -64 96.5t65 96.5t65 -96q0 -45 -17.5 -71t-48.5 -26z" />
<glyph unicode="&#x1eae;" horiz-adv-x="1229" d="M911 516h-594l-204 -516h-113l588 1468h65l576 -1468h-115zM354 608h523l-199 527q-25 62 -60 172q-27 -96 -59 -174zM895 1825q-30 -246 -280.5 -246t-272.5 246h82q14 -87 60.5 -124.5t134.5 -37.5t134.5 37.5t61.5 124.5h80zM815 2050q-80 -115 -192 -211h-68v17 q64 79 135 211h125v-17z" />
<glyph unicode="&#x1eaf;" horiz-adv-x="1085" d="M842 0l-25 172h-8q-82 -105 -168.5 -148.5t-225.5 -43.5t-228 82t-89 234t132.5 240t383.5 93l207 6v72q0 155 -63 234t-208.5 79t-307.5 -84l-37 86q179 84 356 84t265.5 -93t88.5 -290v-723h-73zM442 70q174 0 274.5 99.5t100.5 276.5v107l-190 -8 q-229 -11 -326.5 -71.5t-97.5 -175.5t62.5 -171.5t176.5 -56.5zM829 1487q-30 -246 -280.5 -246t-272.5 246h82q14 -87 60.5 -124.5t134.5 -37.5t134.5 37.5t61.5 124.5h80zM749 1712q-80 -115 -192 -211h-68v17q64 79 135 211h125v-17z" />
<glyph unicode="&#x1eb0;" horiz-adv-x="1229" d="M911 516h-594l-204 -516h-113l588 1468h65l576 -1468h-115zM354 608h523l-199 527q-25 62 -60 172q-27 -96 -59 -174zM602 1839q-114 100 -192 211v17h125q51 -94 70 -122.5t65 -88.5v-17h-68zM895 1825q-30 -246 -280.5 -246t-272.5 246h82q14 -87 60.5 -124.5 t134.5 -37.5t134.5 37.5t61.5 124.5h80z" />
<glyph unicode="&#x1eb1;" horiz-adv-x="1085" d="M842 0l-25 172h-8q-82 -105 -168.5 -148.5t-225.5 -43.5t-228 82t-89 234t132.5 240t383.5 93l207 6v72q0 155 -63 234t-208.5 79t-307.5 -84l-37 86q179 84 356 84t265.5 -93t88.5 -290v-723h-73zM442 70q174 0 274.5 99.5t100.5 276.5v107l-190 -8 q-229 -11 -326.5 -71.5t-97.5 -175.5t62.5 -171.5t176.5 -56.5zM536 1501q-114 100 -192 211v17h125q51 -94 70 -122.5t65 -88.5v-17h-68zM829 1487q-30 -246 -280.5 -246t-272.5 246h82q14 -87 60.5 -124.5t134.5 -37.5t134.5 37.5t61.5 124.5h80z" />
<glyph unicode="&#x1eb2;" horiz-adv-x="1229" d="M911 516h-594l-204 -516h-113l588 1468h65l576 -1468h-115zM354 608h523l-199 527q-25 62 -60 172q-27 -96 -59 -174zM760 1999q0 -107 -127 -131l-6 -43h-70l-10 90q62 11 93.5 28.5t31.5 55.5q0 63 -98 63q-39 0 -78 -6v72q34 8 102 8t115 -37t47 -100zM895 1825 q-30 -246 -280.5 -246t-272.5 246h82q14 -87 60.5 -124.5t134.5 -37.5t134.5 37.5t61.5 124.5h80z" />
<glyph unicode="&#x1eb3;" horiz-adv-x="1085" d="M842 0l-25 172h-8q-82 -105 -168.5 -148.5t-225.5 -43.5t-228 82t-89 234t132.5 240t383.5 93l207 6v72q0 155 -63 234t-208.5 79t-307.5 -84l-37 86q179 84 356 84t265.5 -93t88.5 -290v-723h-73zM442 70q174 0 274.5 99.5t100.5 276.5v107l-190 -8 q-229 -11 -326.5 -71.5t-97.5 -175.5t62.5 -171.5t176.5 -56.5zM694 1661q0 -107 -127 -131l-6 -43h-70l-10 90q62 11 93.5 28.5t31.5 55.5q0 63 -98 63q-39 0 -78 -6v72q34 8 102 8t115 -37t47 -100zM829 1487q-30 -246 -280.5 -246t-272.5 246h82q14 -87 60.5 -124.5 t134.5 -37.5t134.5 37.5t61.5 124.5h80z" />
<glyph unicode="&#x1eb4;" horiz-adv-x="1229" d="M911 516h-594l-204 -516h-113l588 1468h65l576 -1468h-115zM354 608h523l-199 527q-25 62 -60 172q-27 -96 -59 -174zM895 1825q-30 -246 -280.5 -246t-272.5 246h82q14 -87 60.5 -124.5t134.5 -37.5t134.5 37.5t61.5 124.5h80zM616 1988q-32 24 -61 44t-55 20 q-80 0 -105 -129h-73q14 97 60 154t124 57q56 0 139 -62q32 -24 61 -43.5t66 -19.5q65 0 90 127h76q-11 -101 -58.5 -156t-112.5 -55t-151 63z" />
<glyph unicode="&#x1eb5;" horiz-adv-x="1085" d="M842 0l-25 172h-8q-82 -105 -168.5 -148.5t-225.5 -43.5t-228 82t-89 234t132.5 240t383.5 93l207 6v72q0 155 -63 234t-208.5 79t-307.5 -84l-37 86q179 84 356 84t265.5 -93t88.5 -290v-723h-73zM442 70q174 0 274.5 99.5t100.5 276.5v107l-190 -8 q-229 -11 -326.5 -71.5t-97.5 -175.5t62.5 -171.5t176.5 -56.5zM829 1487q-30 -246 -280.5 -246t-272.5 246h82q14 -87 60.5 -124.5t134.5 -37.5t134.5 37.5t61.5 124.5h80zM550 1650q-32 24 -61 44t-55 20q-80 0 -105 -129h-73q14 97 60 154t124 57q56 0 139 -62 q32 -24 61 -43.5t66 -19.5q65 0 90 127h76q-11 -101 -58.5 -156t-112.5 -55t-151 63z" />
<glyph unicode="&#x1eb6;" horiz-adv-x="1229" d="M911 516h-594l-204 -516h-113l588 1468h65l576 -1468h-115zM354 608h523l-199 527q-25 62 -60 172q-27 -96 -59 -174zM895 1825q-30 -246 -280.5 -246t-272.5 246h82q14 -87 60.5 -124.5t134.5 -37.5t134.5 37.5t61.5 124.5h80zM612 -324q-64 0 -64 96.5t65 96.5t65 -96 q0 -45 -17.5 -71t-48.5 -26z" />
<glyph unicode="&#x1eb7;" horiz-adv-x="1085" d="M842 0l-25 172h-8q-82 -105 -168.5 -148.5t-225.5 -43.5t-228 82t-89 234t132.5 240t383.5 93l207 6v72q0 155 -63 234t-208.5 79t-307.5 -84l-37 86q179 84 356 84t265.5 -93t88.5 -290v-723h-73zM442 70q174 0 274.5 99.5t100.5 276.5v107l-190 -8 q-229 -11 -326.5 -71.5t-97.5 -175.5t62.5 -171.5t176.5 -56.5zM830 1487q-30 -246 -280.5 -246t-272.5 246h82q14 -87 60.5 -124.5t134.5 -37.5t134.5 37.5t61.5 124.5h80zM512 -324q-64 0 -64 96.5t65 96.5t65 -96q0 -45 -17.5 -71t-48.5 -26z" />
<glyph unicode="&#x1eb8;" horiz-adv-x="1130" d="M1006 0h-799v1462h799v-94h-697v-553h658v-94h-658v-627h697v-94zM608 -324q-64 0 -64 96.5t65 96.5t65 -96q0 -45 -17.5 -71t-48.5 -26z" />
<glyph unicode="&#x1eb9;" horiz-adv-x="1124" d="M963 49q-159 -69 -342 -69q-237 0 -369.5 146t-132.5 407.5t128 418t332.5 156.5t315.5 -134t111 -364v-80h-783q2 -224 104.5 -342t293.5 -118q93 0 163.5 13t178.5 56v-90zM819 913.5q-82 106.5 -233 106.5t-246 -103.5t-111 -298.5h672q0 189 -82 295.5zM576 -324 q-64 0 -64 96.5t65 96.5t65 -96q0 -45 -17.5 -71t-48.5 -26z" />
<glyph unicode="&#x1eba;" horiz-adv-x="1130" d="M1006 0h-799v1462h799v-94h-697v-553h658v-94h-658v-627h697v-94zM700 1839q0 96 -145 96q-48 0 -93 -8v78q52 12 107 12q108 0 168.5 -45.5t60.5 -128.5q0 -140 -168 -176l-10 -121h-80l-10 178q170 29 170 115z" />
<glyph unicode="&#x1ebb;" horiz-adv-x="1124" d="M963 49q-159 -69 -342 -69q-237 0 -369.5 146t-132.5 407.5t128 418t332.5 156.5t315.5 -134t111 -364v-80h-783q2 -224 104.5 -342t293.5 -118q93 0 163.5 13t178.5 56v-90zM819 913.5q-82 106.5 -233 106.5t-246 -103.5t-111 -298.5h672q0 189 -82 295.5zM688 1501 q0 96 -145 96q-48 0 -93 -8v78q52 12 107 12q108 0 168.5 -45.5t60.5 -128.5q0 -140 -168 -176l-10 -121h-80l-10 178q170 29 170 115z" />
<glyph unicode="&#x1ebc;" horiz-adv-x="1130" d="M1006 0h-799v1462h799v-94h-697v-553h658v-94h-658v-627h697v-94zM754 1663q93 0 125 156h76q-16 -116 -69 -177t-132 -61q-71 0 -176 90q-32 26 -62.5 46t-69.5 20q-84 0 -116 -156h-73q10 111 63 174.5t137 63.5q48 0 88 -25t78 -56t70 -53t61 -22z" />
<glyph unicode="&#x1ebd;" horiz-adv-x="1124" d="M963 49q-159 -69 -342 -69q-237 0 -369.5 146t-132.5 407.5t128 418t332.5 156.5t315.5 -134t111 -364v-80h-783q2 -224 104.5 -342t293.5 -118q93 0 163.5 13t178.5 56v-90zM819 913.5q-82 106.5 -233 106.5t-246 -103.5t-111 -298.5h672q0 189 -82 295.5zM738 1325 q93 0 125 156h76q-16 -116 -69 -177t-132 -61q-71 0 -176 90q-32 26 -62.5 46t-69.5 20q-84 0 -116 -156h-73q10 111 63 174.5t137 63.5q48 0 88 -25t78 -56t70 -53t61 -22z" />
<glyph unicode="&#x1ebe;" horiz-adv-x="1130" d="M1006 0h-799v1462h799v-94h-697v-553h658v-94h-658v-627h697v-94zM659 1856q101 -135 229 -261v-16h-67q-128 93 -217 176q-89 -83 -217 -176h-68v16q141 136 234 261h106zM809 1790q68 88 135 211h125v-16q-90 -121 -193 -211h-67v16z" />
<glyph unicode="&#x1ebf;" horiz-adv-x="1124" d="M963 49q-159 -69 -342 -69q-237 0 -369.5 146t-132.5 407.5t128 418t332.5 156.5t315.5 -134t111 -364v-80h-783q2 -224 104.5 -342t293.5 -118q93 0 163.5 13t178.5 56v-90zM819 913.5q-82 106.5 -233 106.5t-246 -103.5t-111 -298.5h672q0 189 -82 295.5zM623 1518 q101 -135 229 -261v-16h-67q-128 93 -217 176q-89 -83 -217 -176h-68v16q141 136 234 261h106zM773 1452q68 88 135 211h125v-16q-90 -121 -193 -211h-67v16z" />
<glyph unicode="&#x1ec0;" horiz-adv-x="1130" d="M1006 0h-799v1462h799v-94h-697v-553h658v-94h-658v-627h697v-94zM661 1856q101 -135 229 -261v-16h-67q-128 93 -217 176q-89 -83 -217 -176h-68v16q141 136 234 261h106zM270 2001q65 -118 135 -211v-16h-67q-115 100 -193 211v16h125z" />
<glyph unicode="&#x1ec1;" horiz-adv-x="1124" d="M963 49q-159 -69 -342 -69q-237 0 -369.5 146t-132.5 407.5t128 418t332.5 156.5t315.5 -134t111 -364v-80h-783q2 -224 104.5 -342t293.5 -118q93 0 163.5 13t178.5 56v-90zM819 913.5q-82 106.5 -233 106.5t-246 -103.5t-111 -298.5h672q0 189 -82 295.5zM623 1518 q101 -135 229 -261v-16h-67q-128 93 -217 176q-89 -83 -217 -176h-68v16q141 136 234 261h106zM232 1663q65 -118 135 -211v-16h-67q-115 100 -193 211v16h125z" />
<glyph unicode="&#x1ec2;" horiz-adv-x="1130" d="M1006 0h-799v1462h799v-94h-697v-553h658v-94h-658v-627h697v-94zM1073 1987q0 -107 -131 -136l-4 -81h-68l-10 131q63 11 94 28t31 55t-29 51t-68 13t-79 -6v72q34 8 102 8t115 -36t47 -99zM661 1856q101 -135 229 -261v-16h-67q-128 93 -217 176q-89 -83 -217 -176h-68 v16q141 136 234 261h106z" />
<glyph unicode="&#x1ec3;" horiz-adv-x="1124" d="M963 49q-159 -69 -342 -69q-237 0 -369.5 146t-132.5 407.5t128 418t332.5 156.5t315.5 -134t111 -364v-80h-783q2 -224 104.5 -342t293.5 -118q93 0 163.5 13t178.5 56v-90zM819 913.5q-82 106.5 -233 106.5t-246 -103.5t-111 -298.5h672q0 189 -82 295.5zM1035 1649 q0 -107 -131 -136l-4 -81h-68l-10 131q63 11 94 28t31 55t-29 51t-68 13t-79 -6v72q34 8 102 8t115 -36t47 -99zM623 1518q101 -135 229 -261v-16h-67q-128 93 -217 176q-89 -83 -217 -176h-68v16q141 136 234 261h106z" />
</font>
</defs>
</svg>
